<?xml version="1.0" standalone="no"?>
<!DOCTYPE svg PUBLIC "-//W3C//DTD SVG 1.1//EN" "http://www.w3.org/Graphics/SVG/1.1/DTD/svg11.dtd" >
<svg xmlns="http://www.w3.org/2000/svg" xmlns:xlink="http://www.w3.org/1999/xlink" version="1.1">
<metadata>
Created by FontForge 20170731 at Mon Aug 16 19:48:10 2021
 By Aleksey,,,
Copyright 2016 The Rokkit Project Authors (https://github.com/googlefonts/RokkittFont)
</metadata>
<defs>
<font id="Rokkitt-Light" horiz-adv-x="506" >
  <font-face 
    font-family="Rokkitt Light"
    font-weight="300"
    font-stretch="normal"
    units-per-em="1000"
    panose-1="0 0 0 0 0 0 0 0 0 0"
    ascent="800"
    descent="-200"
    x-height="393"
    cap-height="563"
    bbox="-192 -214.037 1217 950"
    underline-thickness="50"
    underline-position="-175"
    unicode-range="U+000D-FB02"
  />
<missing-glyph horiz-adv-x="518" 
d="M40 0v563h438v-563h-438zM100 70h318v423h-318v-423z" />
    <glyph glyph-name="fi" unicode="fi" horiz-adv-x="542" 
d="M48 0v39h73v315h-75v39h75v44q0 57 23.5 94.5t64.5 56t93 18.5q42 0 77 -11.5t56.5 -30.5t21.5 -44q0 -18 -10.5 -28t-28.5 -10t-29 9.5t-11 26.5q0 18 15 26q-13 14 -38.5 21.5t-53.5 7.5q-57 0 -91.5 -32.5t-34.5 -103.5v-44h274v-354h71v-39h-198v39h73v315h-220v-315
h92v-39h-219z" />
    <glyph glyph-name="f_f" unicode="ff" horiz-adv-x="540" 
d="M48 0v39h74v315h-76v39h76v95q0 47 26 74.5t76 27.5q38 0 65 -18.5t30 -61.5l-41 -13q-4 26 -16 40.5t-36 14.5q-22 0 -35.5 -16t-13.5 -49v-94h191v95q0 32 12 55t35 35t55 12q25 0 45.5 -7.5t34.5 -25t16 -47.5l-42 -13q-4 27 -16.5 40.5t-35.5 13.5q-21 0 -35 -15.5
t-14 -48.5v-94h100v-39h-100v-315h93v-39h-218v39h70v315h-191v-315h89v-39h-218z" />
    <glyph glyph-name=".notdef" horiz-adv-x="518" 
d="M40 0v563h438v-563h-438zM100 70h318v423h-318v-423z" />
    <glyph glyph-name=".null" horiz-adv-x="0" 
 />
    <glyph glyph-name="nonmarkingreturn" horiz-adv-x="333" 
 />
    <glyph glyph-name="NULL" horiz-adv-x="0" 
 />
    <glyph glyph-name="NULL" horiz-adv-x="0" 
 />
    <glyph glyph-name="CR" unicode="&#xd;" horiz-adv-x="289" 
 />
    <glyph glyph-name="space" unicode=" " horiz-adv-x="289" 
 />
    <glyph glyph-name="exclam" unicode="!" horiz-adv-x="144" 
d="M49 143l-10 251v185h56v-185l-10 -251h-36zM67 -6q-18 0 -29.5 11t-11.5 27q0 18 12 29t29 11q18 0 30 -11t12 -29q0 -16 -12.5 -27t-29.5 -11z" />
    <glyph glyph-name="quotedbl" unicode="&#x22;" horiz-adv-x="242" 
d="M61 435l-16 195h59l-12 -195h-31zM154 435l-16 195h59l-12 -195h-31z" />
    <glyph glyph-name="numbersign" unicode="#" horiz-adv-x="513" 
d="M92 -2l20 181h-80l1 37h85l18 161h-90v38h96l19 164h47l-19 -164h164l19 164h47l-19 -164h83v-38h-89l-18 -161h93v-37h-99l-20 -181h-47l21 181h-166l-19 -181h-47zM165 216h164l17 161h-164z" />
    <glyph glyph-name="dollar" unicode="$" horiz-adv-x="535" 
d="M244 -89v745h45v-745h-45zM292 -10q-46 0 -84 12.5t-64.5 36t-39.5 55.5h9v-94h-48v190h45q3 -47 22.5 -82.5t58.5 -55.5t99 -20q61 0 94.5 29t33.5 81q0 38 -12.5 60.5t-41.5 35.5t-78 20l-49 7q-82 13 -128 50t-46 109q0 47 21 80.5t61 51.5t95 18q65 0 111.5 -27.5
t61.5 -73.5h-15v90h48v-155h-45q-2 31 -18.5 59t-50.5 46t-90 18q-61 0 -93.5 -28.5t-32.5 -74.5q0 -53 34.5 -77t96.5 -35l49 -7q60 -9 99 -27.5t57.5 -50.5t18.5 -82q0 -44 -21 -80.5t-60.5 -57.5t-97.5 -21z" />
    <glyph glyph-name="percent" unicode="%" horiz-adv-x="663" 
d="M155 299q-37 0 -66 17.5t-45.5 49t-16.5 71.5t16.5 71t46 48.5t65.5 17.5q57 0 93.5 -38.5t36.5 -98.5q0 -40 -16.5 -71.5t-46 -49t-67.5 -17.5zM155 332q40 1 65 30t25 75t-25 74.5t-65 29.5q-37 -1 -62.5 -29.5t-25.5 -74.5t25.5 -75t62.5 -30zM507 -11q-37 0 -66 18
t-46 49.5t-17 71.5q0 60 36.5 98t92.5 38t92.5 -38.5t36.5 -97.5q0 -40 -16.5 -71.5t-46 -49.5t-66.5 -18zM507 23q39 0 64 29.5t25 75.5q0 45 -25 74.5t-64 29.5q-38 0 -63.5 -29.5t-25.5 -74.5q0 -46 25.5 -75.5t63.5 -29.5zM124 -1l377 566h41l-376 -566h-42z" />
    <glyph glyph-name="ampersand" unicode="&#x26;" horiz-adv-x="590" 
d="M243 -10q-58 0 -100.5 20.5t-66 58.5t-23.5 89q0 41 15.5 73.5t47 56.5t76.5 40q-33 40 -52 75t-19 68q0 35 17.5 60.5t49 39.5t74.5 14q42 0 72 -13.5t46.5 -38.5t16.5 -59q0 -50 -35 -91t-101 -69l154 -187q11 17 20.5 40.5t16.5 48.5t8 44h102v-41h-66
q-3 -18 -11.5 -41.5t-19.5 -46.5t-23 -39l40 -51h80v-41h-109l-43 56q-31 -32 -74 -49t-93 -17zM249 35q40 0 74.5 13.5t59.5 41.5l-166 205q-55 -18 -82.5 -52t-27.5 -83q0 -37 17.5 -65.5t49.5 -44t75 -15.5zM237 346q54 22 83.5 54t29.5 72q0 35 -23.5 54.5t-65.5 19.5
q-41 0 -66 -19t-25 -54q0 -28 19.5 -59t47.5 -68z" />
    <glyph glyph-name="quotesingle" unicode="'" horiz-adv-x="150" 
d="M61 435l-16 195h59l-12 -195h-31z" />
    <glyph glyph-name="parenleft" unicode="(" horiz-adv-x="265" 
d="M240 -58q-65 25 -108 74t-64.5 112t-21.5 129q0 67 21.5 130t64.5 112.5t108 73.5l1 -34q-44 -21 -73 -64t-43.5 -99.5t-14.5 -117.5q0 -60 14.5 -117t43.5 -100.5t73 -63.5z" />
    <glyph glyph-name="parenright" unicode=")" horiz-adv-x="265" 
d="M50 -58l-1 35q44 20 73 63.5t44 100.5t15 117q0 61 -15 117.5t-44 99.5t-73 64l1 34q64 -24 107 -73.5t65 -112.5t22 -130q0 -66 -22 -129t-65 -112t-107 -74z" />
    <glyph glyph-name="asterisk" unicode="*" horiz-adv-x="457" 
d="M126 203l-40 30l126 148l-188 53l15 47l180 -81l-15 195h50l-15 -195l179 81l16 -47l-189 -53l126 -148l-39 -29l-104 165z" />
    <glyph glyph-name="plus" unicode="+" horiz-adv-x="526" 
d="M240 74v186h-179v41h179v186h46v-186h179v-41h-179v-186h-46z" />
    <glyph glyph-name="comma" unicode="," horiz-adv-x="200" 
d="M51 -96v30q24 3 33.5 17.5t9.5 48.5h-41v77h76v-65q0 -51 -16.5 -79.5t-61.5 -28.5z" />
    <glyph glyph-name="hyphen" unicode="-" horiz-adv-x="385" 
d="M70 221v41h245v-41h-245z" />
    <glyph glyph-name="period" unicode="." horiz-adv-x="196" 
d="M51 0v76h74v-76h-74z" />
    <glyph glyph-name="slash" unicode="/" horiz-adv-x="303" 
d="M10 -140l276 733h47l-276 -733h-47z" />
    <glyph glyph-name="zero" unicode="0" horiz-adv-x="535" 
d="M267 -11q-101 0 -153 76t-52 217q0 137 52 214t153 77t153.5 -77t52.5 -214q0 -141 -52.5 -217t-153.5 -76zM267 28q74 0 113 65t39 189q0 123 -39 187.5t-113 64.5q-73 0 -112.5 -64.5t-39.5 -187.5q0 -124 39.5 -189.5t112.5 -64.5z" />
    <glyph glyph-name="one" unicode="1" horiz-adv-x="296" 
d="M49 0v39h82v474l-83 -17l-1 40l136 27v-524h80v-39h-214z" />
    <glyph glyph-name="two" unicode="2" horiz-adv-x="465" 
d="M48 0v38l179 180q44 45 71.5 78t40.5 62.5t13 62.5q0 49 -29.5 81t-88.5 32q-58 0 -92.5 -31.5t-34.5 -90.5q0 -14 2 -29t6 -32h-49q-4 16 -6.5 32t-2.5 31q0 48 22 83.5t63.5 55.5t97.5 20q77 0 121.5 -40.5t44.5 -106.5q0 -40 -17.5 -75.5t-50 -73t-79.5 -84.5
l-173 -173l-10 22h284v104h48l1 -146h-361z" />
    <glyph glyph-name="three" unicode="3" horiz-adv-x="471" 
d="M233 -10q-73 0 -123.5 29.5t-79.5 83.5l43 25q24 -47 64 -71t97 -24q63 0 100 31t37 85q0 63 -45.5 94t-137.5 31v42q86 0 131 28t45 83q0 48 -33 76t-95 28q-56 0 -96 -26t-58 -73l-43 20q16 38 44 65t67 41.5t87 14.5q83 0 130.5 -38.5t47.5 -105.5q0 -41 -20.5 -71.5
t-57.5 -47.5t-86 -18v8q79 1 126.5 -39.5t47.5 -111.5q0 -48 -23.5 -84t-66.5 -55.5t-102 -19.5z" />
    <glyph glyph-name="four" unicode="4" horiz-adv-x="449" 
d="M186 0v39h89v109h-260l-6 38l268 377h48v-375h94v-40h-94v-109h69v-39h-208zM59 188h216v304z" />
    <glyph glyph-name="five" unicode="5" horiz-adv-x="484" 
d="M240 -11q-63 0 -113 25.5t-87 68.5l35 34q30 -38 72 -60.5t92 -22.5q73 0 111 38t38 101q0 64 -36.5 101t-102.5 37q-42 0 -76 -15t-61 -42l-45 19l7 290h340v-132h-51v89h-243l-7 -246l-14 19q27 29 67.5 46.5t90.5 17.5q89 0 137 -51t48 -132q0 -57 -24.5 -98.5
t-70 -64t-107.5 -22.5z" />
    <glyph glyph-name="six" unicode="6" horiz-adv-x="439" 
d="M220 -10q-54 0 -96 22.5t-66 63t-24 93.5q0 37 8 67t24.5 62.5t44.5 75.5l144 233l45 -29l-195 -301l-10 1q13 20 35 34.5t49 23.5t56 9q49 0 87.5 -22t61 -60.5t22.5 -91.5q0 -54 -23.5 -95t-65 -63.5t-97.5 -22.5zM221 31q63 0 99 38.5t36 99.5t-35 98t-96 37
q-35 0 -66.5 -16t-51 -47.5t-19.5 -75.5q0 -57 35 -95.5t98 -38.5z" />
    <glyph glyph-name="seven" unicode="7" horiz-adv-x="425" 
d="M140 0l186 522h-262v-105h-53v146h371v-38l-190 -525h-52z" />
    <glyph glyph-name="eight" unicode="8" horiz-adv-x="453" 
d="M227 -11q-62 0 -105.5 20.5t-66 56.5t-22.5 82q0 54 29.5 94t85.5 54q-52 20 -74.5 53t-22.5 80q0 44 21.5 76t61 50t93.5 18t93.5 -17.5t61 -50t21.5 -76.5q0 -48 -23.5 -84.5t-76.5 -51.5q58 -13 88 -51.5t30 -93.5q0 -46 -23 -82.5t-66.5 -56.5t-104.5 -20zM227 31
q63 0 99.5 32t36.5 86q0 60 -42 90.5t-136 40.5q-25 -5 -47 -22t-35 -44t-13 -64q0 -54 37 -86.5t100 -32.5zM270 309q20 6 37.5 20t29 37.5t11.5 58.5q0 49 -31.5 78t-89.5 29q-57 0 -89 -29t-32 -78q0 -54 40.5 -81.5t123.5 -34.5z" />
    <glyph glyph-name="nine" unicode="9" horiz-adv-x="439" 
d="M183 -43l-45 28l194 302l11 -2q-13 -19 -35 -34t-49 -23.5t-56 -8.5q-49 0 -87.5 21.5t-61.5 61t-23 91.5q0 54 24 94.5t65.5 63.5t96.5 23t97 -22.5t66 -63t24 -94.5q0 -36 -8 -66.5t-25 -62.5t-44 -75zM213 259q36 0 67 16.5t50.5 47.5t19.5 76q0 57 -35 95.5t-98 38.5
t-99 -38.5t-36 -99.5q0 -62 35 -99t96 -37z" />
    <glyph glyph-name="colon" unicode=":" horiz-adv-x="196" 
d="M51 0v76h74v-76h-74zM51 317v76h74v-76h-74z" />
    <glyph glyph-name="semicolon" unicode=";" horiz-adv-x="200" 
d="M51 -96v30q24 3 33.5 17.5t9.5 48.5h-41v77h76v-65q0 -51 -16.5 -79.5t-61.5 -28.5zM51 317v76h74v-76h-74z" />
    <glyph glyph-name="less" unicode="&#x3c;" horiz-adv-x="469" 
d="M428 90l-367 175v36l367 175v-47l-315 -146l315 -146v-47z" />
    <glyph glyph-name="equal" unicode="=" horiz-adv-x="514" 
d="M61 342v41h392v-41h-392zM61 180v41h392v-41h-392z" />
    <glyph glyph-name="greater" unicode="&#x3e;" horiz-adv-x="469" 
d="M41 90v47l315 146l-315 146v47l367 -175v-36z" />
    <glyph glyph-name="question" unicode="?" horiz-adv-x="365" 
d="M134 142v8q0 39 11 67t30 51t44 50q30 32 46.5 61.5t16.5 67.5q0 45 -26.5 70t-70.5 25q-47 0 -75.5 -25.5t-30.5 -71.5h-59q3 46 25.5 76.5t58.5 46.5t80 16q74 0 117 -38t43 -97q0 -46 -24 -79.5t-61 -72.5q-24 -24 -39.5 -44.5t-22.5 -44t-7 -58.5v-8h-56zM162 -8
q-18 0 -30.5 11t-12.5 29q0 17 12.5 28.5t30.5 11.5t30.5 -11.5t12.5 -28.5q0 -18 -12.5 -29t-30.5 -11z" />
    <glyph glyph-name="at" unicode="@" horiz-adv-x="695" 
d="M378 -21q-83 0 -143.5 24.5t-100.5 65.5t-59.5 93t-19.5 107q0 58 21 113.5t61.5 100t99.5 71.5t137 27q71 0 122 -21t82.5 -56.5t46.5 -78.5t15 -89q0 -47 -14.5 -88.5t-39 -73t-53.5 -47t-59 -10.5q-14 2 -25.5 11.5t-14.5 29t6 53.5q-16 -40 -45.5 -68t-74.5 -28
q-32 0 -60.5 16t-46 47.5t-17.5 77.5q0 47 19 91.5t55.5 74t90.5 29.5q43 0 71.5 -26t29.5 -68l18 85h36l-46 -211q-9 -45 -5.5 -65t18.5 -22q17 -4 38 8t41 37.5t32.5 62.5t12.5 83q0 55 -26 103.5t-78 79t-132 30.5q-79 0 -141 -36.5t-98 -99.5t-36 -144
q0 -77 33.5 -134.5t96.5 -89.5t152 -32q55 0 99 12.5t79 37.5l19 -25q-38 -28 -85.5 -43t-111.5 -15zM326 147q36 0 62.5 24.5t42 64t15.5 85.5q0 48 -24 72t-65 24q-37 0 -64 -23t-41.5 -60t-14.5 -79q0 -47 22 -77.5t67 -30.5z" />
    <glyph glyph-name="A" unicode="A" horiz-adv-x="675" 
d="M34 0v39h74l176 485h-66v39h241v-39h-69l179 -485h71v-39h-207v39h74l-66 186h-212l-66 -186h74v-39h-203zM241 264h188l-92 258h-4z" />
    <glyph glyph-name="B" unicode="B" horiz-adv-x="603" 
d="M48 0v39h81v485h-81v39h297q87 0 133.5 -35t46.5 -104q0 -48 -23 -81t-62 -44q42 -8 67.5 -29.5t37.5 -50.5t12 -62q0 -42 -18.5 -78t-58.5 -57.5t-103 -21.5h-329zM188 39h180q66 0 98 32.5t32 87.5q0 50 -33.5 83.5t-104.5 33.5h-172v-237zM188 316h166q61 0 87.5 29.5
t26.5 76.5q0 55 -34 78.5t-104 23.5h-142v-208z" />
    <glyph glyph-name="C" unicode="C" horiz-adv-x="674" 
d="M346 -11q-60 0 -112.5 19.5t-93.5 57.5t-64 92.5t-23 124.5q0 82 36.5 148t102.5 104t155 38q60 0 104.5 -17.5t74.5 -49t47 -73.5l-18 2v128h45v-164l-39 -4q-34 69 -84 101.5t-128 32.5q-74 0 -127.5 -33.5t-81.5 -89.5t-28 -123q0 -60 19 -106.5t52.5 -78.5t76 -48.5
t89.5 -16.5q43 0 84.5 12.5t76 40.5t55.5 76l42 -22q-26 -56 -66 -89t-89.5 -47t-105.5 -15z" />
    <glyph glyph-name="D" unicode="D" horiz-adv-x="690" 
d="M49 0v39h81v485h-81v39h319q69 0 119 -24.5t83.5 -65.5t49.5 -90.5t16 -98.5q0 -56 -16.5 -107t-50 -90.5t-83.5 -63t-116 -23.5h-321zM189 39h174q55 0 95.5 20t66.5 54.5t38.5 78t12.5 90.5q0 45 -13 87.5t-39 77.5t-65.5 56t-92.5 21h-177v-485z" />
    <glyph glyph-name="E" unicode="E" horiz-adv-x="589" 
d="M48 0v39h81v485h-81v39h477v-164h-47v125h-290v-214h189v73h33v-190h-33v76h-189v-230h298v128h47v-167h-485z" />
    <glyph glyph-name="F" unicode="F" horiz-adv-x="554" 
d="M48 0v39h81v485h-81v39h474v-172h-46v133h-288v-212h186v68h33v-185h-33v75h-186v-231h81v-39h-221z" />
    <glyph glyph-name="G" unicode="G" horiz-adv-x="683" 
d="M352 -10q-93 0 -160.5 37t-103.5 103.5t-36 153.5q0 88 37.5 152.5t104.5 100.5t157 36q79 0 138 -35t88 -94l-23 3v116h48v-164h-42q-27 63 -82 97t-125 34q-73 0 -126.5 -29.5t-83 -84t-29.5 -129.5q0 -78 29.5 -135t83.5 -87.5t127 -30.5q38 0 76 11t70 34.5t51 63.5
t19 98l28 -5h-150v41h179v-18q0 -72 -22 -123.5t-60.5 -83.5t-88 -47t-104.5 -15z" />
    <glyph glyph-name="H" unicode="H" horiz-adv-x="712" 
d="M48 0v39h81v485h-81v39h221v-39h-81v-216h336v216h-82v39h221v-39h-81v-485h81v-39h-221v39h82v227h-336v-227h81v-39h-221z" />
    <glyph glyph-name="I" unicode="I" horiz-adv-x="327" 
d="M52 0v39h81v485h-81v39h222v-39h-82v-485h82v-39h-222z" />
    <glyph glyph-name="J" unicode="J" horiz-adv-x="304" 
d="M40 -73v46h60q34 0 43 21.5t9 62.5v467h-72v39h198v-39h-67v-469q0 -47 -11 -75t-34 -40.5t-61 -12.5h-65z" />
    <glyph glyph-name="K" unicode="K" horiz-adv-x="634" 
d="M48 0v39h81v485h-81v39h221v-39h-81v-232l256 232h-69v39h216v-39h-78l-262 -239l273 -246h77v-39h-219v39h70l-264 236v-236h81v-39h-221z" />
    <glyph glyph-name="L" unicode="L" horiz-adv-x="521" 
d="M48 0v39h81v485h-81v39h221v-39h-81v-485h260v167h47v-206h-447z" />
    <glyph glyph-name="M" unicode="M" horiz-adv-x="774" 
d="M34 0v39h75v485h-75v39h154l203 -423l192 423h157v-39h-75v-485h75v-39h-206v39h74v465l-214 -467h-18l-221 467v-465h75v-39h-196z" />
    <glyph glyph-name="N" unicode="N" horiz-adv-x="704" 
d="M51 0v39h77v485h-77v39h141l363 -484v445h-78v39h196v-39h-71v-524h-59l-368 496v-457h76v-39h-200z" />
    <glyph glyph-name="O" unicode="O" horiz-adv-x="709" 
d="M354 -11q-72 0 -128 24t-94 65.5t-58 93.5t-20 108t20 108.5t58.5 94t94.5 66t127 24.5q72 0 128 -24.5t94.5 -66t58.5 -94t20 -108.5q0 -57 -19.5 -109t-58 -93t-94.5 -65t-129 -24zM354 33q59 0 103.5 20t75 55.5t45.5 79.5t15 92t-15 92.5t-45.5 80t-75 56.5
t-103.5 21t-103 -21t-74 -57t-45 -80.5t-15 -92.5t14.5 -92.5t44.5 -79.5t74.5 -54.5t103.5 -19.5z" />
    <glyph glyph-name="P" unicode="P" horiz-adv-x="576" 
d="M48 0v39h81v485h-81v39h289q91 0 140.5 -40t49.5 -115q0 -82 -49.5 -126.5t-142.5 -44.5h-105v39h104q63 0 98 34.5t35 96.5q0 56 -32.5 86.5t-92.5 30.5h-154v-485h81v-39h-221z" />
    <glyph glyph-name="Q" unicode="Q" horiz-adv-x="705" 
d="M517 -120q-56 0 -100 30t-81 80q-69 3 -121.5 28t-88 65.5t-54 91.5t-18.5 105q0 56 20 108.5t58.5 94t94.5 66t127 24.5q72 0 128 -24.5t94.5 -66t58.5 -94t20 -108.5q0 -53 -17 -102.5t-51 -89.5t-83.5 -65.5t-114.5 -31.5q27 -31 56.5 -51.5t71.5 -20.5q13 0 27.5 2.5
t30.5 6.5v-39q-15 -4 -29.5 -6.5t-28.5 -2.5zM354 33q59 0 103.5 20t75 55.5t45.5 79.5t15 92t-15 92.5t-45.5 80t-75 56.5t-103.5 21t-103 -21t-74 -57t-45 -80.5t-15 -92.5t14.5 -92.5t44.5 -79.5t74.5 -54.5t103.5 -19.5z" />
    <glyph glyph-name="R" unicode="R" horiz-adv-x="624" 
d="M48 0v39h81v485h-81v39h301q58 0 97.5 -19t59.5 -52.5t20 -76.5q0 -38 -15 -70.5t-49.5 -53.5t-93.5 -26l139 -226h83v-39h-123l-156 260h-88v41h107q56 0 85.5 17.5t41 43.5t11.5 52q0 28 -11.5 53t-37.5 41t-69 16h-162v-485h81v-39h-221z" />
    <glyph glyph-name="S" unicode="S" horiz-adv-x="536" 
d="M305 -10q-46 0 -84 12.5t-64.5 36t-39.5 55.5h9v-94h-48v190h45q3 -47 22.5 -82.5t58.5 -55.5t99 -20q62 0 95 29t33 81q0 38 -12.5 60.5t-41.5 35.5t-78 20l-49 7q-82 13 -128 50t-46 109q0 47 21 80.5t61 51.5t95 18q65 0 111.5 -27.5t61.5 -73.5h-15v90h48v-155h-45
q-2 31 -18 59t-50.5 46t-90.5 18q-61 0 -93.5 -28.5t-32.5 -74.5q0 -53 34.5 -77t96.5 -35l49 -7q60 -9 99 -27.5t57.5 -50.5t18.5 -82q0 -44 -21 -80.5t-60.5 -57.5t-97.5 -21z" />
    <glyph glyph-name="T" unicode="T" horiz-adv-x="559" 
d="M169 0v39h81v485h-180v-153h-45v192h509v-192h-46v153h-180v-485h81v-39h-220z" />
    <glyph glyph-name="U" unicode="U" horiz-adv-x="696" 
d="M347 -10q-79 0 -132 26t-80 72.5t-27 106.5v329h-74v39h208v-39h-75v-335q0 -47 22 -82t63 -54t96 -19q60 0 103.5 18.5t67.5 53.5t24 83v335h-74v39h201v-39h-76v-334q0 -64 -31.5 -109t-87 -68t-128.5 -23z" />
    <glyph glyph-name="V" unicode="V" horiz-adv-x="628" 
d="M289 0l-202 524h-70v39h206v-39h-75l171 -458l169 458h-73v39h194v-39h-65l-202 -524h-53z" />
    <glyph glyph-name="W" unicode="W" horiz-adv-x="936" 
d="M268 0l-171 524h-68v39h201v-39h-75l142 -449l154 470h43l153 -470l139 449h-74v39h195v-39h-70l-166 -524h-53l-148 450l-149 -450h-53z" />
    <glyph glyph-name="X" unicode="X" horiz-adv-x="635" 
d="M41 0v37h73l171 252l-163 236h-75v38h206v-38h-71l138 -203l135 203h-72v38h201v-38h-75l-162 -237l172 -251h76v-37h-208v37h71l-146 218l-144 -218h74v-37h-201z" />
    <glyph glyph-name="Y" unicode="Y" horiz-adv-x="624" 
d="M202 0v39h82v196l-198 289h-75v39h211v-39h-72l168 -249l164 249h-74v39h205v-39h-76l-195 -289v-196h83v-39h-223z" />
    <glyph glyph-name="Z" unicode="Z" horiz-adv-x="588" 
d="M65 0v42l382 482h-323v-140h-44v179h437v-38l-383 -486h348v148h45v-187h-462z" />
    <glyph glyph-name="bracketleft" unicode="[" horiz-adv-x="234" 
d="M81 -76v673h130v-42h-71v-589h71v-42h-130z" />
    <glyph glyph-name="backslash" unicode="\" horiz-adv-x="273" 
d="M243 -140l-225 733h45l226 -733h-46z" />
    <glyph glyph-name="bracketright" unicode="]" horiz-adv-x="233" 
d="M20 -76v42h72v589h-72v42h131v-673h-131z" />
    <glyph glyph-name="asciicircum" unicode="^" horiz-adv-x="449" 
d="M36 353l164 264h53l159 -264h-49l-136 219l-141 -219h-50z" />
    <glyph glyph-name="underscore" unicode="_" horiz-adv-x="395" 
d="M6 -72v32h383v-32h-383z" />
    <glyph glyph-name="grave" unicode="`" horiz-adv-x="309" 
d="M176 480l-76 135h60l49 -135h-33z" />
    <glyph glyph-name="a" unicode="a" horiz-adv-x="450" 
d="M173 -11q-60 0 -97 33.5t-37 83.5q0 45 20.5 71t54.5 37t74 11q36 0 74 -5.5t75 -14.5l-23 -5v60q0 53 -28.5 78t-74.5 25q-31 0 -67.5 -9.5t-68.5 -25.5l-16 37q37 20 78.5 29t72.5 9q56 0 90.5 -18.5t50.5 -49.5t16 -68v-228h62v-39h-107l-7 52h21q-43 -32 -81.5 -47.5
t-81.5 -15.5zM180 27q37 0 74 15t83 47l-23 -26v124l19 -14q-33 9 -69 14t-73 5q-38 0 -69 -18t-31 -66q0 -33 23 -57t66 -24z" />
    <glyph glyph-name="b" unicode="b" horiz-adv-x="516" 
d="M283 -10q-45 0 -84 18t-67 53l21 -12v-49h-125v39h71v495h-68v39h122v-234l-24 -5q34 33 78.5 51t86.5 18q56 0 100 -23.5t69.5 -68.5t25.5 -109q0 -67 -27.5 -114.5t-74 -72.5t-104.5 -25zM275 30q69 0 113.5 43.5t44.5 122.5q0 78 -42 122t-110 44q-37 0 -78 -18.5
t-75 -52.5l25 36v-263l-22 37q28 -32 67 -51.5t77 -19.5z" />
    <glyph glyph-name="c" unicode="c" horiz-adv-x="468" 
d="M237 -10q-61 0 -108 27t-74 74t-27 108q0 60 26 106t72.5 72.5t105.5 26.5q56 0 95 -25.5t50 -63.5h-12v79h47v-129h-42q-8 44 -42 70.5t-85 26.5q-47 0 -83 -21t-56.5 -57.5t-20.5 -84.5q0 -49 20.5 -86.5t56 -59t81.5 -21.5q51 0 85 18.5t64 50.5l22 -33
q-31 -36 -74 -57t-101 -21z" />
    <glyph glyph-name="d" unicode="d" 
d="M233 -11q-57 0 -103 25.5t-73.5 72.5t-27.5 110q0 65 26.5 110.5t71.5 70.5t101 25q45 0 88.5 -17t72.5 -49l-22 2v195h-68v39h122v-534h64v-39h-118v52l22 2q-29 -29 -68.5 -47t-87.5 -18zM243 30q43 0 80.5 18t66.5 46l-23 -31v267l23 -34q-31 32 -72 49t-81 17
q-44 0 -78.5 -20.5t-54 -58.5t-19.5 -91q0 -50 21 -86t56.5 -56t80.5 -20z" />
    <glyph glyph-name="e" unicode="e" horiz-adv-x="467" 
d="M243 -12q-59 0 -108 25.5t-78.5 72.5t-29.5 110q0 67 28.5 113t75 70.5t101.5 24.5q56 0 99.5 -23.5t68 -70t24.5 -112.5v-13h-350l1 34h296q0 48 -19 80.5t-50.5 48.5t-69.5 16q-41 0 -75 -19.5t-54.5 -55.5t-20.5 -87q0 -52 20.5 -90.5t57 -60t81.5 -21.5
q46 0 87.5 19.5t68.5 48.5l19 -35q-32 -34 -76 -54.5t-97 -20.5z" />
    <glyph glyph-name="f" unicode="f" horiz-adv-x="295" 
d="M47 0v39h76v315h-77v39h77v95q0 32 11 55t34.5 35t56.5 12q38 0 65 -18.5t31 -61.5l-42 -13q-4 26 -15.5 40.5t-35.5 14.5q-23 0 -37 -16t-14 -49v-94h114v-39h-114v-315h99v-39h-229z" />
    <glyph glyph-name="g" unicode="g" 
d="M234 -186q-33 0 -70 6.5t-74 16.5l10 43q38 -11 71.5 -17t61.5 -6q69 0 105 33t36 96v73l21 7q-28 -32 -72.5 -50.5t-87.5 -18.5q-58 0 -104 25t-73 70.5t-27 107.5q0 64 26 109t71 69t101 24q44 0 91 -19t73 -50l-19 6v54h121v-39h-67v-363q0 -62 -24.5 -101t-68 -57.5
t-101.5 -18.5zM244 37q39 0 81.5 18.5t70.5 49.5l-22 -34v254l23 -29q-31 29 -76 48t-86 19q-44 0 -77 -20.5t-52 -57.5t-19 -89q0 -49 20.5 -84.5t56 -55t80.5 -19.5z" />
    <glyph glyph-name="h" unicode="h" horiz-adv-x="504" 
d="M11 0v39h73v495h-71v39h125v-234l-18 -3q45 30 87 48.5t86 18.5q55 0 90.5 -33t35.5 -94v-237h74v-39h-202v39h74v233q0 42 -22.5 65.5t-60.5 23.5t-80 -18t-81 -43l17 23v-284h67v-39h-194z" />
    <glyph glyph-name="i" unicode="i" horiz-adv-x="254" 
d="M20 0v39h81v315h-80v39h133v-354h78v-39h-212zM119 486q-18 0 -30 11.5t-12 28.5t12 28t30 11t30 -11t12 -28t-12 -28.5t-30 -11.5z" />
    <glyph glyph-name="j" unicode="j" horiz-adv-x="228" 
d="M7 -139v42h38q39 0 52 19t13 61v372h-78v38h134v-400q0 -39 -9.5 -69t-35 -46.5t-77.5 -16.5h-37zM126 487q-18 0 -30 11.5t-12 28.5q0 16 12.5 27t29.5 11q18 0 30 -11t12 -27q0 -17 -12.5 -28.5t-29.5 -11.5z" />
    <glyph glyph-name="k" unicode="k" horiz-adv-x="489" 
d="M28 0v39h73v495h-70v39h124v-364l189 145h-75v39h199v-39h-65l-190 -149l175 -166h83v-39h-109l-207 198v-159h68v-39h-195z" />
    <glyph glyph-name="l" unicode="l" horiz-adv-x="244" 
d="M27 0v39h73v495h-70v39h124v-534h68v-39h-195z" />
    <glyph glyph-name="m" unicode="m" horiz-adv-x="779" 
d="M20 0v39h81v315h-80v39h133v-48l-20 -5q42 29 86.5 46t82.5 17q60 0 92.5 -36.5t32.5 -92.5v-235h72v-39h-200v39h74v233q0 42 -22.5 65.5t-61.5 23.5q-31 0 -73 -16t-85 -42l22 23v-287h77v-39h-211zM576 0v39h75v233q0 42 -23 65.5t-62 23.5q-35 0 -74.5 -14.5
t-75.5 -40.5l-12 32q44 29 85.5 47t89.5 18q54 0 89.5 -33t35.5 -94v-237h73v-39h-201z" />
    <glyph glyph-name="n" unicode="n" horiz-adv-x="508" 
d="M20 0v39h81v315h-80v39h133v-52l-19 -2q42 28 85 46t87 18q54 0 89.5 -33t35.5 -94v-237h74v-39h-202v39h74v233q0 42 -22.5 65.5t-61.5 23.5q-36 0 -76.5 -16.5t-83.5 -43.5l20 24v-286h77v-39h-211z" />
    <glyph glyph-name="o" unicode="o" horiz-adv-x="478" 
d="M238 -12q-62 0 -109.5 26.5t-74.5 73.5t-27 110q0 62 27 108.5t74.5 72t109.5 25.5q63 0 111 -25.5t75 -72t27 -108.5t-27 -109.5t-75 -74t-111 -26.5zM238 30q47 0 82.5 21.5t55.5 59t20 87.5q0 49 -20 86t-55.5 57.5t-82.5 20.5q-46 0 -81 -20.5t-55 -57.5t-20 -86
q0 -50 20 -87.5t55 -59t81 -21.5z" />
    <glyph glyph-name="p" unicode="p" horiz-adv-x="510" 
d="M24 -155v39h70v470h-66v39h117l1 -48l-23 -12q30 32 74.5 51t89.5 19q56 0 100 -24.5t69 -70t25 -109.5q0 -65 -26.5 -112t-72 -72t-101.5 -25q-30 0 -59.5 8.5t-53 23.5t-37.5 33l17 -4l-1 -167h73v-39h-196zM273 30q67 0 110 44t43 122q0 76 -42.5 120.5t-108.5 44.5
q-23 0 -50.5 -8t-54.5 -23t-47 -38l24 38l1 -262l-22 31q28 -31 68.5 -50t78.5 -19z" />
    <glyph glyph-name="q" unicode="q" horiz-adv-x="523" 
d="M300 -161v41h73v175l23 6q-30 -33 -74 -52.5t-89 -19.5q-57 0 -103 25t-73.5 72t-27.5 111q0 65 26.5 111t72 70.5t100.5 24.5q47 0 92 -18.5t75 -51.5l-22 9l2 51h119v-39h-67v-474h70v-41h-197zM242 30q41 0 82 19t72 50l-23 -32v259l23 -32q-32 31 -75 50t-85 19
q-44 0 -78.5 -20.5t-54 -58.5t-19.5 -92q0 -50 21 -86.5t56.5 -56t80.5 -19.5z" />
    <glyph glyph-name="r" unicode="r" horiz-adv-x="376" 
d="M44 0v39h81v315h-80v39h133v-120l-12 1q9 47 26.5 74.5t40 39.5t46.5 12q20 0 39 -5t38 -15l-13 -47q-17 10 -32.5 15t-34.5 5q-39 0 -68 -35.5t-29 -99.5l-1 -179h76v-39h-210z" />
    <glyph glyph-name="s" unicode="s" horiz-adv-x="438" 
d="M245 -10q-34 0 -65.5 8.5t-53 23.5t-31.5 33l13 -11v-44h-44v128h40l5 -66l-16 43q17 -38 57.5 -57.5t88.5 -19.5q44 0 73 18t29 50q0 38 -24.5 52.5t-78.5 25.5l-60 13q-51 12 -82 34.5t-31 74.5t41.5 79.5t102.5 27.5q26 0 53 -7t50 -21t34 -34l-16 9v44h44v-132h-40
l-9 88l14 -49q-5 18 -24.5 31.5t-45.5 22.5t-53 9q-38 0 -67.5 -16t-29.5 -50q0 -29 22 -43t62 -23l57 -12q42 -10 71.5 -23t45 -35.5t15.5 -61.5q0 -38 -21 -62.5t-55 -36t-71 -11.5z" />
    <glyph glyph-name="t" unicode="t" horiz-adv-x="293" 
d="M207 0q-55 0 -86.5 26t-31.5 86v242h-69v39h69v135l54 20v-155h109v-39h-109v-239q0 -42 16.5 -59t55.5 -17h50v-39h-58z" />
    <glyph glyph-name="u" unicode="u" 
d="M211 -10q-47 0 -75 18.5t-39.5 47.5t-11.5 58v240h-71v39h125v-275q0 -36 20 -60.5t62 -24.5q50 0 89.5 21t77.5 57l-24 -33v276h-72v39h126v-354h73v-39h-124l-3 64l26 5q-41 -37 -85.5 -58t-93.5 -21z" />
    <glyph glyph-name="v" unicode="v" horiz-adv-x="514" 
d="M232 0l-155 354h-70v39h200v-39h-73l128 -301l125 301h-71v39h191v-39h-66l-157 -354h-52z" />
    <glyph glyph-name="w" unicode="w" horiz-adv-x="735" 
d="M198 0l-128 354h-58v39h175v-39h-64l107 -304l108 304h-62v39h184v-39h-63l111 -304l101 304h-61v39h171v-39h-61l-122 -354h-55l-114 309l-113 -309h-56z" />
    <glyph glyph-name="x" unicode="x" horiz-adv-x="514" 
d="M24 0v39h65l141 163l-132 152h-68v39h190v-39h-67l107 -126l105 126h-67v39h193v-39h-75l-129 -151l141 -164h66v-39h-195v39h75l-118 136l-115 -136h68v-39h-185z" />
    <glyph glyph-name="y" unicode="y" horiz-adv-x="521" 
d="M107 -143v45h43q27 0 43 4t27 17.5t21 39.5l25 64h-25l-150 327h-76v39h195v-39h-64l131 -295l120 295h-74v39h192v-39h-64l-161 -388q-15 -39 -30 -62.5t-39 -35t-68 -11.5h-46z" />
    <glyph glyph-name="z" unicode="z" horiz-adv-x="449" 
d="M59 0v40l266 315h-214v-87h-43v125h317v-43l-263 -313h226v99h44v-136h-333z" />
    <glyph glyph-name="braceleft" unicode="{" horiz-adv-x="250" 
d="M194 -38q-37 0 -57.5 11t-30 33.5t-11.5 56t-2 77.5q0 42 -4 67.5t-19 38t-49 12.5v43q34 0 49 13t19 40t4 70q0 41 2 73.5t11 54.5t29.5 33.5t58.5 11.5h33v-39q-36 0 -54.5 -6t-25 -24t-6.5 -57q0 -55 -2 -89.5t-8.5 -55t-19.5 -31t-35 -16.5q20 -6 32.5 -16.5
t19.5 -29.5t10 -51.5t3 -83.5q0 -43 5 -64.5t23.5 -28t57.5 -6.5v-37h-33z" />
    <glyph glyph-name="bar" unicode="|" horiz-adv-x="125" 
d="M40 -140v733h45v-733h-45z" />
    <glyph glyph-name="braceright" unicode="}" horiz-adv-x="251" 
d="M35 -38v37q39 0 57 6.5t23.5 28t5.5 63.5q0 51 2.5 84t9.5 52t20 29.5t33 16.5q-22 6 -35 16.5t-19.5 31t-9 55t-2.5 89.5q0 39 -6 57t-24 24t-55 6v39h33q37 0 57.5 -11.5t29.5 -33.5t11 -54t2 -74t4 -69.5t19.5 -40.5t49.5 -13v-43q-33 0 -48.5 -12.5t-20 -38
t-4.5 -67.5q0 -44 -2 -77.5t-11 -56t-29.5 -33.5t-57.5 -11h-33z" />
    <glyph glyph-name="asciitilde" unicode="~" horiz-adv-x="478" 
d="M328 242q-31 0 -61 15t-58 29.5t-55 14.5q-20 0 -33 -11t-14 -35h-46q2 28 13.5 47t31.5 29.5t45 10.5q35 0 64 -14.5t56 -29.5t55 -15q20 0 32 11.5t14 34.5h45q-1 -28 -12.5 -47.5t-31 -29.5t-45.5 -10z" />
    <glyph glyph-name="DEL" horiz-adv-x="293" 
 />
    <glyph glyph-name="uni00A0" unicode="&#xa0;" horiz-adv-x="289" 
 />
    <glyph glyph-name="exclamdown" unicode="&#xa1;" horiz-adv-x="131" 
d="M55 284h37l10 -252v-184h-57v184zM73 433q18 0 30 -11.5t12 -27.5q0 -17 -12 -28t-30 -11q-17 0 -29 11t-12 28q0 16 12 27.5t29 11.5z" />
    <glyph glyph-name="cent" unicode="&#xa2;" horiz-adv-x="468" 
d="M213 -89v571h45v-571h-45zM237 -10q-61 0 -108 27t-74 74t-27 108q0 60 26 106t72.5 72.5t105.5 26.5q56 0 95 -25.5t50 -63.5h-12v79h47v-129h-42q-8 44 -42 70.5t-85 26.5q-47 0 -83 -21t-56.5 -57.5t-20.5 -84.5q0 -49 20.5 -86.5t56 -59t81.5 -21.5q51 0 85 18.5
t64 50.5l22 -33q-31 -36 -74 -57t-101 -21z" />
    <glyph glyph-name="sterling" unicode="&#xa3;" horiz-adv-x="512" 
d="M133 -10q-45 0 -72.5 25t-27.5 62t26 64.5t72 27.5q32 0 56.5 -12.5t45.5 -31t40.5 -37.5t41 -31.5t47.5 -12.5q42 0 59 26t19 69h40v-6q-1 -63 -29 -100.5t-83 -37.5q-34 0 -60 14t-47 34.5t-40 40.5t-40 34t-48 14q-28 0 -44 -15t-16 -40t16.5 -39.5t42.5 -14.5
q29 0 49.5 16t31 42.5t10.5 58.5t-12 59t-29.5 51.5t-35 49.5t-29.5 53.5t-12 62.5q0 49 22.5 84t62.5 54.5t91 19.5q82 0 124 -40.5t44 -109.5h-50q-2 48 -29 78t-88 30q-57 0 -90 -32t-33 -86q0 -31 10.5 -58.5t26.5 -53t32 -50.5t27 -52t11 -58q0 -40 -16.5 -75t-46 -56
t-70.5 -21zM63 275v38h340v-38h-340z" />
    <glyph glyph-name="currency" unicode="&#xa4;" horiz-adv-x="575" 
d="M288 55q-69 0 -123.5 31t-86 85.5t-31.5 122.5t31.5 122t86 85t123.5 31t123.5 -31t85.5 -85t31 -122t-31 -122.5t-85.5 -85.5t-123.5 -31zM69 41l-33 34l81 76l30 -29zM506 41l-78 81l30 29l82 -76zM288 104q54 0 96 24.5t66.5 67.5t24.5 98t-24.5 97.5t-66.5 67
t-96 24.5t-96 -24.5t-66.5 -67t-24.5 -97.5t24.5 -98t66.5 -67.5t96 -24.5zM116 438l-80 74l33 34l77 -80zM460 438l-31 28l77 80l34 -34z" />
    <glyph glyph-name="yen" unicode="&#xa5;" horiz-adv-x="624" 
d="M150 223v34h325v-34h-325zM150 135v35h325v-35h-325zM202 0v39h82v196l-197 289h-76v39h212v-39h-73l168 -249l164 249h-74v39h205v-39h-76l-195 -289v-196h83v-39h-223z" />
    <glyph glyph-name="brokenbar" unicode="&#xa6;" horiz-adv-x="125" 
d="M40 293v300h45v-300h-45zM40 -140v300h45v-300h-45z" />
    <glyph glyph-name="section" unicode="&#xa7;" horiz-adv-x="452" 
d="M236 -75q-51 0 -82.5 11t-46 31t-14.5 45q0 21 11.5 29.5t27.5 8.5q1 -51 29 -74.5t79 -23.5q52 0 76.5 24t24.5 64q0 26 -9.5 43t-38.5 36t-88 48q-47 24 -74.5 43.5t-39.5 42t-12 52.5q0 32 19.5 54.5t47.5 31.5q-22 17 -35.5 40.5t-13.5 58.5q0 53 38 84.5t103 31.5
q47 0 76 -13t42 -34t13 -44q0 -16 -10 -25.5t-30 -9.5q-1 27 -10 49.5t-28.5 36t-53.5 13.5q-46 0 -70 -22.5t-24 -61.5q0 -30 11.5 -47.5t36.5 -32t63 -34.5q52 -28 85 -50t49.5 -45t16.5 -53q0 -32 -14 -59t-38 -43q13 -14 20.5 -33.5t7.5 -46.5q0 -57 -35.5 -91.5
t-109.5 -34.5zM332 150q16 13 22 30.5t6 38.5q0 20 -10.5 37t-36.5 35.5t-72 42.5q-5 4 -16 9.5t-23.5 11.5t-22.5 12t-14 8q-20 -8 -31.5 -24.5t-11.5 -36.5q0 -25 11 -41.5t35.5 -31.5t67.5 -37q29 -15 53.5 -28.5t42.5 -25.5z" />
    <glyph glyph-name="dieresis" unicode="&#xa8;" horiz-adv-x="447" 
d="M135 469q-16 0 -25.5 9.5t-9.5 24.5t9.5 24t25.5 9t25 -9t9 -25q0 -14 -9 -23.5t-25 -9.5zM311 469q-15 0 -24.5 9t-9.5 24q0 16 9.5 25t24.5 9q16 0 25.5 -9t9.5 -25q0 -15 -9.5 -24t-25.5 -9z" />
    <glyph glyph-name="copyright" unicode="&#xa9;" horiz-adv-x="744" 
d="M372 -18q-67 0 -124.5 22.5t-99.5 64t-66 97.5t-24 121q0 66 24 122t66 97t99.5 63.5t124.5 22.5t124 -22.5t99.5 -63.5t66.5 -97t24 -122q0 -65 -24 -121t-66.5 -97.5t-99.5 -64t-124 -22.5zM372 18q76 0 136.5 35t96 96t35.5 138q0 78 -35.5 138.5t-96 96t-136.5 35.5
t-137 -35.5t-96 -96t-35 -138.5q0 -77 35 -138t96 -96t137 -35zM375 101q-51 0 -93 23.5t-66.5 66t-24.5 97.5q0 47 16 81.5t42.5 57.5t59 34.5t66.5 11.5q37 0 67.5 -12.5t46.5 -38.5v42h36v-111h-35q-6 41 -35 63.5t-76 22.5q-34 0 -67.5 -16t-55 -49.5t-21.5 -85.5
q0 -45 19.5 -80t51.5 -54t71 -19t72 16t59 45l20 -25q-26 -33 -67 -51.5t-86 -18.5z" />
    <glyph glyph-name="ordfeminine" unicode="&#xaa;" horiz-adv-x="348" 
d="M125 257q-52 0 -78.5 27.5t-26.5 62.5t17.5 55t46 28.5t62.5 8.5q21 0 43 -2.5t42 -5.5v35q0 71 -78 71q-24 0 -52.5 -6.5t-52.5 -23.5l-16 31q26 19 58.5 27t63.5 8q44 0 71 -14.5t39.5 -38t12.5 -49.5v-174h51v-34h-94l-2 30q-19 -16 -47.5 -26t-59.5 -10zM130 291
q27 0 54 9t47 26v75q-17 3 -37.5 5.5t-42.5 2.5q-35 0 -60.5 -12t-25.5 -49q0 -24 16.5 -40.5t48.5 -16.5z" />
    <glyph glyph-name="guillemotleft" unicode="&#xab;" horiz-adv-x="408" 
d="M321 116l-140 191l140 189h38l-103 -189l103 -191h-38zM162 116l-139 191l139 189h39l-103 -189l103 -191h-39z" />
    <glyph glyph-name="logicalnot" unicode="&#xac;" horiz-adv-x="483" 
d="M382 143v117h-321v41h360l1 -158h-40z" />
    <glyph glyph-name="uni00AD" unicode="&#xad;" horiz-adv-x="385" 
d="M70 221v41h245v-41h-245z" />
    <glyph glyph-name="registered" unicode="&#xae;" horiz-adv-x="744" 
d="M364 -11q-74 0 -130 24.5t-94.5 66t-58 95t-19.5 111.5t20 111.5t58 96t94.5 66.5t129.5 24t129.5 -24.5t95 -66.5t58.5 -95.5t20 -111.5t-20 -111.5t-58 -95.5t-95 -66t-130 -24zM364 25q62 0 110 21.5t80.5 58.5t49.5 83.5t17 96.5q0 51 -17 97.5t-49.5 84t-80.5 59.5
t-110 22q-63 0 -111 -22t-81 -59.5t-49.5 -84t-16.5 -97.5t16.5 -97.5t49 -83t81 -58t111.5 -21.5zM220 125v25h45v291h-47v24h171q49 0 77.5 -24t28.5 -67q0 -35 -23.5 -58t-66.5 -27l78 -139h48v-25h-71l-89 161h-71v-136h45v-25h-125zM300 311h88q34 0 53 17t19 46
q0 31 -19 49t-51 18h-90v-130z" />
    <glyph glyph-name="macron" unicode="&#xaf;" horiz-adv-x="398" 
d="M100 477v34h198v-34h-198z" />
    <glyph glyph-name="degree" unicode="&#xb0;" horiz-adv-x="224" 
d="M112 385q-49 0 -79.5 32.5t-30.5 76.5q0 45 30.5 77.5t79.5 32.5t79.5 -32.5t30.5 -77.5q0 -44 -30.5 -76.5t-79.5 -32.5zM112 415q34 0 54.5 23.5t20.5 56.5q0 32 -20.5 55.5t-54.5 23.5t-54.5 -23.5t-20.5 -56.5q0 -32 20.5 -55.5t54.5 -23.5z" />
    <glyph glyph-name="plusminus" unicode="&#xb1;" horiz-adv-x="525" 
d="M240 139v179h-179v40h179v173h46v-173h178v-40h-178v-179h-46zM61 51v40h403v-40h-403z" />
    <glyph glyph-name="uni00B2" unicode="&#xb2;" horiz-adv-x="282" 
d="M20 298v29l108 100q42 38 64 65.5t21 61.5q-1 33 -20.5 52t-56.5 19q-40 0 -61 -25t-21 -65q0 -9 1 -18.5t4 -19.5h-37q-3 11 -4.5 21.5t-1.5 21.5q0 34 13.5 61t40.5 42.5t66 15.5q52 0 85 -27.5t33 -77.5q0 -43 -28.5 -77.5t-71.5 -73.5l-109 -97l-8 25h188v66h35v-99
h-240z" />
    <glyph glyph-name="uni00B3" unicode="&#xb3;" horiz-adv-x="294" 
d="M149 285q-47 0 -82 21t-48 56l32 19q13 -30 38.5 -45.5t60.5 -15.5q38 0 60 18t22 51q0 34 -26 53t-84 19v33q53 0 76.5 18t23.5 48q0 29 -19.5 47t-54.5 18q-32 0 -56 -16t-37 -41l-32 17q15 34 49 54t77 20q51 0 82.5 -25.5t31.5 -68.5q0 -44 -33.5 -69t-89.5 -25v15
q65 0 99.5 -27.5t34.5 -74.5q0 -46 -35 -72.5t-90 -26.5z" />
    <glyph glyph-name="acute" unicode="&#xb4;" horiz-adv-x="309" 
d="M100 480l49 135h60l-76 -135h-33z" />
    <glyph glyph-name="uni00B5" unicode="&#xb5;" horiz-adv-x="522" 
d="M101 -131v485h-74v39h128v-275q0 -36 20 -60.5t64 -24.5q42 0 75.5 15.5t65.5 40.5v265h-72v39h125v-354h73v-39h-123l-2 48q-34 -26 -71.5 -42t-78.5 -16q-27 0 -45.5 7.5t-30.5 18.5v-147h-54z" />
    <glyph glyph-name="paragraph" unicode="&#xb6;" horiz-adv-x="507" 
d="M242 -5v40h97v248h-121q-53 0 -88.5 21t-53.5 53.5t-18 67.5q0 34 17 65.5t54 52t94 20.5h244v-38h-75v-490h70v-40h-220zM247 326h92v199h-92v-199z" />
    <glyph glyph-name="periodcentered" unicode="&#xb7;" horiz-adv-x="214" 
d="M107 230q-18 0 -30.5 11.5t-12.5 28.5q0 18 12.5 29.5t30.5 11.5t30 -11.5t12 -29.5q0 -17 -12 -28.5t-30 -11.5z" />
    <glyph glyph-name="cedilla" unicode="&#xb8;" horiz-adv-x="336" 
d="M171 -162q-36 0 -71 17v22q14 -4 27 -6t23 -2q17 0 27.5 5.5t10.5 18.5t-13 20.5t-46 8.5l31 78h25l-17 -57q35 -2 51.5 -17t16.5 -36q0 -28 -19.5 -40t-45.5 -12z" />
    <glyph glyph-name="uni00B9" unicode="&#xb9;" horiz-adv-x="200" 
d="M20 298v31h59v279l-56 -9l-2 31l100 17v-318h59v-31h-160z" />
    <glyph glyph-name="ordmasculine" unicode="&#xba;" horiz-adv-x="381" 
d="M190 257q-44 0 -80.5 19t-58 54.5t-21.5 85.5t21.5 85t58 53.5t80.5 18.5q45 0 81.5 -18.5t58 -53.5t21.5 -85t-22 -85.5t-58 -54.5t-81 -19zM190 295q30 0 55.5 13.5t41 40.5t15.5 67t-15.5 66.5t-41 39.5t-55.5 13t-55 -13t-40.5 -40t-15.5 -67q0 -39 15.5 -66
t40.5 -40.5t55 -13.5z" />
    <glyph glyph-name="guillemotright" unicode="&#xbb;" horiz-adv-x="408" 
d="M206 116l103 191l-103 189h39l140 -189l-140 -191h-39zM48 116l103 191l-103 189h39l140 -189l-140 -191h-39z" />
    <glyph glyph-name="onequarter" unicode="&#xbc;" horiz-adv-x="634" 
d="M40 220v31h59v279l-56 -9l-2 31l100 17v-318h59v-31h-160zM105 -1l377 566h41l-376 -566h-42zM444 0v31h53v61h-169l-5 28l171 229h41v-227h59v-30h-59v-61h53v-31h-144zM365 122h132v176z" />
    <glyph glyph-name="onehalf" unicode="&#xbd;" horiz-adv-x="683" 
d="M40 219v31h59v279l-56 -9l-2 31l100 17v-318h59v-31h-160zM105 -1l377 566h41l-376 -566h-42zM403 0v29l108 100q42 38 64 65.5t21 61.5q-1 33 -20.5 52t-56.5 19q-40 0 -61 -25t-21 -65q0 -9 1 -18.5t4 -19.5h-37q-3 11 -4.5 21.5t-1.5 21.5q0 34 13.5 61t40.5 42.5
t66 15.5q52 0 85 -27.5t33 -77.5q0 -43 -28.5 -77.5t-71.5 -73.5l-109 -97l-8 25h188v66h35v-99h-240z" />
    <glyph glyph-name="threequarters" unicode="&#xbe;" horiz-adv-x="710" 
d="M170 205q-47 0 -82 21t-48 56l32 19q13 -30 38.5 -45.5t60.5 -15.5q38 0 60 18t22 51q0 34 -26 53t-84 19v33q53 0 76.5 18t23.5 48q0 29 -19.5 47t-54.5 18q-32 0 -56 -16t-37 -41l-32 17q15 34 49 54t77 20q51 0 82.5 -25.5t31.5 -68.5q0 -44 -33.5 -69t-89.5 -25v15
q65 0 99.5 -27.5t34.5 -74.5q0 -46 -35 -72.5t-90 -26.5zM183 -1l377 566h41l-376 -566h-42zM520 0v31h53v61h-169l-5 28l171 229h41v-227h59v-30h-59v-61h53v-31h-144zM441 122h132v176z" />
    <glyph glyph-name="questiondown" unicode="&#xbf;" horiz-adv-x="353" 
d="M223 280v-8q0 -39 -11 -67t-29.5 -51.5t-44.5 -49.5q-30 -32 -46 -61.5t-16 -68.5q0 -44 26 -69t71 -25q47 0 75 25.5t30 71.5h59q-2 -45 -24.5 -76t-59 -47t-80.5 -16q-74 0 -116.5 38t-42.5 97q0 46 23.5 79.5t61.5 72.5q24 24 39 44t22.5 44t7.5 59v8h55zM196 430
q18 0 30 -11.5t12 -28.5t-12 -28.5t-30 -11.5q-19 0 -31 11.5t-12 28.5t12 28.5t31 11.5z" />
    <glyph glyph-name="Agrave" unicode="&#xc0;" horiz-adv-x="675" 
d="M34 0v39h74l176 485h-66v39h241v-39h-69l179 -485h71v-39h-207v39h74l-66 186h-212l-66 -186h74v-39h-203zM241 264h188l-92 258h-4zM320 650l-76 135h60l49 -135h-33z" />
    <glyph glyph-name="Aacute" unicode="&#xc1;" horiz-adv-x="675" 
d="M34 0v39h74l176 485h-66v39h241v-39h-69l179 -485h71v-39h-207v39h74l-66 186h-212l-66 -186h74v-39h-203zM241 264h188l-92 258h-4zM323 650l49 135h60l-76 -135h-33z" />
    <glyph glyph-name="Acircumflex" unicode="&#xc2;" horiz-adv-x="675" 
d="M34 0v39h74l176 485h-66v39h241v-39h-69l179 -485h71v-39h-207v39h74l-66 186h-212l-66 -186h74v-39h-203zM241 264h188l-92 258h-4zM228 621l84 154h53l83 -154h-41l-69 127l-69 -127h-41z" />
    <glyph glyph-name="Atilde" unicode="&#xc3;" horiz-adv-x="675" 
d="M34 0v39h74l176 485h-66v39h241v-39h-69l179 -485h71v-39h-207v39h74l-66 186h-212l-66 -186h74v-39h-203zM241 264h188l-92 258h-4zM397 646q-21 0 -42.5 10t-41.5 19.5t-37 9.5q-26 0 -30 -37h-26q2 38 18.5 57.5t43.5 19.5q19 0 39.5 -9.5t41 -19.5t36.5 -10
q13 0 21.5 8.5t10.5 28.5h25q-1 -34 -14.5 -55.5t-44.5 -21.5z" />
    <glyph glyph-name="Adieresis" unicode="&#xc4;" horiz-adv-x="675" 
d="M34 0v39h74l176 485h-66v39h241v-39h-69l179 -485h71v-39h-207v39h74l-66 186h-212l-66 -186h74v-39h-203zM241 264h188l-92 258h-4zM250 639q-16 0 -25.5 9.5t-9.5 24.5t9.5 24t25.5 9t25 -9t9 -25q0 -14 -9 -23.5t-25 -9.5zM426 639q-15 0 -24.5 9t-9.5 24q0 16 9.5 25
t24.5 9q16 0 25.5 -9t9.5 -25q0 -15 -9.5 -24t-25.5 -9z" />
    <glyph glyph-name="Aring" unicode="&#xc5;" horiz-adv-x="675" 
d="M34 0v39h74l176 485h-66v39h241v-39h-69l179 -485h71v-39h-207v39h74l-66 186h-212l-66 -186h74v-39h-203zM241 264h188l-92 258h-4zM338 614q-33 0 -52 19t-18 48q0 28 18.5 46.5t51.5 18.5q34 0 52 -18.5t18 -46.5q0 -29 -18.5 -48t-51.5 -19zM338 637q20 0 31.5 12.5
t11.5 31.5q0 18 -11.5 29.5t-31.5 11.5t-31.5 -11.5t-11.5 -29.5q0 -19 11.5 -31.5t31.5 -12.5z" />
    <glyph glyph-name="AE" unicode="&#xc6;" horiz-adv-x="974" 
d="M26 0v39h81l287 485h-65v39h526l17 -184h-45l-16 145h-298l23 -221h193l-8 74h32l22 -195h-33l-10 80h-194l22 -223h315l-15 145h46l18 -184h-500v39h77l-17 169h-218l-96 -169h70v-39h-214zM285 245h197l-28 279h-7z" />
    <glyph glyph-name="Ccedilla" unicode="&#xc7;" horiz-adv-x="674" 
d="M346 -11q-60 0 -112.5 19.5t-93.5 57.5t-64 92.5t-23 124.5q0 82 36.5 148t102.5 104t155 38q60 0 104.5 -17.5t74.5 -49t47 -73.5l-18 2v128h45v-164l-39 -4q-34 69 -84 101.5t-128 32.5q-74 0 -127.5 -33.5t-81.5 -89.5t-28 -123q0 -60 19 -106.5t52.5 -78.5t76 -48.5
t89.5 -16.5q43 0 84.5 12.5t76 40.5t55.5 76l42 -22q-26 -56 -66 -89t-89.5 -47t-105.5 -15zM342 -162q-36 0 -71 17v22q14 -4 27 -6t23 -2q17 0 27.5 5.5t10.5 18.5t-13 20.5t-46 8.5l31 78h25l-17 -57q35 -2 51.5 -17t16.5 -36q0 -28 -19.5 -40t-45.5 -12z" />
    <glyph glyph-name="Egrave" unicode="&#xc8;" horiz-adv-x="589" 
d="M48 0v39h81v485h-81v39h477v-164h-47v125h-290v-214h189v73h33v-190h-33v76h-189v-230h298v128h47v-167h-485zM300 650l-76 135h60l49 -135h-33z" />
    <glyph glyph-name="Eacute" unicode="&#xc9;" horiz-adv-x="589" 
d="M48 0v39h81v485h-81v39h477v-164h-47v125h-290v-214h189v73h33v-190h-33v76h-189v-230h298v128h47v-167h-485zM303 650l49 135h60l-76 -135h-33z" />
    <glyph glyph-name="Ecircumflex" unicode="&#xca;" horiz-adv-x="589" 
d="M48 0v39h81v485h-81v39h477v-164h-47v125h-290v-214h189v73h33v-190h-33v76h-189v-230h298v128h47v-167h-485zM208 621l84 154h53l83 -154h-41l-69 127l-69 -127h-41z" />
    <glyph glyph-name="Edieresis" unicode="&#xcb;" horiz-adv-x="589" 
d="M48 0v39h81v485h-81v39h477v-164h-47v125h-290v-214h189v73h33v-190h-33v76h-189v-230h298v128h47v-167h-485zM230 639q-16 0 -25.5 9.5t-9.5 24.5t9.5 24t25.5 9t25 -9t9 -25q0 -14 -9 -23.5t-25 -9.5zM406 639q-15 0 -24.5 9t-9.5 24q0 16 9.5 25t24.5 9q16 0 25.5 -9
t9.5 -25q0 -15 -9.5 -24t-25.5 -9z" />
    <glyph glyph-name="Igrave" unicode="&#xcc;" horiz-adv-x="327" 
d="M52 0v39h81v485h-81v39h222v-39h-82v-485h82v-39h-222zM146 650l-76 135h60l49 -135h-33z" />
    <glyph glyph-name="Iacute" unicode="&#xcd;" horiz-adv-x="327" 
d="M52 0v39h81v485h-81v39h222v-39h-82v-485h82v-39h-222zM149 650l49 135h60l-76 -135h-33z" />
    <glyph glyph-name="Icircumflex" unicode="&#xce;" horiz-adv-x="327" 
d="M52 0v39h81v485h-81v39h222v-39h-82v-485h82v-39h-222zM54 621l84 154h53l83 -154h-41l-69 127l-69 -127h-41z" />
    <glyph glyph-name="Idieresis" unicode="&#xcf;" horiz-adv-x="327" 
d="M52 0v39h81v485h-81v39h222v-39h-82v-485h82v-39h-222zM76 639q-16 0 -25.5 9.5t-9.5 24.5t9.5 24t25.5 9t25 -9t9 -25q0 -14 -9 -23.5t-25 -9.5zM252 639q-15 0 -24.5 9t-9.5 24q0 16 9.5 25t24.5 9q16 0 25.5 -9t9.5 -25q0 -15 -9.5 -24t-25.5 -9z" />
    <glyph glyph-name="Eth" unicode="&#xd0;" horiz-adv-x="690" 
d="M49 0v39h81v485h-81v39h319q69 0 119 -24.5t83.5 -65.5t49.5 -90.5t16 -98.5q0 -56 -16.5 -107t-50 -90.5t-83.5 -63t-116 -23.5h-321zM189 39h174q55 0 95.5 20t66.5 54.5t38.5 78t12.5 90.5q0 45 -13 87.5t-39 77.5t-65.5 56t-92.5 21h-177v-485zM49 267v41h245v-41
h-245z" />
    <glyph glyph-name="Ntilde" unicode="&#xd1;" horiz-adv-x="704" 
d="M51 0v39h77v485h-77v39h141l363 -484v445h-78v39h196v-39h-71v-524h-59l-368 496v-457h76v-39h-200zM410 646q-21 0 -42.5 10t-41.5 19.5t-37 9.5q-26 0 -30 -37h-26q2 38 18.5 57.5t43.5 19.5q19 0 39.5 -9.5t41 -19.5t36.5 -10q13 0 21.5 8.5t10.5 28.5h25
q-1 -34 -14.5 -55.5t-44.5 -21.5z" />
    <glyph glyph-name="Ograve" unicode="&#xd2;" horiz-adv-x="709" 
d="M354 -11q-72 0 -128 24t-94 65.5t-58 93.5t-20 108t20 108.5t58.5 94t94.5 66t127 24.5q72 0 128 -24.5t94.5 -66t58.5 -94t20 -108.5q0 -57 -19.5 -109t-58 -93t-94.5 -65t-129 -24zM354 33q59 0 103.5 20t75 55.5t45.5 79.5t15 92t-15 92.5t-45.5 80t-75 56.5
t-103.5 21t-103 -21t-74 -57t-45 -80.5t-15 -92.5t14.5 -92.5t44.5 -79.5t74.5 -54.5t103.5 -19.5zM335 650l-76 135h60l49 -135h-33z" />
    <glyph glyph-name="Oacute" unicode="&#xd3;" horiz-adv-x="709" 
d="M354 -11q-72 0 -128 24t-94 65.5t-58 93.5t-20 108t20 108.5t58.5 94t94.5 66t127 24.5q72 0 128 -24.5t94.5 -66t58.5 -94t20 -108.5q0 -57 -19.5 -109t-58 -93t-94.5 -65t-129 -24zM354 33q59 0 103.5 20t75 55.5t45.5 79.5t15 92t-15 92.5t-45.5 80t-75 56.5
t-103.5 21t-103 -21t-74 -57t-45 -80.5t-15 -92.5t14.5 -92.5t44.5 -79.5t74.5 -54.5t103.5 -19.5zM338 650l49 135h60l-76 -135h-33z" />
    <glyph glyph-name="Ocircumflex" unicode="&#xd4;" horiz-adv-x="709" 
d="M354 -11q-72 0 -128 24t-94 65.5t-58 93.5t-20 108t20 108.5t58.5 94t94.5 66t127 24.5q72 0 128 -24.5t94.5 -66t58.5 -94t20 -108.5q0 -57 -19.5 -109t-58 -93t-94.5 -65t-129 -24zM354 33q59 0 103.5 20t75 55.5t45.5 79.5t15 92t-15 92.5t-45.5 80t-75 56.5
t-103.5 21t-103 -21t-74 -57t-45 -80.5t-15 -92.5t14.5 -92.5t44.5 -79.5t74.5 -54.5t103.5 -19.5zM243 621l84 154h53l83 -154h-41l-69 127l-69 -127h-41z" />
    <glyph glyph-name="Otilde" unicode="&#xd5;" horiz-adv-x="709" 
d="M354 -11q-72 0 -128 24t-94 65.5t-58 93.5t-20 108t20 108.5t58.5 94t94.5 66t127 24.5q72 0 128 -24.5t94.5 -66t58.5 -94t20 -108.5q0 -57 -19.5 -109t-58 -93t-94.5 -65t-129 -24zM354 33q59 0 103.5 20t75 55.5t45.5 79.5t15 92t-15 92.5t-45.5 80t-75 56.5
t-103.5 21t-103 -21t-74 -57t-45 -80.5t-15 -92.5t14.5 -92.5t44.5 -79.5t74.5 -54.5t103.5 -19.5zM412 646q-21 0 -42.5 10t-41.5 19.5t-37 9.5q-26 0 -30 -37h-26q2 38 18.5 57.5t43.5 19.5q19 0 39.5 -9.5t41 -19.5t36.5 -10q13 0 21.5 8.5t10.5 28.5h25
q-1 -34 -14.5 -55.5t-44.5 -21.5z" />
    <glyph glyph-name="Odieresis" unicode="&#xd6;" horiz-adv-x="709" 
d="M354 -11q-72 0 -128 24t-94 65.5t-58 93.5t-20 108t20 108.5t58.5 94t94.5 66t127 24.5q72 0 128 -24.5t94.5 -66t58.5 -94t20 -108.5q0 -57 -19.5 -109t-58 -93t-94.5 -65t-129 -24zM354 33q59 0 103.5 20t75 55.5t45.5 79.5t15 92t-15 92.5t-45.5 80t-75 56.5
t-103.5 21t-103 -21t-74 -57t-45 -80.5t-15 -92.5t14.5 -92.5t44.5 -79.5t74.5 -54.5t103.5 -19.5zM265 639q-16 0 -25.5 9.5t-9.5 24.5t9.5 24t25.5 9t25 -9t9 -25q0 -14 -9 -23.5t-25 -9.5zM441 639q-15 0 -24.5 9t-9.5 24q0 16 9.5 25t24.5 9q16 0 25.5 -9t9.5 -25
q0 -15 -9.5 -24t-25.5 -9z" />
    <glyph glyph-name="multiply" unicode="&#xd7;" horiz-adv-x="456" 
d="M55 77l-31 30l173 173l-169 170l30 30l170 -169l173 173l31 -31l-174 -173l170 -169l-31 -30l-169 169z" />
    <glyph glyph-name="Oslash" unicode="&#xd8;" horiz-adv-x="655" 
d="M109 -36l-29 20l475 610l28 -19zM327 -13q-72 0 -128 24t-94 65t-58 93t-20 108q0 57 20 109.5t58.5 93.5t94.5 66t127 25q72 0 128 -25t94.5 -66t58.5 -93.5t20 -109.5q0 -56 -20 -108t-58 -93.5t-94 -65t-129 -23.5zM327 31q59 0 103.5 20t75 55t45.5 79t15 92t-15 93
t-45.5 80.5t-75 56.5t-103.5 21t-103 -21t-74 -57t-45 -80.5t-15 -92.5q0 -49 14.5 -93t44.5 -79t74.5 -54.5t103.5 -19.5z" />
    <glyph glyph-name="Ugrave" unicode="&#xd9;" horiz-adv-x="696" 
d="M347 -10q-79 0 -132 26t-80 72.5t-27 106.5v329h-74v39h208v-39h-75v-335q0 -47 22 -82t63 -54t96 -19q60 0 103.5 18.5t67.5 53.5t24 83v335h-74v39h201v-39h-76v-334q0 -64 -31.5 -109t-87 -68t-128.5 -23zM336 650l-76 135h60l49 -135h-33z" />
    <glyph glyph-name="Uacute" unicode="&#xda;" horiz-adv-x="696" 
d="M347 -10q-79 0 -132 26t-80 72.5t-27 106.5v329h-74v39h208v-39h-75v-335q0 -47 22 -82t63 -54t96 -19q60 0 103.5 18.5t67.5 53.5t24 83v335h-74v39h201v-39h-76v-334q0 -64 -31.5 -109t-87 -68t-128.5 -23zM339 650l49 135h60l-76 -135h-33z" />
    <glyph glyph-name="Ucircumflex" unicode="&#xdb;" horiz-adv-x="696" 
d="M347 -10q-79 0 -132 26t-80 72.5t-27 106.5v329h-74v39h208v-39h-75v-335q0 -47 22 -82t63 -54t96 -19q60 0 103.5 18.5t67.5 53.5t24 83v335h-74v39h201v-39h-76v-334q0 -64 -31.5 -109t-87 -68t-128.5 -23zM244 621l84 154h53l83 -154h-41l-69 127l-69 -127h-41z" />
    <glyph glyph-name="Udieresis" unicode="&#xdc;" horiz-adv-x="696" 
d="M347 -10q-79 0 -132 26t-80 72.5t-27 106.5v329h-74v39h208v-39h-75v-335q0 -47 22 -82t63 -54t96 -19q60 0 103.5 18.5t67.5 53.5t24 83v335h-74v39h201v-39h-76v-334q0 -64 -31.5 -109t-87 -68t-128.5 -23zM266 639q-16 0 -25.5 9.5t-9.5 24.5t9.5 24t25.5 9t25 -9
t9 -25q0 -14 -9 -23.5t-25 -9.5zM442 639q-15 0 -24.5 9t-9.5 24q0 16 9.5 25t24.5 9q16 0 25.5 -9t9.5 -25q0 -15 -9.5 -24t-25.5 -9z" />
    <glyph glyph-name="Yacute" unicode="&#xdd;" horiz-adv-x="624" 
d="M202 0v39h82v196l-198 289h-75v39h211v-39h-72l168 -249l164 249h-74v39h205v-39h-76l-195 -289v-196h83v-39h-223zM302 650l49 135h60l-76 -135h-33z" />
    <glyph glyph-name="Thorn" unicode="&#xde;" horiz-adv-x="567" 
d="M52 0v39h81v485h-81v39h222v-39h-82v-87l-14 9h163q85 0 131 -37t46 -103q0 -69 -45.5 -106t-128.5 -37h-112v36h112q55 0 86 27.5t31 79.5q0 48 -32 75t-88 27h-163l14 10v-379h82v-39h-222z" />
    <glyph glyph-name="germandbls" unicode="&#xdf;" horiz-adv-x="526" 
d="M23 0v41h74v351q0 91 48.5 141t133.5 50q75 0 118.5 -37t43.5 -98q0 -54 -32.5 -89.5t-90.5 -40.5l-1 10q56 -2 96.5 -21t62.5 -53.5t22 -84.5q0 -89 -60.5 -129t-164.5 -40v41q50 0 88 12t59 40.5t21 76.5q0 68 -44.5 98.5t-121.5 30.5h-9v40h9q56 1 84 29.5t28 75.5
q0 44 -27 70.5t-79 26.5q-63 0 -94.5 -39t-31.5 -106v-355h59v-41h-191z" />
    <glyph glyph-name="agrave" unicode="&#xe0;" horiz-adv-x="450" 
d="M173 -11q-60 0 -97 33.5t-37 83.5q0 45 20.5 71t54.5 37t74 11q36 0 74 -5.5t75 -14.5l-23 -5v60q0 53 -28.5 78t-74.5 25q-31 0 -67.5 -9.5t-68.5 -25.5l-16 37q37 20 78.5 29t72.5 9q56 0 90.5 -18.5t50.5 -49.5t16 -68v-228h62v-39h-107l-7 52h21q-43 -32 -81.5 -47.5
t-81.5 -15.5zM180 27q37 0 74 15t83 47l-23 -26v124l19 -14q-33 9 -69 14t-73 5q-38 0 -69 -18t-31 -66q0 -33 23 -57t66 -24zM199 480l-76 135h60l49 -135h-33z" />
    <glyph glyph-name="aacute" unicode="&#xe1;" horiz-adv-x="450" 
d="M173 -11q-60 0 -97 33.5t-37 83.5q0 45 20.5 71t54.5 37t74 11q36 0 74 -5.5t75 -14.5l-23 -5v60q0 53 -28.5 78t-74.5 25q-31 0 -67.5 -9.5t-68.5 -25.5l-16 37q37 20 78.5 29t72.5 9q56 0 90.5 -18.5t50.5 -49.5t16 -68v-228h62v-39h-107l-7 52h21q-43 -32 -81.5 -47.5
t-81.5 -15.5zM180 27q37 0 74 15t83 47l-23 -26v124l19 -14q-33 9 -69 14t-73 5q-38 0 -69 -18t-31 -66q0 -33 23 -57t66 -24zM202 480l49 135h60l-76 -135h-33z" />
    <glyph glyph-name="acircumflex" unicode="&#xe2;" horiz-adv-x="450" 
d="M173 -11q-60 0 -97 33.5t-37 83.5q0 45 20.5 71t54.5 37t74 11q36 0 74 -5.5t75 -14.5l-23 -5v60q0 53 -28.5 78t-74.5 25q-31 0 -67.5 -9.5t-68.5 -25.5l-16 37q37 20 78.5 29t72.5 9q56 0 90.5 -18.5t50.5 -49.5t16 -68v-228h62v-39h-107l-7 52h21q-43 -32 -81.5 -47.5
t-81.5 -15.5zM180 27q37 0 74 15t83 47l-23 -26v124l19 -14q-33 9 -69 14t-73 5q-38 0 -69 -18t-31 -66q0 -33 23 -57t66 -24zM107 451l84 154h53l83 -154h-41l-69 127l-69 -127h-41z" />
    <glyph glyph-name="atilde" unicode="&#xe3;" horiz-adv-x="450" 
d="M173 -11q-60 0 -97 33.5t-37 83.5q0 45 20.5 71t54.5 37t74 11q36 0 74 -5.5t75 -14.5l-23 -5v60q0 53 -28.5 78t-74.5 25q-31 0 -67.5 -9.5t-68.5 -25.5l-16 37q37 20 78.5 29t72.5 9q56 0 90.5 -18.5t50.5 -49.5t16 -68v-228h62v-39h-107l-7 52h21q-43 -32 -81.5 -47.5
t-81.5 -15.5zM180 27q37 0 74 15t83 47l-23 -26v124l19 -14q-33 9 -69 14t-73 5q-38 0 -69 -18t-31 -66q0 -33 23 -57t66 -24zM276 476q-21 0 -42.5 10t-41.5 19.5t-37 9.5q-26 0 -30 -37h-26q2 38 18.5 57.5t43.5 19.5q19 0 39.5 -9.5t41 -19.5t36.5 -10q13 0 21.5 8.5
t10.5 28.5h25q-1 -34 -14.5 -55.5t-44.5 -21.5z" />
    <glyph glyph-name="adieresis" unicode="&#xe4;" horiz-adv-x="450" 
d="M173 -11q-60 0 -97 33.5t-37 83.5q0 45 20.5 71t54.5 37t74 11q36 0 74 -5.5t75 -14.5l-23 -5v60q0 53 -28.5 78t-74.5 25q-31 0 -67.5 -9.5t-68.5 -25.5l-16 37q37 20 78.5 29t72.5 9q56 0 90.5 -18.5t50.5 -49.5t16 -68v-228h62v-39h-107l-7 52h21q-43 -32 -81.5 -47.5
t-81.5 -15.5zM180 27q37 0 74 15t83 47l-23 -26v124l19 -14q-33 9 -69 14t-73 5q-38 0 -69 -18t-31 -66q0 -33 23 -57t66 -24zM129 469q-16 0 -25.5 9.5t-9.5 24.5t9.5 24t25.5 9t25 -9t9 -25q0 -14 -9 -23.5t-25 -9.5zM305 469q-15 0 -24.5 9t-9.5 24q0 16 9.5 25t24.5 9
q16 0 25.5 -9t9.5 -25q0 -15 -9.5 -24t-25.5 -9z" />
    <glyph glyph-name="aring" unicode="&#xe5;" horiz-adv-x="450" 
d="M173 -11q-60 0 -97 33.5t-37 83.5q0 45 20.5 71t54.5 37t74 11q36 0 74 -5.5t75 -14.5l-23 -5v60q0 53 -28.5 78t-74.5 25q-31 0 -67.5 -9.5t-68.5 -25.5l-16 37q37 20 78.5 29t72.5 9q56 0 90.5 -18.5t50.5 -49.5t16 -68v-228h62v-39h-107l-7 52h21q-43 -32 -81.5 -47.5
t-81.5 -15.5zM180 27q37 0 74 15t83 47l-23 -26v124l19 -14q-33 9 -69 14t-73 5q-38 0 -69 -18t-31 -66q0 -33 23 -57t66 -24zM217 444q-33 0 -52 19t-18 48q0 28 18.5 46.5t51.5 18.5q34 0 52 -18.5t18 -46.5q0 -29 -18.5 -48t-51.5 -19zM217 467q20 0 31.5 12.5t11.5 31.5
q0 18 -11.5 29.5t-31.5 11.5t-31.5 -11.5t-11.5 -29.5q0 -19 11.5 -31.5t31.5 -12.5z" />
    <glyph glyph-name="ae" unicode="&#xe6;" horiz-adv-x="754" 
d="M178 -11q-63 0 -101 32t-38 82q0 43 22.5 68.5t59.5 36.5t81 11h112v41q0 53 -28.5 78t-74.5 25q-31 0 -67.5 -9.5t-68.5 -25.5l-16 37q37 20 78.5 29t72.5 9q42 0 70.5 -11.5t46.5 -31t26 -42.5q28 42 72.5 64t94.5 22q56 0 99 -23.5t67.5 -70t24.5 -112.5v-13h-342
q4 -47 25 -81.5t56 -54t78 -19.5q46 0 87.5 19.5t68.5 48.5l19 -35q-32 -34 -76 -54.5t-98 -20.5q-55 0 -102 23t-75 65q-33 -43 -76 -65t-98 -22zM185 27q44 0 82 20.5t65 61.5q-8 17 -12 36t-6 40h-109q-29 0 -55.5 -8t-42.5 -25t-16 -47q0 -35 24 -56.5t70 -21.5z
M369 219h289q0 48 -19 80.5t-50 48.5t-69 16q-39 0 -72 -17t-54 -49.5t-25 -78.5z" />
    <glyph glyph-name="ccedilla" unicode="&#xe7;" horiz-adv-x="468" 
d="M237 -10q-61 0 -108 27t-74 74t-27 108q0 60 26 106t72.5 72.5t105.5 26.5q56 0 95 -25.5t50 -63.5h-12v79h47v-129h-42q-8 44 -42 70.5t-85 26.5q-47 0 -83 -21t-56.5 -57.5t-20.5 -84.5q0 -49 20.5 -86.5t56 -59t81.5 -21.5q51 0 85 18.5t64 50.5l22 -33
q-31 -36 -74 -57t-101 -21zM229 -162q-36 0 -71 17v22q14 -4 27 -6t23 -2q17 0 27.5 5.5t10.5 18.5t-13 20.5t-46 8.5l31 78h25l-17 -57q35 -2 51.5 -17t16.5 -36q0 -28 -19.5 -40t-45.5 -12z" />
    <glyph glyph-name="egrave" unicode="&#xe8;" horiz-adv-x="467" 
d="M243 -12q-59 0 -108 25.5t-78.5 72.5t-29.5 110q0 67 28.5 113t75 70.5t101.5 24.5q56 0 99.5 -23.5t68 -70t24.5 -112.5v-13h-350l1 34h296q0 48 -19 80.5t-50.5 48.5t-69.5 16q-41 0 -75 -19.5t-54.5 -55.5t-20.5 -87q0 -52 20.5 -90.5t57 -60t81.5 -21.5
q46 0 87.5 19.5t68.5 48.5l19 -35q-32 -34 -76 -54.5t-97 -20.5zM219 480l-76 135h60l49 -135h-33z" />
    <glyph glyph-name="eacute" unicode="&#xe9;" horiz-adv-x="467" 
d="M243 -12q-59 0 -108 25.5t-78.5 72.5t-29.5 110q0 67 28.5 113t75 70.5t101.5 24.5q56 0 99.5 -23.5t68 -70t24.5 -112.5v-13h-350l1 34h296q0 48 -19 80.5t-50.5 48.5t-69.5 16q-41 0 -75 -19.5t-54.5 -55.5t-20.5 -87q0 -52 20.5 -90.5t57 -60t81.5 -21.5
q46 0 87.5 19.5t68.5 48.5l19 -35q-32 -34 -76 -54.5t-97 -20.5zM222 480l49 135h60l-76 -135h-33z" />
    <glyph glyph-name="ecircumflex" unicode="&#xea;" horiz-adv-x="467" 
d="M243 -12q-59 0 -108 25.5t-78.5 72.5t-29.5 110q0 67 28.5 113t75 70.5t101.5 24.5q56 0 99.5 -23.5t68 -70t24.5 -112.5v-13h-350l1 34h296q0 48 -19 80.5t-50.5 48.5t-69.5 16q-41 0 -75 -19.5t-54.5 -55.5t-20.5 -87q0 -52 20.5 -90.5t57 -60t81.5 -21.5
q46 0 87.5 19.5t68.5 48.5l19 -35q-32 -34 -76 -54.5t-97 -20.5zM127 451l84 154h53l83 -154h-41l-69 127l-69 -127h-41z" />
    <glyph glyph-name="edieresis" unicode="&#xeb;" horiz-adv-x="467" 
d="M243 -12q-59 0 -108 25.5t-78.5 72.5t-29.5 110q0 67 28.5 113t75 70.5t101.5 24.5q56 0 99.5 -23.5t68 -70t24.5 -112.5v-13h-350l1 34h296q0 48 -19 80.5t-50.5 48.5t-69.5 16q-41 0 -75 -19.5t-54.5 -55.5t-20.5 -87q0 -52 20.5 -90.5t57 -60t81.5 -21.5
q46 0 87.5 19.5t68.5 48.5l19 -35q-32 -34 -76 -54.5t-97 -20.5zM149 469q-16 0 -25.5 9.5t-9.5 24.5t9.5 24t25.5 9t25 -9t9 -25q0 -14 -9 -23.5t-25 -9.5zM325 469q-15 0 -24.5 9t-9.5 24q0 16 9.5 25t24.5 9q16 0 25.5 -9t9.5 -25q0 -15 -9.5 -24t-25.5 -9z" />
    <glyph glyph-name="igrave" unicode="&#xec;" horiz-adv-x="253" 
d="M20 0v39h81v315h-80v39h133v-354h77v-39h-211zM101 480l-76 135h60l49 -135h-33z" />
    <glyph glyph-name="iacute" unicode="&#xed;" horiz-adv-x="253" 
d="M20 0v39h81v315h-80v39h133v-354h77v-39h-211zM104 480l49 135h60l-76 -135h-33z" />
    <glyph glyph-name="icircumflex" unicode="&#xee;" horiz-adv-x="253" 
d="M20 0v39h81v315h-80v39h133v-354h77v-39h-211zM9 451l84 154h53l83 -154h-41l-69 127l-69 -127h-41z" />
    <glyph glyph-name="idieresis" unicode="&#xef;" horiz-adv-x="253" 
d="M20 0v39h81v315h-80v39h133v-354h77v-39h-211zM31 469q-16 0 -25.5 9.5t-9.5 24.5t9.5 24t25.5 9t25 -9t9 -25q0 -14 -9 -23.5t-25 -9.5zM207 469q-15 0 -24.5 9t-9.5 24q0 16 9.5 25t24.5 9q16 0 25.5 -9t9.5 -25q0 -15 -9.5 -24t-25.5 -9z" />
    <glyph glyph-name="eth" unicode="&#xf0;" horiz-adv-x="461" 
d="M230 -10q-65 0 -109 27t-66 71.5t-22 95.5q0 57 23.5 101t66.5 69.5t100 25.5q48 0 80.5 -16.5t48.5 -35.5q-28 60 -74.5 114t-101.5 102t-106 89l27 33q39 -32 84 -69.5t88 -81.5t78.5 -93.5t57 -106.5t21.5 -121q0 -63 -26 -108.5t-70.5 -70.5t-99.5 -25zM230 34
q52 0 84 23t46.5 59.5t14.5 74.5q0 49 -19.5 82t-52.5 49.5t-74 16.5q-39 0 -72 -18t-52 -52t-19 -83q0 -39 16 -73.5t48 -56.5t80 -22zM99 438l-17 35l284 124l18 -33z" />
    <glyph glyph-name="ntilde" unicode="&#xf1;" horiz-adv-x="508" 
d="M20 0v39h81v315h-80v39h133v-52l-19 -2q42 28 85 46t87 18q54 0 89.5 -33t35.5 -94v-237h74v-39h-202v39h74v233q0 42 -22.5 65.5t-61.5 23.5q-36 0 -76.5 -16.5t-83.5 -43.5l20 24v-286h77v-39h-211zM333 476q-21 0 -42.5 10t-41.5 19.5t-37 9.5q-26 0 -30 -37h-26
q2 38 18.5 57.5t43.5 19.5q19 0 39.5 -9.5t41 -19.5t36.5 -10q13 0 21.5 8.5t10.5 28.5h25q-1 -34 -14.5 -55.5t-44.5 -21.5z" />
    <glyph glyph-name="ograve" unicode="&#xf2;" horiz-adv-x="478" 
d="M238 -12q-62 0 -109.5 26.5t-74.5 73.5t-27 110q0 62 27 108.5t74.5 72t109.5 25.5q63 0 111 -25.5t75 -72t27 -108.5t-27 -109.5t-75 -74t-111 -26.5zM238 30q47 0 82.5 21.5t55.5 59t20 87.5q0 49 -20 86t-55.5 57.5t-82.5 20.5q-46 0 -81 -20.5t-55 -57.5t-20 -86
q0 -50 20 -87.5t55 -59t81 -21.5zM219 480l-76 135h60l49 -135h-33z" />
    <glyph glyph-name="oacute" unicode="&#xf3;" horiz-adv-x="478" 
d="M238 -12q-62 0 -109.5 26.5t-74.5 73.5t-27 110q0 62 27 108.5t74.5 72t109.5 25.5q63 0 111 -25.5t75 -72t27 -108.5t-27 -109.5t-75 -74t-111 -26.5zM238 30q47 0 82.5 21.5t55.5 59t20 87.5q0 49 -20 86t-55.5 57.5t-82.5 20.5q-46 0 -81 -20.5t-55 -57.5t-20 -86
q0 -50 20 -87.5t55 -59t81 -21.5zM222 480l49 135h60l-76 -135h-33z" />
    <glyph glyph-name="ocircumflex" unicode="&#xf4;" horiz-adv-x="478" 
d="M238 -12q-62 0 -109.5 26.5t-74.5 73.5t-27 110q0 62 27 108.5t74.5 72t109.5 25.5q63 0 111 -25.5t75 -72t27 -108.5t-27 -109.5t-75 -74t-111 -26.5zM238 30q47 0 82.5 21.5t55.5 59t20 87.5q0 49 -20 86t-55.5 57.5t-82.5 20.5q-46 0 -81 -20.5t-55 -57.5t-20 -86
q0 -50 20 -87.5t55 -59t81 -21.5zM127 451l84 154h53l83 -154h-41l-69 127l-69 -127h-41z" />
    <glyph glyph-name="otilde" unicode="&#xf5;" horiz-adv-x="478" 
d="M238 -12q-62 0 -109.5 26.5t-74.5 73.5t-27 110q0 62 27 108.5t74.5 72t109.5 25.5q63 0 111 -25.5t75 -72t27 -108.5t-27 -109.5t-75 -74t-111 -26.5zM238 30q47 0 82.5 21.5t55.5 59t20 87.5q0 49 -20 86t-55.5 57.5t-82.5 20.5q-46 0 -81 -20.5t-55 -57.5t-20 -86
q0 -50 20 -87.5t55 -59t81 -21.5zM296 476q-21 0 -42.5 10t-41.5 19.5t-37 9.5q-26 0 -30 -37h-26q2 38 18.5 57.5t43.5 19.5q19 0 39.5 -9.5t41 -19.5t36.5 -10q13 0 21.5 8.5t10.5 28.5h25q-1 -34 -14.5 -55.5t-44.5 -21.5z" />
    <glyph glyph-name="odieresis" unicode="&#xf6;" horiz-adv-x="478" 
d="M238 -12q-62 0 -109.5 26.5t-74.5 73.5t-27 110q0 62 27 108.5t74.5 72t109.5 25.5q63 0 111 -25.5t75 -72t27 -108.5t-27 -109.5t-75 -74t-111 -26.5zM238 30q47 0 82.5 21.5t55.5 59t20 87.5q0 49 -20 86t-55.5 57.5t-82.5 20.5q-46 0 -81 -20.5t-55 -57.5t-20 -86
q0 -50 20 -87.5t55 -59t81 -21.5zM149 469q-16 0 -25.5 9.5t-9.5 24.5t9.5 24t25.5 9t25 -9t9 -25q0 -14 -9 -23.5t-25 -9.5zM325 469q-15 0 -24.5 9t-9.5 24q0 16 9.5 25t24.5 9q16 0 25.5 -9t9.5 -25q0 -15 -9.5 -24t-25.5 -9z" />
    <glyph glyph-name="divide" unicode="&#xf7;" horiz-adv-x="520" 
d="M61 260v41h397v-41h-397zM227 74v81h66v-81h-66zM227 405v82h66v-82h-66z" />
    <glyph glyph-name="oslash" unicode="&#xf8;" horiz-adv-x="489" 
d="M110 -66l-26 14l290 503l26 -14zM238 -12q-62 0 -109.5 26.5t-74.5 73.5t-27 110q0 62 27 108.5t74.5 72t109.5 25.5q63 0 111 -25.5t75 -72t27 -108.5t-27 -109.5t-75 -74t-111 -26.5zM238 30q47 0 82.5 21.5t55.5 59t20 87.5q0 49 -20 86t-55.5 57.5t-82.5 20.5
q-46 0 -81 -20.5t-55 -57.5t-20 -86q0 -50 20 -87.5t55 -59t81 -21.5z" />
    <glyph glyph-name="ugrave" unicode="&#xf9;" 
d="M211 -10q-47 0 -75 18.5t-39.5 47.5t-11.5 58v240h-71v39h125v-275q0 -36 20 -60.5t62 -24.5q50 0 89.5 21t77.5 57l-24 -33v276h-72v39h126v-354h73v-39h-124l-3 64l26 5q-41 -37 -85.5 -58t-93.5 -21zM221 480l-76 135h60l49 -135h-33z" />
    <glyph glyph-name="uacute" unicode="&#xfa;" 
d="M211 -10q-47 0 -75 18.5t-39.5 47.5t-11.5 58v240h-71v39h125v-275q0 -36 20 -60.5t62 -24.5q50 0 89.5 21t77.5 57l-24 -33v276h-72v39h126v-354h73v-39h-124l-3 64l26 5q-41 -37 -85.5 -58t-93.5 -21zM224 480l49 135h60l-76 -135h-33z" />
    <glyph glyph-name="ucircumflex" unicode="&#xfb;" 
d="M211 -10q-47 0 -75 18.5t-39.5 47.5t-11.5 58v240h-71v39h125v-275q0 -36 20 -60.5t62 -24.5q50 0 89.5 21t77.5 57l-24 -33v276h-72v39h126v-354h73v-39h-124l-3 64l26 5q-41 -37 -85.5 -58t-93.5 -21zM129 451l84 154h53l83 -154h-41l-69 127l-69 -127h-41z" />
    <glyph glyph-name="udieresis" unicode="&#xfc;" 
d="M211 -10q-47 0 -75 18.5t-39.5 47.5t-11.5 58v240h-71v39h125v-275q0 -36 20 -60.5t62 -24.5q50 0 89.5 21t77.5 57l-24 -33v276h-72v39h126v-354h73v-39h-124l-3 64l26 5q-41 -37 -85.5 -58t-93.5 -21zM151 469q-16 0 -25.5 9.5t-9.5 24.5t9.5 24t25.5 9t25 -9t9 -25
q0 -14 -9 -23.5t-25 -9.5zM327 469q-15 0 -24.5 9t-9.5 24q0 16 9.5 25t24.5 9q16 0 25.5 -9t9.5 -25q0 -15 -9.5 -24t-25.5 -9z" />
    <glyph glyph-name="yacute" unicode="&#xfd;" horiz-adv-x="521" 
d="M107 -143v45h43q27 0 43 4t27 17.5t21 39.5l25 64h-25l-150 327h-76v39h195v-39h-64l131 -295l120 295h-74v39h192v-39h-64l-161 -388q-15 -39 -30 -62.5t-39 -35t-68 -11.5h-46zM252 480l49 135h60l-76 -135h-33z" />
    <glyph glyph-name="thorn" unicode="&#xfe;" horiz-adv-x="524" 
d="M24 -157v40h68v639h-74v41h128v-212q34 28 73.5 42t77.5 14q56 0 100 -23.5t69.5 -68.5t25.5 -109q0 -66 -27 -114t-73 -73t-105 -25q-38 0 -75 15t-66 43v-169h68v-40h-190zM279 35q70 0 113.5 43t43.5 122q0 78 -42 122t-109 44q-33 0 -70 -15t-69 -43v-216
q28 -28 63.5 -42.5t69.5 -14.5z" />
    <glyph glyph-name="ydieresis" unicode="&#xff;" horiz-adv-x="521" 
d="M107 -143v45h43q27 0 43 4t27 17.5t21 39.5l25 64h-25l-150 327h-76v39h195v-39h-64l131 -295l120 295h-74v39h192v-39h-64l-161 -388q-15 -39 -30 -62.5t-39 -35t-68 -11.5h-46zM179 469q-16 0 -25.5 9.5t-9.5 24.5t9.5 24t25.5 9t25 -9t9 -25q0 -14 -9 -23.5t-25 -9.5z
M355 469q-15 0 -24.5 9t-9.5 24q0 16 9.5 25t24.5 9q16 0 25.5 -9t9.5 -25q0 -15 -9.5 -24t-25.5 -9z" />
    <glyph glyph-name="Amacron" unicode="&#x100;" horiz-adv-x="675" 
d="M34 0v39h74l176 485h-66v39h241v-39h-69l179 -485h71v-39h-207v39h74l-66 186h-212l-66 -186h74v-39h-203zM241 264h188l-92 258h-4zM239 647v34h198v-34h-198z" />
    <glyph glyph-name="amacron" unicode="&#x101;" horiz-adv-x="450" 
d="M173 -11q-60 0 -97 33.5t-37 83.5q0 45 20.5 71t54.5 37t74 11q36 0 74 -5.5t75 -14.5l-23 -5v60q0 53 -28.5 78t-74.5 25q-31 0 -67.5 -9.5t-68.5 -25.5l-16 37q37 20 78.5 29t72.5 9q56 0 90.5 -18.5t50.5 -49.5t16 -68v-228h62v-39h-107l-7 52h21q-43 -32 -81.5 -47.5
t-81.5 -15.5zM180 27q37 0 74 15t83 47l-23 -26v124l19 -14q-33 9 -69 14t-73 5q-38 0 -69 -18t-31 -66q0 -33 23 -57t66 -24zM118 477v34h198v-34h-198z" />
    <glyph glyph-name="Abreve" unicode="&#x102;" horiz-adv-x="675" 
d="M34 0v39h74l176 485h-66v39h241v-39h-69l179 -485h71v-39h-207v39h74l-66 186h-212l-66 -186h74v-39h-203zM241 264h188l-92 258h-4zM338 635q-38 -1 -63 22t-30 63h36q11 -51 57 -51q22 0 36.5 13t19.5 38h37q-6 -40 -30.5 -62.5t-62.5 -22.5z" />
    <glyph glyph-name="abreve" unicode="&#x103;" horiz-adv-x="450" 
d="M173 -11q-60 0 -97 33.5t-37 83.5q0 45 20.5 71t54.5 37t74 11q36 0 74 -5.5t75 -14.5l-23 -5v60q0 53 -28.5 78t-74.5 25q-31 0 -67.5 -9.5t-68.5 -25.5l-16 37q37 20 78.5 29t72.5 9q56 0 90.5 -18.5t50.5 -49.5t16 -68v-228h62v-39h-107l-7 52h21q-43 -32 -81.5 -47.5
t-81.5 -15.5zM180 27q37 0 74 15t83 47l-23 -26v124l19 -14q-33 9 -69 14t-73 5q-38 0 -69 -18t-31 -66q0 -33 23 -57t66 -24zM217 465q-38 -1 -63 22t-30 63h36q11 -51 57 -51q22 0 36.5 13t19.5 38h37q-6 -40 -30.5 -62.5t-62.5 -22.5z" />
    <glyph glyph-name="Aogonek" unicode="&#x104;" horiz-adv-x="675" 
d="M34 0v39h74l176 485h-66v39h241v-39h-69l179 -485h71v-39h-207v39h74l-66 186h-212l-66 -186h74v-39h-203zM241 264h188l-92 258h-4zM545 -162q-31 0 -52.5 18.5t-21.5 49.5q0 24 14 47t40 47h34q-22 -22 -34.5 -42.5t-12.5 -40.5q0 -22 13.5 -33t32.5 -11q23 0 46 15
v-31q-16 -9 -30 -14t-29 -5z" />
    <glyph glyph-name="aogonek" unicode="&#x105;" horiz-adv-x="450" 
d="M173 -11q-60 0 -97 33.5t-37 83.5q0 45 20.5 71t54.5 37t74 11q36 0 74 -5.5t75 -14.5l-23 -5v60q0 53 -28.5 78t-74.5 25q-31 0 -67.5 -9.5t-68.5 -25.5l-16 37q37 20 78.5 29t72.5 9q56 0 90.5 -18.5t50.5 -49.5t16 -68v-228h62v-39h-107l-7 52h21q-43 -32 -81.5 -47.5
t-81.5 -15.5zM180 27q37 0 74 15t83 47l-23 -26v124l19 -14q-33 9 -69 14t-73 5q-38 0 -69 -18t-31 -66q0 -33 23 -57t66 -24zM388 -162q-31 0 -52.5 18.5t-21.5 49.5q0 24 14 47t40 47h34q-22 -22 -34.5 -42.5t-12.5 -40.5q0 -22 13.5 -33t32.5 -11q23 0 46 15v-31
q-16 -9 -30 -14t-29 -5z" />
    <glyph glyph-name="Cacute" unicode="&#x106;" horiz-adv-x="674" 
d="M346 -11q-60 0 -112.5 19.5t-93.5 57.5t-64 92.5t-23 124.5q0 82 36.5 148t102.5 104t155 38q60 0 104.5 -17.5t74.5 -49t47 -73.5l-18 2v128h45v-164l-39 -4q-34 69 -84 101.5t-128 32.5q-74 0 -127.5 -33.5t-81.5 -89.5t-28 -123q0 -60 19 -106.5t52.5 -78.5t76 -48.5
t89.5 -16.5q43 0 84.5 12.5t76 40.5t55.5 76l42 -22q-26 -56 -66 -89t-89.5 -47t-105.5 -15zM335 650l49 135h60l-76 -135h-33z" />
    <glyph glyph-name="cacute" unicode="&#x107;" horiz-adv-x="468" 
d="M237 -10q-61 0 -108 27t-74 74t-27 108q0 60 26 106t72.5 72.5t105.5 26.5q56 0 95 -25.5t50 -63.5h-12v79h47v-129h-42q-8 44 -42 70.5t-85 26.5q-47 0 -83 -21t-56.5 -57.5t-20.5 -84.5q0 -49 20.5 -86.5t56 -59t81.5 -21.5q51 0 85 18.5t64 50.5l22 -33
q-31 -36 -74 -57t-101 -21zM226 480l49 135h60l-76 -135h-33z" />
    <glyph glyph-name="Ccircumflex" unicode="&#x108;" horiz-adv-x="674" 
d="M346 -11q-60 0 -112.5 19.5t-93.5 57.5t-64 92.5t-23 124.5q0 82 36.5 148t102.5 104t155 38q60 0 104.5 -17.5t74.5 -49t47 -73.5l-18 2v128h45v-164l-39 -4q-34 69 -84 101.5t-128 32.5q-74 0 -127.5 -33.5t-81.5 -89.5t-28 -123q0 -60 19 -106.5t52.5 -78.5t76 -48.5
t89.5 -16.5q43 0 84.5 12.5t76 40.5t55.5 76l42 -22q-26 -56 -66 -89t-89.5 -47t-105.5 -15zM240 621l84 154h53l83 -154h-41l-69 127l-69 -127h-41z" />
    <glyph glyph-name="ccircumflex" unicode="&#x109;" horiz-adv-x="468" 
d="M237 -10q-61 0 -108 27t-74 74t-27 108q0 60 26 106t72.5 72.5t105.5 26.5q56 0 95 -25.5t50 -63.5h-12v79h47v-129h-42q-8 44 -42 70.5t-85 26.5q-47 0 -83 -21t-56.5 -57.5t-20.5 -84.5q0 -49 20.5 -86.5t56 -59t81.5 -21.5q51 0 85 18.5t64 50.5l22 -33
q-31 -36 -74 -57t-101 -21zM131 451l84 154h53l83 -154h-41l-69 127l-69 -127h-41z" />
    <glyph glyph-name="Cdotaccent" unicode="&#x10a;" horiz-adv-x="674" 
d="M346 -11q-60 0 -112.5 19.5t-93.5 57.5t-64 92.5t-23 124.5q0 82 36.5 148t102.5 104t155 38q60 0 104.5 -17.5t74.5 -49t47 -73.5l-18 2v128h45v-164l-39 -4q-34 69 -84 101.5t-128 32.5q-74 0 -127.5 -33.5t-81.5 -89.5t-28 -123q0 -60 19 -106.5t52.5 -78.5t76 -48.5
t89.5 -16.5q43 0 84.5 12.5t76 40.5t55.5 76l42 -22q-26 -56 -66 -89t-89.5 -47t-105.5 -15zM350 640q-18 0 -29 11.5t-11 25.5q0 16 10.5 27t29.5 11q18 0 28.5 -10.5t10.5 -27.5q1 -13 -9.5 -25t-29.5 -12z" />
    <glyph glyph-name="cdotaccent" unicode="&#x10b;" horiz-adv-x="468" 
d="M237 -10q-61 0 -108 27t-74 74t-27 108q0 60 26 106t72.5 72.5t105.5 26.5q56 0 95 -25.5t50 -63.5h-12v79h47v-129h-42q-8 44 -42 70.5t-85 26.5q-47 0 -83 -21t-56.5 -57.5t-20.5 -84.5q0 -49 20.5 -86.5t56 -59t81.5 -21.5q51 0 85 18.5t64 50.5l22 -33
q-31 -36 -74 -57t-101 -21zM241 470q-18 0 -29 11.5t-11 25.5q0 16 10.5 27t29.5 11q18 0 28.5 -10.5t10.5 -27.5q1 -13 -9.5 -25t-29.5 -12z" />
    <glyph glyph-name="Ccaron" unicode="&#x10c;" horiz-adv-x="674" 
d="M346 -11q-60 0 -112.5 19.5t-93.5 57.5t-64 92.5t-23 124.5q0 82 36.5 148t102.5 104t155 38q60 0 104.5 -17.5t74.5 -49t47 -73.5l-18 2v128h45v-164l-39 -4q-34 69 -84 101.5t-128 32.5q-74 0 -127.5 -33.5t-81.5 -89.5t-28 -123q0 -60 19 -106.5t52.5 -78.5t76 -48.5
t89.5 -16.5q43 0 84.5 12.5t76 40.5t55.5 76l42 -22q-26 -56 -66 -89t-89.5 -47t-105.5 -15zM327 629l-84 151h40l68 -117l66 117h39l-82 -151h-47z" />
    <glyph glyph-name="ccaron" unicode="&#x10d;" horiz-adv-x="468" 
d="M237 -10q-61 0 -108 27t-74 74t-27 108q0 60 26 106t72.5 72.5t105.5 26.5q56 0 95 -25.5t50 -63.5h-12v79h47v-129h-42q-8 44 -42 70.5t-85 26.5q-47 0 -83 -21t-56.5 -57.5t-20.5 -84.5q0 -49 20.5 -86.5t56 -59t81.5 -21.5q51 0 85 18.5t64 50.5l22 -33
q-31 -36 -74 -57t-101 -21zM218 459l-84 151h40l68 -117l66 117h39l-82 -151h-47z" />
    <glyph glyph-name="Dcaron" unicode="&#x10e;" horiz-adv-x="690" 
d="M49 0v39h81v485h-81v39h319q69 0 119 -24.5t83.5 -65.5t49.5 -90.5t16 -98.5q0 -56 -16.5 -107t-50 -90.5t-83.5 -63t-116 -23.5h-321zM189 39h174q55 0 95.5 20t66.5 54.5t38.5 78t12.5 90.5q0 45 -13 87.5t-39 77.5t-65.5 56t-92.5 21h-177v-485zM351 629l-84 151h40
l68 -117l66 117h39l-82 -151h-47z" />
    <glyph glyph-name="dcaron" unicode="&#x10f;" horiz-adv-x="530" 
d="M233 -11q-57 0 -103 25.5t-73.5 72.5t-27.5 110q0 65 26.5 110.5t71.5 70.5t101 25q45 0 88.5 -17t72.5 -49l-22 2v195h-68v39h122v-534h64v-39h-118v52l22 2q-29 -29 -68.5 -47t-87.5 -18zM243 30q43 0 80.5 18t66.5 46l-23 -31v267l23 -34q-31 32 -72 49t-81 17
q-44 0 -78.5 -20.5t-54 -58.5t-19.5 -91q0 -50 21 -86t56.5 -56t80.5 -20zM459 411v23q24 4 34.5 17.5t10.5 48.5h-43v73h75l-1 -75q1 -39 -16.5 -63t-59.5 -24z" />
    <glyph glyph-name="Dcroat" unicode="&#x110;" horiz-adv-x="690" 
d="M49 0v39h81v485h-81v39h319q69 0 119 -24.5t83.5 -65.5t49.5 -90.5t16 -98.5q0 -56 -16.5 -107t-50 -90.5t-83.5 -63t-116 -23.5h-321zM189 39h174q55 0 95.5 20t66.5 54.5t38.5 78t12.5 90.5q0 45 -13 87.5t-39 77.5t-65.5 56t-92.5 21h-177v-485zM49 267v41h245v-41
h-245z" />
    <glyph glyph-name="dcroat" unicode="&#x111;" 
d="M233 -11q-57 0 -103 25.5t-73.5 72.5t-27.5 110q0 65 26.5 110.5t71.5 70.5t101 25q45 0 88.5 -17t72.5 -49l-22 2v235h54v-535h64v-39h-118v52l22 2q-29 -29 -68.5 -47t-87.5 -18zM243 30q43 0 80.5 18t66.5 46l-23 -31v267l23 -34q-31 32 -72 49t-81 17
q-44 0 -78.5 -20.5t-54 -58.5t-19.5 -91q0 -50 21 -86t56.5 -56t80.5 -20zM233 464v34h252v-34h-252z" />
    <glyph glyph-name="Emacron" unicode="&#x112;" horiz-adv-x="589" 
d="M48 0v39h81v485h-81v39h477v-164h-47v125h-290v-214h189v73h33v-190h-33v76h-189v-230h298v128h47v-167h-485zM219 647v34h198v-34h-198z" />
    <glyph glyph-name="emacron" unicode="&#x113;" horiz-adv-x="467" 
d="M243 -12q-59 0 -108 25.5t-78.5 72.5t-29.5 110q0 67 28.5 113t75 70.5t101.5 24.5q56 0 99.5 -23.5t68 -70t24.5 -112.5v-13h-350l1 34h296q0 48 -19 80.5t-50.5 48.5t-69.5 16q-41 0 -75 -19.5t-54.5 -55.5t-20.5 -87q0 -52 20.5 -90.5t57 -60t81.5 -21.5
q46 0 87.5 19.5t68.5 48.5l19 -35q-32 -34 -76 -54.5t-97 -20.5zM138 477v34h198v-34h-198z" />
    <glyph glyph-name="Ebreve" unicode="&#x114;" horiz-adv-x="589" 
d="M48 0v39h81v485h-81v39h477v-164h-47v125h-290v-214h189v73h33v-190h-33v76h-189v-230h298v128h47v-167h-485zM318 635q-38 -1 -63 22t-30 63h36q11 -51 57 -51q22 0 36.5 13t19.5 38h37q-6 -40 -30.5 -62.5t-62.5 -22.5z" />
    <glyph glyph-name="ebreve" unicode="&#x115;" horiz-adv-x="467" 
d="M243 -12q-59 0 -108 25.5t-78.5 72.5t-29.5 110q0 67 28.5 113t75 70.5t101.5 24.5q56 0 99.5 -23.5t68 -70t24.5 -112.5v-13h-350l1 34h296q0 48 -19 80.5t-50.5 48.5t-69.5 16q-41 0 -75 -19.5t-54.5 -55.5t-20.5 -87q0 -52 20.5 -90.5t57 -60t81.5 -21.5
q46 0 87.5 19.5t68.5 48.5l19 -35q-32 -34 -76 -54.5t-97 -20.5zM237 465q-38 -1 -63 22t-30 63h36q11 -51 57 -51q22 0 36.5 13t19.5 38h37q-6 -40 -30.5 -62.5t-62.5 -22.5z" />
    <glyph glyph-name="Edotaccent" unicode="&#x116;" horiz-adv-x="589" 
d="M48 0v39h81v485h-81v39h477v-164h-47v125h-290v-214h189v73h33v-190h-33v76h-189v-230h298v128h47v-167h-485zM318 640q-18 0 -29 11.5t-11 25.5q0 16 10.5 27t29.5 11q18 0 28.5 -10.5t10.5 -27.5q1 -13 -9.5 -25t-29.5 -12z" />
    <glyph glyph-name="edotaccent" unicode="&#x117;" horiz-adv-x="467" 
d="M243 -12q-59 0 -108 25.5t-78.5 72.5t-29.5 110q0 67 28.5 113t75 70.5t101.5 24.5q56 0 99.5 -23.5t68 -70t24.5 -112.5v-13h-350l1 34h296q0 48 -19 80.5t-50.5 48.5t-69.5 16q-41 0 -75 -19.5t-54.5 -55.5t-20.5 -87q0 -52 20.5 -90.5t57 -60t81.5 -21.5
q46 0 87.5 19.5t68.5 48.5l19 -35q-32 -34 -76 -54.5t-97 -20.5zM237 470q-18 0 -29 11.5t-11 25.5q0 16 10.5 27t29.5 11q18 0 28.5 -10.5t10.5 -27.5q1 -13 -9.5 -25t-29.5 -12z" />
    <glyph glyph-name="Eogonek" unicode="&#x118;" horiz-adv-x="589" 
d="M48 0v39h81v485h-81v39h477v-164h-47v125h-290v-214h189v73h33v-190h-33v76h-189v-230h298v128h47v-167h-485zM468 -162q-31 0 -52.5 18.5t-21.5 49.5q0 24 14 47t40 47h34q-22 -22 -34.5 -42.5t-12.5 -40.5q0 -22 13.5 -33t32.5 -11q23 0 46 15v-31q-16 -9 -30 -14
t-29 -5z" />
    <glyph glyph-name="eogonek" unicode="&#x119;" horiz-adv-x="467" 
d="M243 -12q-59 0 -108 25.5t-78.5 72.5t-29.5 110q0 67 28.5 113t75 70.5t101.5 24.5q56 0 99.5 -23.5t68 -70t24.5 -112.5v-13h-350l1 34h296q0 48 -19 80.5t-50.5 48.5t-69.5 16q-41 0 -75 -19.5t-54.5 -55.5t-20.5 -87q0 -52 20.5 -90.5t57 -60t81.5 -21.5
q46 0 87.5 19.5t68.5 48.5l19 -35q-32 -34 -76 -54.5t-97 -20.5zM262 -159q-31 0 -52.5 18.5t-21.5 49.5q0 24 14 47t40 47h34q-22 -22 -34.5 -42.5t-12.5 -40.5q0 -22 13.5 -33t32.5 -11q23 0 46 15v-31q-16 -9 -30 -14t-29 -5z" />
    <glyph glyph-name="Ecaron" unicode="&#x11a;" horiz-adv-x="589" 
d="M48 0v39h81v485h-81v39h477v-164h-47v125h-290v-214h189v73h33v-190h-33v76h-189v-230h298v128h47v-167h-485zM295 629l-84 151h40l68 -117l66 117h39l-82 -151h-47z" />
    <glyph glyph-name="ecaron" unicode="&#x11b;" horiz-adv-x="467" 
d="M243 -12q-59 0 -108 25.5t-78.5 72.5t-29.5 110q0 67 28.5 113t75 70.5t101.5 24.5q56 0 99.5 -23.5t68 -70t24.5 -112.5v-13h-350l1 34h296q0 48 -19 80.5t-50.5 48.5t-69.5 16q-41 0 -75 -19.5t-54.5 -55.5t-20.5 -87q0 -52 20.5 -90.5t57 -60t81.5 -21.5
q46 0 87.5 19.5t68.5 48.5l19 -35q-32 -34 -76 -54.5t-97 -20.5zM214 459l-84 151h40l68 -117l66 117h39l-82 -151h-47z" />
    <glyph glyph-name="Gcircumflex" unicode="&#x11c;" horiz-adv-x="683" 
d="M352 -10q-93 0 -160.5 37t-103.5 103.5t-36 153.5q0 88 37.5 152.5t104.5 100.5t157 36q79 0 138 -35t88 -94l-23 3v116h48v-164h-42q-27 63 -82 97t-125 34q-73 0 -126.5 -29.5t-83 -84t-29.5 -129.5q0 -78 29.5 -135t83.5 -87.5t127 -30.5q38 0 76 11t70 34.5t51 63.5
t19 98l28 -5h-150v41h179v-18q0 -72 -22 -123.5t-60.5 -83.5t-88 -47t-104.5 -15zM239 621l84 154h53l83 -154h-41l-69 127l-69 -127h-41z" />
    <glyph glyph-name="gcircumflex" unicode="&#x11d;" 
d="M234 -186q-33 0 -70 6.5t-74 16.5l10 43q38 -11 71.5 -17t61.5 -6q69 0 105 33t36 96v73l21 7q-28 -32 -72.5 -50.5t-87.5 -18.5q-58 0 -104 25t-73 70.5t-27 107.5q0 64 26 109t71 69t101 24q44 0 91 -19t73 -50l-19 6v54h121v-39h-67v-363q0 -62 -24.5 -101t-68 -57.5
t-101.5 -18.5zM244 37q39 0 81.5 18.5t70.5 49.5l-22 -34v254l23 -29q-31 29 -76 48t-86 19q-44 0 -77 -20.5t-52 -57.5t-19 -89q0 -49 20.5 -84.5t56 -55t80.5 -19.5zM133 451l84 154h53l83 -154h-41l-69 127l-69 -127h-41z" />
    <glyph glyph-name="Gbreve" unicode="&#x11e;" horiz-adv-x="683" 
d="M352 -10q-93 0 -160.5 37t-103.5 103.5t-36 153.5q0 88 37.5 152.5t104.5 100.5t157 36q79 0 138 -35t88 -94l-23 3v116h48v-164h-42q-27 63 -82 97t-125 34q-73 0 -126.5 -29.5t-83 -84t-29.5 -129.5q0 -78 29.5 -135t83.5 -87.5t127 -30.5q38 0 76 11t70 34.5t51 63.5
t19 98l28 -5h-150v41h179v-18q0 -72 -22 -123.5t-60.5 -83.5t-88 -47t-104.5 -15zM349 635q-38 -1 -63 22t-30 63h36q11 -51 57 -51q22 0 36.5 13t19.5 38h37q-6 -40 -30.5 -62.5t-62.5 -22.5z" />
    <glyph glyph-name="gbreve" unicode="&#x11f;" 
d="M234 -186q-33 0 -70 6.5t-74 16.5l10 43q38 -11 71.5 -17t61.5 -6q69 0 105 33t36 96v73l21 7q-28 -32 -72.5 -50.5t-87.5 -18.5q-58 0 -104 25t-73 70.5t-27 107.5q0 64 26 109t71 69t101 24q44 0 91 -19t73 -50l-19 6v54h121v-39h-67v-363q0 -62 -24.5 -101t-68 -57.5
t-101.5 -18.5zM244 37q39 0 81.5 18.5t70.5 49.5l-22 -34v254l23 -29q-31 29 -76 48t-86 19q-44 0 -77 -20.5t-52 -57.5t-19 -89q0 -49 20.5 -84.5t56 -55t80.5 -19.5zM243 465q-38 -1 -63 22t-30 63h36q11 -51 57 -51q22 0 36.5 13t19.5 38h37q-6 -40 -30.5 -62.5
t-62.5 -22.5z" />
    <glyph glyph-name="Gdotaccent" unicode="&#x120;" horiz-adv-x="683" 
d="M352 -10q-93 0 -160.5 37t-103.5 103.5t-36 153.5q0 88 37.5 152.5t104.5 100.5t157 36q79 0 138 -35t88 -94l-23 3v116h48v-164h-42q-27 63 -82 97t-125 34q-73 0 -126.5 -29.5t-83 -84t-29.5 -129.5q0 -78 29.5 -135t83.5 -87.5t127 -30.5q38 0 76 11t70 34.5t51 63.5
t19 98l28 -5h-150v41h179v-18q0 -72 -22 -123.5t-60.5 -83.5t-88 -47t-104.5 -15zM349 640q-18 0 -29 11.5t-11 25.5q0 16 10.5 27t29.5 11q18 0 28.5 -10.5t10.5 -27.5q1 -13 -9.5 -25t-29.5 -12z" />
    <glyph glyph-name="gdotaccent" unicode="&#x121;" 
d="M234 -186q-33 0 -70 6.5t-74 16.5l10 43q38 -11 71.5 -17t61.5 -6q69 0 105 33t36 96v73l21 7q-28 -32 -72.5 -50.5t-87.5 -18.5q-58 0 -104 25t-73 70.5t-27 107.5q0 64 26 109t71 69t101 24q44 0 91 -19t73 -50l-19 6v54h121v-39h-67v-363q0 -62 -24.5 -101t-68 -57.5
t-101.5 -18.5zM244 37q39 0 81.5 18.5t70.5 49.5l-22 -34v254l23 -29q-31 29 -76 48t-86 19q-44 0 -77 -20.5t-52 -57.5t-19 -89q0 -49 20.5 -84.5t56 -55t80.5 -19.5zM243 470q-18 0 -29 11.5t-11 25.5q0 16 10.5 27t29.5 11q18 0 28.5 -10.5t10.5 -27.5q1 -13 -9.5 -25
t-29.5 -12z" />
    <glyph glyph-name="uni0122" unicode="&#x122;" horiz-adv-x="683" 
d="M352 -10q-93 0 -160.5 37t-103.5 103.5t-36 153.5q0 88 37.5 152.5t104.5 100.5t157 36q79 0 138 -35t88 -94l-23 3v116h48v-164h-42q-27 63 -82 97t-125 34q-73 0 -126.5 -29.5t-83 -84t-29.5 -129.5q0 -78 29.5 -135t83.5 -87.5t127 -30.5q38 0 76 11t70 34.5t51 63.5
t19 98l28 -5h-150v41h179v-18q0 -72 -22 -123.5t-60.5 -83.5t-88 -47t-104.5 -15zM308 -214v23q28 4 37.5 22.5t9.5 48.5h-42v69h74v-73q0 -39 -17.5 -65t-61.5 -25z" />
    <glyph glyph-name="uni0123" unicode="&#x123;" 
d="M282 634v-23q-28 -4 -37.5 -22.5t-9.5 -48.5h42v-69h-74v73q0 39 17.5 65t61.5 25zM234 -186q-33 0 -70 6.5t-74 16.5l10 43q38 -11 71.5 -17t61.5 -6q69 0 105 33t36 96v73l21 7q-28 -32 -72.5 -50.5t-87.5 -18.5q-58 0 -104 25t-73 70.5t-27 107.5q0 64 26 109t71 69
t101 24q44 0 91 -19t73 -50l-19 6v54h121v-39h-67v-363q0 -62 -24.5 -101t-68 -57.5t-101.5 -18.5zM244 37q39 0 81.5 18.5t70.5 49.5l-22 -34v254l23 -29q-31 29 -76 48t-86 19q-44 0 -77 -20.5t-52 -57.5t-19 -89q0 -49 20.5 -84.5t56 -55t80.5 -19.5z" />
    <glyph glyph-name="Hcircumflex" unicode="&#x124;" horiz-adv-x="712" 
d="M48 0v39h81v485h-81v39h221v-39h-81v-216h336v216h-82v39h221v-39h-81v-485h81v-39h-221v39h82v227h-336v-227h81v-39h-221zM247 621l84 154h53l83 -154h-41l-69 127l-69 -127h-41z" />
    <glyph glyph-name="hcircumflex" unicode="&#x125;" horiz-adv-x="504" 
d="M11 0v39h73v495h-71v39h125v-234l-18 -3q45 30 87 48.5t86 18.5q55 0 90.5 -33t35.5 -94v-237h74v-39h-202v39h74v233q0 42 -22.5 65.5t-60.5 23.5t-80 -18t-81 -43l17 23v-284h67v-39h-194zM1 632l84 154h53l83 -154h-41l-69 127l-69 -127h-41z" />
    <glyph glyph-name="Hbar" unicode="&#x126;" horiz-adv-x="712" 
d="M76 433h560v-37h-560v37zM48 0v39h81v485h-81v39h221v-39h-81v-216h336v216h-82v39h221v-39h-81v-485h81v-39h-221v39h82v227h-336v-227h81v-39h-221z" />
    <glyph glyph-name="hbar" unicode="&#x127;" horiz-adv-x="504" 
d="M11 0v39h73v495h-71v39h125v-234l-18 -3q45 30 87 48.5t86 18.5q55 0 90.5 -33t35.5 -94v-237h74v-39h-202v39h74v233q0 42 -22.5 65.5t-60.5 23.5t-80 -18t-81 -43l17 23v-284h67v-39h-194zM12 658v34h198v-34h-198z" />
    <glyph glyph-name="Itilde" unicode="&#x128;" horiz-adv-x="327" 
d="M52 0v39h81v485h-81v39h222v-39h-82v-485h82v-39h-222zM223 646q-21 0 -42.5 10t-41.5 19.5t-37 9.5q-26 0 -30 -37h-26q2 38 18.5 57.5t43.5 19.5q19 0 39.5 -9.5t41 -19.5t36.5 -10q13 0 21.5 8.5t10.5 28.5h25q-1 -34 -14.5 -55.5t-44.5 -21.5z" />
    <glyph glyph-name="itilde" unicode="&#x129;" horiz-adv-x="253" 
d="M20 0v39h81v315h-80v39h133v-354h77v-39h-211zM178 476q-21 0 -42.5 10t-41.5 19.5t-37 9.5q-26 0 -30 -37h-26q2 38 18.5 57.5t43.5 19.5q19 0 39.5 -9.5t41 -19.5t36.5 -10q13 0 21.5 8.5t10.5 28.5h25q-1 -34 -14.5 -55.5t-44.5 -21.5z" />
    <glyph glyph-name="Imacron" unicode="&#x12a;" horiz-adv-x="327" 
d="M52 0v39h81v485h-81v39h222v-39h-82v-485h82v-39h-222zM65 647v34h198v-34h-198z" />
    <glyph glyph-name="imacron" unicode="&#x12b;" horiz-adv-x="253" 
d="M20 0v39h81v315h-80v39h133v-354h77v-39h-211zM20 477v34h198v-34h-198z" />
    <glyph glyph-name="Ibreve" unicode="&#x12c;" horiz-adv-x="327" 
d="M52 0v39h81v485h-81v39h222v-39h-82v-485h82v-39h-222zM164 635q-38 -1 -63 22t-30 63h36q11 -51 57 -51q22 0 36.5 13t19.5 38h37q-6 -40 -30.5 -62.5t-62.5 -22.5z" />
    <glyph glyph-name="ibreve" unicode="&#x12d;" horiz-adv-x="253" 
d="M20 0v39h81v315h-80v39h133v-354h77v-39h-211zM119 465q-38 -1 -63 22t-30 63h36q11 -51 57 -51q22 0 36.5 13t19.5 38h37q-6 -40 -30.5 -62.5t-62.5 -22.5z" />
    <glyph glyph-name="Iogonek" unicode="&#x12e;" horiz-adv-x="327" 
d="M52 0v39h81v485h-81v39h222v-39h-82v-485h82v-39h-222zM164 -162q-31 0 -52.5 18.5t-21.5 49.5q0 24 14 47t40 47h34q-22 -22 -34.5 -42.5t-12.5 -40.5q0 -22 13.5 -33t32.5 -11q23 0 46 15v-31q-16 -9 -30 -14t-29 -5z" />
    <glyph glyph-name="iogonek" unicode="&#x12f;" horiz-adv-x="253" 
d="M20 0v39h81v315h-80v39h133v-354h77v-39h-211zM114 -162q-31 0 -52.5 18.5t-21.5 49.5q0 24 14 47t40 47h34q-22 -22 -34.5 -42.5t-12.5 -40.5q0 -22 13.5 -33t32.5 -11q23 0 46 15v-31q-16 -9 -30 -14t-29 -5zM119 470q-18 0 -29 11.5t-11 25.5q0 16 10.5 27t29.5 11
q18 0 28.5 -10.5t10.5 -27.5q1 -13 -9.5 -25t-29.5 -12z" />
    <glyph glyph-name="Idotaccent" unicode="&#x130;" horiz-adv-x="327" 
d="M52 0v39h81v485h-81v39h222v-39h-82v-485h82v-39h-222zM164 640q-18 0 -29 11.5t-11 25.5q0 16 10.5 27t29.5 11q18 0 28.5 -10.5t10.5 -27.5q1 -13 -9.5 -25t-29.5 -12z" />
    <glyph glyph-name="dotlessi" unicode="&#x131;" horiz-adv-x="253" 
d="M20 0v39h81v315h-80v39h133v-354h77v-39h-211z" />
    <glyph glyph-name="IJ" unicode="&#x132;" horiz-adv-x="631" 
d="M52 0v39h81v485h-81v39h222v-39h-82v-485h82v-39h-222zM367 -73v46h60q34 0 43 21.5t9 62.5v467h-72v39h198v-39h-67v-469q0 -47 -11 -75t-34 -40.5t-61 -12.5h-65z" />
    <glyph glyph-name="ij" unicode="&#x133;" horiz-adv-x="482" 
d="M20 0v39h81v315h-80v39h133v-354h78v-39h-212zM119 486q-18 0 -30 11.5t-12 28.5t12 28t30 11t30 -11t12 -28t-12 -28.5t-30 -11.5zM261 -139v42h38q39 0 52 19t13 61v372h-78v38h134v-400q0 -39 -9.5 -69t-35 -46.5t-77.5 -16.5h-37zM380 487q-18 0 -30 11.5t-12 28.5
q0 16 12.5 27t29.5 11q18 0 30 -11t12 -27q0 -17 -12.5 -28.5t-29.5 -11.5z" />
    <glyph glyph-name="Jcircumflex" unicode="&#x134;" horiz-adv-x="304" 
d="M40 -73v46h60q34 0 43 21.5t9 62.5v467h-72v39h198v-39h-67v-469q0 -47 -11 -75t-34 -40.5t-61 -12.5h-65zM72 621l84 154h53l83 -154h-41l-69 127l-69 -127h-41z" />
    <glyph glyph-name="jcircumflex" unicode="&#x135;" horiz-adv-x="226" 
d="M7 -139v42h38q40 0 52.5 19.5t12.5 62.5v369h-83v39h138v-396q0 -29 -4 -54t-17 -43t-36.5 -28.5t-63.5 -10.5h-37zM-6 451l84 154h53l83 -154h-41l-69 127l-69 -127h-41z" />
    <glyph glyph-name="uni0136" unicode="&#x136;" horiz-adv-x="634" 
d="M48 0v39h81v485h-81v39h221v-39h-81v-232l256 232h-69v39h216v-39h-78l-262 -239l273 -246h77v-39h-219v39h70l-264 236v-236h81v-39h-221zM284 -214v23q28 4 37.5 22.5t9.5 48.5h-42v69h74v-73q0 -39 -17.5 -65t-61.5 -25z" />
    <glyph glyph-name="uni0137" unicode="&#x137;" horiz-adv-x="489" 
d="M28 0v39h73v495h-70v39h124v-364l189 145h-75v39h199v-39h-65l-190 -149l175 -166h83v-39h-109l-207 198v-159h68v-39h-195zM224 -214v23q28 4 37.5 22.5t9.5 48.5h-42v69h74v-73q0 -39 -17.5 -65t-61.5 -25z" />
    <glyph glyph-name="kgreenlandic" unicode="&#x138;" horiz-adv-x="495" 
d="M374 0l-211 197l179 157h-70v39h200v-39h-68l-177 -156l172 -159h77v-39h-102zM37 0v39h70v315h-68v39h122v-354h62v-39h-186z" />
    <glyph glyph-name="Lacute" unicode="&#x139;" horiz-adv-x="521" 
d="M48 0v39h81v485h-81v39h221v-39h-81v-485h260v167h47v-206h-447zM144 650l49 135h60l-76 -135h-33z" />
    <glyph glyph-name="lacute" unicode="&#x13a;" horiz-adv-x="244" 
d="M27 0v39h73v495h-70v39h124v-534h68v-39h-195zM112 661l49 135h60l-76 -135h-33z" />
    <glyph glyph-name="uni013B" unicode="&#x13b;" horiz-adv-x="521" 
d="M48 0v39h81v485h-81v39h221v-39h-81v-485h260v167h47v-206h-447zM253 -214v23q28 4 37.5 22.5t9.5 48.5h-42v69h74v-73q0 -39 -17.5 -65t-61.5 -25z" />
    <glyph glyph-name="uni013C" unicode="&#x13c;" horiz-adv-x="244" 
d="M27 0v39h73v495h-70v39h124v-534h68v-39h-195zM87 -214v23q28 4 37.5 22.5t9.5 48.5h-42v69h74v-73q0 -39 -17.5 -65t-61.5 -25z" />
    <glyph glyph-name="Lcaron" unicode="&#x13d;" horiz-adv-x="521" 
d="M48 0v39h81v485h-81v39h221v-39h-81v-485h260v167h47v-206h-447zM418 401v23q24 4 34.5 17.5t10.5 48.5h-43v73h75l-1 -75q1 -39 -16.5 -63t-59.5 -24z" />
    <glyph glyph-name="lcaron" unicode="&#x13e;" horiz-adv-x="274" 
d="M27 0v39h73v495h-70v39h124v-534h68v-39h-195zM192 411v23q24 4 34.5 17.5t10.5 48.5h-43v73h75l-1 -75q1 -39 -16.5 -63t-59.5 -24z" />
    <glyph glyph-name="Ldot" unicode="&#x13f;" horiz-adv-x="521" 
d="M48 0v39h81v485h-81v39h221v-39h-81v-485h260v167h47v-206h-447zM417 327q-18 0 -30.5 11.5t-12.5 28.5q0 18 12.5 29.5t30.5 11.5t30 -11.5t12 -29.5q0 -17 -12 -28.5t-30 -11.5z" />
    <glyph glyph-name="ldot" unicode="&#x140;" horiz-adv-x="244" 
d="M27 0v39h73v495h-70v39h124v-534h68v-39h-195zM251 277q-18 0 -30.5 11.5t-12.5 28.5q0 18 12.5 29.5t30.5 11.5t30 -11.5t12 -29.5q0 -17 -12 -28.5t-30 -11.5z" />
    <glyph glyph-name="Lslash" unicode="&#x141;" horiz-adv-x="521" 
d="M48 204v40l266 141v-42zM48 0v39h81v485h-81v39h221v-39h-81v-485h260v167h47v-206h-447z" />
    <glyph glyph-name="lslash" unicode="&#x142;" horiz-adv-x="240" 
d="M24 204v47l202 114v-49zM27 0v39h73v495h-70v39h124v-534h68v-39h-195z" />
    <glyph glyph-name="Nacute" unicode="&#x143;" horiz-adv-x="704" 
d="M51 0v39h77v485h-77v39h141l363 -484v445h-78v39h196v-39h-71v-524h-59l-368 496v-457h76v-39h-200zM336 650l49 135h60l-76 -135h-33z" />
    <glyph glyph-name="nacute" unicode="&#x144;" horiz-adv-x="508" 
d="M20 0v39h81v315h-80v39h133v-52l-19 -2q42 28 85 46t87 18q54 0 89.5 -33t35.5 -94v-237h74v-39h-202v39h74v233q0 42 -22.5 65.5t-61.5 23.5q-36 0 -76.5 -16.5t-83.5 -43.5l20 24v-286h77v-39h-211zM259 480l49 135h60l-76 -135h-33z" />
    <glyph glyph-name="uni0145" unicode="&#x145;" horiz-adv-x="704" 
d="M51 0v39h77v485h-77v39h141l363 -484v445h-78v39h196v-39h-71v-524h-59l-368 496v-457h76v-39h-200zM336 -214v23q28 4 37.5 22.5t9.5 48.5h-42v69h74v-73q0 -39 -17.5 -65t-61.5 -25z" />
    <glyph glyph-name="uni0146" unicode="&#x146;" horiz-adv-x="508" 
d="M20 0v39h81v315h-80v39h133v-52l-19 -2q42 28 85 46t87 18q54 0 89.5 -33t35.5 -94v-237h74v-39h-202v39h74v233q0 42 -22.5 65.5t-61.5 23.5q-36 0 -76.5 -16.5t-83.5 -43.5l20 24v-286h77v-39h-211zM235 -214v23q28 4 37.5 22.5t9.5 48.5h-42v69h74v-73
q0 -39 -17.5 -65t-61.5 -25z" />
    <glyph glyph-name="Ncaron" unicode="&#x147;" horiz-adv-x="704" 
d="M51 0v39h77v485h-77v39h141l363 -484v445h-78v39h196v-39h-71v-524h-59l-368 496v-457h76v-39h-200zM328 629l-84 151h40l68 -117l66 117h39l-82 -151h-47z" />
    <glyph glyph-name="ncaron" unicode="&#x148;" horiz-adv-x="508" 
d="M20 0v39h81v315h-80v39h133v-52l-19 -2q42 28 85 46t87 18q54 0 89.5 -33t35.5 -94v-237h74v-39h-202v39h74v233q0 42 -22.5 65.5t-61.5 23.5q-36 0 -76.5 -16.5t-83.5 -43.5l20 24v-286h77v-39h-211zM251 459l-84 151h40l68 -117l66 117h39l-82 -151h-47z" />
    <glyph glyph-name="napostrophe" unicode="&#x149;" horiz-adv-x="711" 
d="M100 446v23q24 4 34.5 17.5t10.5 48.5h-43v73h75l-1 -75q1 -39 -16.5 -63t-59.5 -24zM223 0v39h81v315h-80v39h133v-52l-19 -2q42 28 85 46t87 18q54 0 89.5 -33t35.5 -94v-237h74v-39h-202v39h74v233q0 42 -22.5 65.5t-61.5 23.5q-36 0 -76.5 -16.5t-83.5 -43.5l20 24
v-286h77v-39h-211z" />
    <glyph glyph-name="Eng" unicode="&#x14a;" horiz-adv-x="702" 
d="M402 -180v40h12q48 0 78.5 16t45 45.5t14.5 69.5l-380 505v-457h77v-39h-201v39h77v485h-77v39h142l362 -484v445h-78v39h196v-39h-71v-525q0 -61 -23.5 -101t-64.5 -59t-96 -19h-13z" />
    <glyph glyph-name="eng" unicode="&#x14b;" horiz-adv-x="508" 
d="M235 -168v39q75 0 109 33t34 96v272q0 42 -22.5 65.5t-61.5 23.5q-27 0 -63.5 -12.5t-76.5 -34.5v-275h77v-39h-211v39h81v315h-80v39h133v-42q39 24 79 38t74 14q54 0 89.5 -33t35.5 -94v-270q0 -47 -15 -80t-41 -54t-62 -30.5t-79 -9.5z" />
    <glyph glyph-name="Omacron" unicode="&#x14c;" horiz-adv-x="709" 
d="M354 -11q-72 0 -128 24t-94 65.5t-58 93.5t-20 108t20 108.5t58.5 94t94.5 66t127 24.5q72 0 128 -24.5t94.5 -66t58.5 -94t20 -108.5q0 -57 -19.5 -109t-58 -93t-94.5 -65t-129 -24zM354 33q59 0 103.5 20t75 55.5t45.5 79.5t15 92t-15 92.5t-45.5 80t-75 56.5
t-103.5 21t-103 -21t-74 -57t-45 -80.5t-15 -92.5t14.5 -92.5t44.5 -79.5t74.5 -54.5t103.5 -19.5zM254 647v34h198v-34h-198z" />
    <glyph glyph-name="omacron" unicode="&#x14d;" horiz-adv-x="478" 
d="M238 -12q-62 0 -109.5 26.5t-74.5 73.5t-27 110q0 62 27 108.5t74.5 72t109.5 25.5q63 0 111 -25.5t75 -72t27 -108.5t-27 -109.5t-75 -74t-111 -26.5zM238 30q47 0 82.5 21.5t55.5 59t20 87.5q0 49 -20 86t-55.5 57.5t-82.5 20.5q-46 0 -81 -20.5t-55 -57.5t-20 -86
q0 -50 20 -87.5t55 -59t81 -21.5zM138 477v34h198v-34h-198z" />
    <glyph glyph-name="Obreve" unicode="&#x14e;" horiz-adv-x="709" 
d="M354 -11q-72 0 -128 24t-94 65.5t-58 93.5t-20 108t20 108.5t58.5 94t94.5 66t127 24.5q72 0 128 -24.5t94.5 -66t58.5 -94t20 -108.5q0 -57 -19.5 -109t-58 -93t-94.5 -65t-129 -24zM354 33q59 0 103.5 20t75 55.5t45.5 79.5t15 92t-15 92.5t-45.5 80t-75 56.5
t-103.5 21t-103 -21t-74 -57t-45 -80.5t-15 -92.5t14.5 -92.5t44.5 -79.5t74.5 -54.5t103.5 -19.5zM353 635q-38 -1 -63 22t-30 63h36q11 -51 57 -51q22 0 36.5 13t19.5 38h37q-6 -40 -30.5 -62.5t-62.5 -22.5z" />
    <glyph glyph-name="obreve" unicode="&#x14f;" horiz-adv-x="478" 
d="M238 -12q-62 0 -109.5 26.5t-74.5 73.5t-27 110q0 62 27 108.5t74.5 72t109.5 25.5q63 0 111 -25.5t75 -72t27 -108.5t-27 -109.5t-75 -74t-111 -26.5zM238 30q47 0 82.5 21.5t55.5 59t20 87.5q0 49 -20 86t-55.5 57.5t-82.5 20.5q-46 0 -81 -20.5t-55 -57.5t-20 -86
q0 -50 20 -87.5t55 -59t81 -21.5zM237 465q-38 -1 -63 22t-30 63h36q11 -51 57 -51q22 0 36.5 13t19.5 38h37q-6 -40 -30.5 -62.5t-62.5 -22.5z" />
    <glyph glyph-name="Ohungarumlaut" unicode="&#x150;" horiz-adv-x="709" 
d="M354 -11q-72 0 -128 24t-94 65.5t-58 93.5t-20 108t20 108.5t58.5 94t94.5 66t127 24.5q72 0 128 -24.5t94.5 -66t58.5 -94t20 -108.5q0 -57 -19.5 -109t-58 -93t-94.5 -65t-129 -24zM354 33q59 0 103.5 20t75 55.5t45.5 79.5t15 92t-15 92.5t-45.5 80t-75 56.5
t-103.5 21t-103 -21t-74 -57t-45 -80.5t-15 -92.5t14.5 -92.5t44.5 -79.5t74.5 -54.5t103.5 -19.5zM283 650l55 149h60l-81 -149h-34zM400 650l55 149h60l-81 -149h-34z" />
    <glyph glyph-name="ohungarumlaut" unicode="&#x151;" horiz-adv-x="478" 
d="M238 -12q-62 0 -109.5 26.5t-74.5 73.5t-27 110q0 62 27 108.5t74.5 72t109.5 25.5q63 0 111 -25.5t75 -72t27 -108.5t-27 -109.5t-75 -74t-111 -26.5zM238 30q47 0 82.5 21.5t55.5 59t20 87.5q0 49 -20 86t-55.5 57.5t-82.5 20.5q-46 0 -81 -20.5t-55 -57.5t-20 -86
q0 -50 20 -87.5t55 -59t81 -21.5zM167 480l55 149h60l-81 -149h-34zM284 480l55 149h60l-81 -149h-34z" />
    <glyph glyph-name="OE" unicode="&#x152;" horiz-adv-x="953" 
d="M371 0q-98 0 -169 34t-109 97t-39 150q1 88 39 151t109 97t168 34h518v-173h-46v132h-295v-220h200v73h33v-192h-33v78h-200v-221h304v141h46v-181h-526zM374 40h115v482h-115q-79 0 -137 -28.5t-89.5 -82.5t-31.5 -130q0 -74 31.5 -128.5t89.5 -83.5t137 -29z" />
    <glyph glyph-name="oe" unicode="&#x153;" horiz-adv-x="833" 
d="M236 -11q-61 0 -108.5 27t-74 73.5t-26.5 107.5q0 60 27 107t74 73t108 26q65 0 113.5 -29.5t71.5 -80.5q25 55 73.5 82.5t104.5 27.5t99 -23.5t67.5 -69.5t24.5 -113v-13h-343q3 -46 24 -81t56.5 -54.5t80.5 -19.5q40 0 80.5 17.5t65.5 44.5l27 -29q-32 -35 -78 -54
t-97 -19q-60 0 -110 29t-75 82q-24 -50 -72 -80.5t-113 -30.5zM236 30q48 0 83 21t55 59t20 87t-20 86t-55 58t-83 21q-46 0 -81.5 -21t-55 -58t-19.5 -86t19.5 -87t55 -59t81.5 -21zM448 218h292q0 48 -19 80.5t-51 49t-70 16.5q-42 0 -75 -18t-53 -50.5t-24 -77.5z" />
    <glyph glyph-name="Racute" unicode="&#x154;" horiz-adv-x="624" 
d="M48 0v39h81v485h-81v39h301q58 0 97.5 -19t59.5 -52.5t20 -76.5q0 -38 -15 -70.5t-49.5 -53.5t-93.5 -26l139 -226h83v-39h-123l-156 260h-88v41h107q56 0 85.5 17.5t41 43.5t11.5 52q0 28 -11.5 53t-37.5 41t-69 16h-162v-485h81v-39h-221zM288 650l49 135h60l-76 -135
h-33z" />
    <glyph glyph-name="racute" unicode="&#x155;" horiz-adv-x="376" 
d="M44 0v39h81v315h-80v39h133v-120l-12 1q9 47 26.5 74.5t40 39.5t46.5 12q20 0 39 -5t38 -15l-13 -47q-17 10 -32.5 15t-34.5 5q-39 0 -68 -35.5t-29 -99.5l-1 -179h76v-39h-210zM214 480l49 135h60l-76 -135h-33z" />
    <glyph glyph-name="uni0156" unicode="&#x156;" horiz-adv-x="624" 
d="M48 0v39h81v485h-81v39h301q58 0 97.5 -19t59.5 -52.5t20 -76.5q0 -38 -15 -70.5t-49.5 -53.5t-93.5 -26l139 -226h83v-39h-123l-156 260h-88v41h107q56 0 85.5 17.5t41 43.5t11.5 52q0 28 -11.5 53t-37.5 41t-69 16h-162v-485h81v-39h-221zM295 -214v23q28 4 37.5 22.5
t9.5 48.5h-42v69h74v-73q0 -39 -17.5 -65t-61.5 -25z" />
    <glyph glyph-name="uni0157" unicode="&#x157;" horiz-adv-x="376" 
d="M44 0v39h81v315h-80v39h133v-120l-12 1q9 47 26.5 74.5t40 39.5t46.5 12q20 0 39 -5t38 -15l-13 -47q-17 10 -32.5 15t-34.5 5q-39 0 -68 -35.5t-29 -99.5l-1 -179h76v-39h-210zM114 -214v23q28 4 37.5 22.5t9.5 48.5h-42v69h74v-73q0 -39 -17.5 -65t-61.5 -25z" />
    <glyph glyph-name="Rcaron" unicode="&#x158;" horiz-adv-x="624" 
d="M48 0v39h81v485h-81v39h301q58 0 97.5 -19t59.5 -52.5t20 -76.5q0 -38 -15 -70.5t-49.5 -53.5t-93.5 -26l139 -226h83v-39h-123l-156 260h-88v41h107q56 0 85.5 17.5t41 43.5t11.5 52q0 28 -11.5 53t-37.5 41t-69 16h-162v-485h81v-39h-221zM280 629l-84 151h40l68 -117
l66 117h39l-82 -151h-47z" />
    <glyph glyph-name="rcaron" unicode="&#x159;" horiz-adv-x="376" 
d="M44 0v39h81v315h-80v39h133v-120l-12 1q9 47 26.5 74.5t40 39.5t46.5 12q20 0 39 -5t38 -15l-13 -47q-17 10 -32.5 15t-34.5 5q-39 0 -68 -35.5t-29 -99.5l-1 -179h76v-39h-210zM206 459l-84 151h40l68 -117l66 117h39l-82 -151h-47z" />
    <glyph glyph-name="Sacute" unicode="&#x15a;" horiz-adv-x="536" 
d="M305 -10q-46 0 -84 12.5t-64.5 36t-39.5 55.5h9v-94h-48v190h45q3 -47 22.5 -82.5t58.5 -55.5t99 -20q62 0 95 29t33 81q0 38 -12.5 60.5t-41.5 35.5t-78 20l-49 7q-82 13 -128 50t-46 109q0 47 21 80.5t61 51.5t95 18q65 0 111.5 -27.5t61.5 -73.5h-15v90h48v-155h-45
q-2 31 -18 59t-50.5 46t-90.5 18q-61 0 -93.5 -28.5t-32.5 -74.5q0 -53 34.5 -77t96.5 -35l49 -7q60 -9 99 -27.5t57.5 -50.5t18.5 -82q0 -44 -21 -80.5t-60.5 -57.5t-97.5 -21zM262 650l49 135h60l-76 -135h-33z" />
    <glyph glyph-name="sacute" unicode="&#x15b;" horiz-adv-x="438" 
d="M245 -10q-34 0 -65.5 8.5t-53 23.5t-31.5 33l13 -11v-44h-44v128h40l5 -66l-16 43q17 -38 57.5 -57.5t88.5 -19.5q44 0 73 18t29 50q0 38 -24.5 52.5t-78.5 25.5l-60 13q-51 12 -82 34.5t-31 74.5t41.5 79.5t102.5 27.5q26 0 53 -7t50 -21t34 -34l-16 9v44h44v-132h-40
l-9 88l14 -49q-5 18 -24.5 31.5t-45.5 22.5t-53 9q-38 0 -67.5 -16t-29.5 -50q0 -29 22 -43t62 -23l57 -12q42 -10 71.5 -23t45 -35.5t15.5 -61.5q0 -38 -21 -62.5t-55 -36t-71 -11.5zM218 480l49 135h60l-76 -135h-33z" />
    <glyph glyph-name="Scircumflex" unicode="&#x15c;" horiz-adv-x="536" 
d="M305 -10q-46 0 -84 12.5t-64.5 36t-39.5 55.5h9v-94h-48v190h45q3 -47 22.5 -82.5t58.5 -55.5t99 -20q62 0 95 29t33 81q0 38 -12.5 60.5t-41.5 35.5t-78 20l-49 7q-82 13 -128 50t-46 109q0 47 21 80.5t61 51.5t95 18q65 0 111.5 -27.5t61.5 -73.5h-15v90h48v-155h-45
q-2 31 -18 59t-50.5 46t-90.5 18q-61 0 -93.5 -28.5t-32.5 -74.5q0 -53 34.5 -77t96.5 -35l49 -7q60 -9 99 -27.5t57.5 -50.5t18.5 -82q0 -44 -21 -80.5t-60.5 -57.5t-97.5 -21zM167 621l84 154h53l83 -154h-41l-69 127l-69 -127h-41z" />
    <glyph glyph-name="scircumflex" unicode="&#x15d;" horiz-adv-x="438" 
d="M245 -10q-34 0 -65.5 8.5t-53 23.5t-31.5 33l13 -11v-44h-44v128h40l5 -66l-16 43q17 -38 57.5 -57.5t88.5 -19.5q44 0 73 18t29 50q0 38 -24.5 52.5t-78.5 25.5l-60 13q-51 12 -82 34.5t-31 74.5t41.5 79.5t102.5 27.5q26 0 53 -7t50 -21t34 -34l-16 9v44h44v-132h-40
l-9 88l14 -49q-5 18 -24.5 31.5t-45.5 22.5t-53 9q-38 0 -67.5 -16t-29.5 -50q0 -29 22 -43t62 -23l57 -12q42 -10 71.5 -23t45 -35.5t15.5 -61.5q0 -38 -21 -62.5t-55 -36t-71 -11.5zM123 451l84 154h53l83 -154h-41l-69 127l-69 -127h-41z" />
    <glyph glyph-name="Scedilla" unicode="&#x15e;" horiz-adv-x="536" 
d="M305 -10q-46 0 -84 12.5t-64.5 36t-39.5 55.5h9v-94h-48v190h45q3 -47 22.5 -82.5t58.5 -55.5t99 -20q62 0 95 29t33 81q0 38 -12.5 60.5t-41.5 35.5t-78 20l-49 7q-82 13 -128 50t-46 109q0 47 21 80.5t61 51.5t95 18q65 0 111.5 -27.5t61.5 -73.5h-15v90h48v-155h-45
q-2 31 -18 59t-50.5 46t-90.5 18q-61 0 -93.5 -28.5t-32.5 -74.5q0 -53 34.5 -77t96.5 -35l49 -7q60 -9 99 -27.5t57.5 -50.5t18.5 -82q0 -44 -21 -80.5t-60.5 -57.5t-97.5 -21zM302 -162q-36 0 -71 17v22q14 -4 27 -6t23 -2q17 0 27.5 5.5t10.5 18.5t-13 20.5t-46 8.5
l31 78h25l-17 -57q35 -2 51.5 -17t16.5 -36q0 -28 -19.5 -40t-45.5 -12z" />
    <glyph glyph-name="scedilla" unicode="&#x15f;" horiz-adv-x="438" 
d="M245 -10q-34 0 -65.5 8.5t-53 23.5t-31.5 33l13 -11v-44h-44v128h40l5 -66l-16 43q17 -38 57.5 -57.5t88.5 -19.5q44 0 73 18t29 50q0 38 -24.5 52.5t-78.5 25.5l-60 13q-51 12 -82 34.5t-31 74.5t41.5 79.5t102.5 27.5q26 0 53 -7t50 -21t34 -34l-16 9v44h44v-132h-40
l-9 88l14 -49q-5 18 -24.5 31.5t-45.5 22.5t-53 9q-38 0 -67.5 -16t-29.5 -50q0 -29 22 -43t62 -23l57 -12q42 -10 71.5 -23t45 -35.5t15.5 -61.5q0 -38 -21 -62.5t-55 -36t-71 -11.5zM230 -162q-36 0 -71 17v22q14 -4 27 -6t23 -2q17 0 27.5 5.5t10.5 18.5t-13 20.5
t-46 8.5l31 78h25l-17 -57q35 -2 51.5 -17t16.5 -36q0 -28 -19.5 -40t-45.5 -12z" />
    <glyph glyph-name="Scaron" unicode="&#x160;" horiz-adv-x="536" 
d="M305 -10q-46 0 -84 12.5t-64.5 36t-39.5 55.5h9v-94h-48v190h45q3 -47 22.5 -82.5t58.5 -55.5t99 -20q62 0 95 29t33 81q0 38 -12.5 60.5t-41.5 35.5t-78 20l-49 7q-82 13 -128 50t-46 109q0 47 21 80.5t61 51.5t95 18q65 0 111.5 -27.5t61.5 -73.5h-15v90h48v-155h-45
q-2 31 -18 59t-50.5 46t-90.5 18q-61 0 -93.5 -28.5t-32.5 -74.5q0 -53 34.5 -77t96.5 -35l49 -7q60 -9 99 -27.5t57.5 -50.5t18.5 -82q0 -44 -21 -80.5t-60.5 -57.5t-97.5 -21zM254 629l-84 151h40l68 -117l66 117h39l-82 -151h-47z" />
    <glyph glyph-name="scaron" unicode="&#x161;" horiz-adv-x="438" 
d="M245 -10q-34 0 -65.5 8.5t-53 23.5t-31.5 33l13 -11v-44h-44v128h40l5 -66l-16 43q17 -38 57.5 -57.5t88.5 -19.5q44 0 73 18t29 50q0 38 -24.5 52.5t-78.5 25.5l-60 13q-51 12 -82 34.5t-31 74.5t41.5 79.5t102.5 27.5q26 0 53 -7t50 -21t34 -34l-16 9v44h44v-132h-40
l-9 88l14 -49q-5 18 -24.5 31.5t-45.5 22.5t-53 9q-38 0 -67.5 -16t-29.5 -50q0 -29 22 -43t62 -23l57 -12q42 -10 71.5 -23t45 -35.5t15.5 -61.5q0 -38 -21 -62.5t-55 -36t-71 -11.5zM210 459l-84 151h40l68 -117l66 117h39l-82 -151h-47z" />
    <glyph glyph-name="uni0162" unicode="&#x162;" horiz-adv-x="559" 
d="M169 0v39h81v485h-180v-153h-45v192h509v-192h-46v153h-180v-485h81v-39h-220zM278 -162q-36 0 -71 17v22q14 -4 27 -6t23 -2q17 0 27.5 5.5t10.5 18.5t-13 20.5t-46 8.5l31 78h25l-17 -57q35 -2 51.5 -17t16.5 -36q0 -28 -19.5 -40t-45.5 -12z" />
    <glyph glyph-name="uni0163" unicode="&#x163;" horiz-adv-x="293" 
d="M207 0q-55 0 -86.5 26t-31.5 86v242h-69v39h69v135l54 20v-155h109v-39h-109v-239q0 -42 16.5 -59t55.5 -17h50v-39h-58zM190 -160q-36 0 -71 17v22q14 -4 27 -6t23 -2q17 0 27.5 5.5t10.5 18.5t-13 20.5t-46 8.5l31 78h25l-17 -57q35 -2 51.5 -17t16.5 -36
q0 -28 -19.5 -40t-45.5 -12z" />
    <glyph glyph-name="Tcaron" unicode="&#x164;" horiz-adv-x="559" 
d="M169 0v39h81v485h-180v-153h-45v192h509v-192h-46v153h-180v-485h81v-39h-220zM255 629l-84 151h40l68 -117l66 117h39l-82 -151h-47z" />
    <glyph glyph-name="tcaron" unicode="&#x165;" horiz-adv-x="293" 
d="M207 0q-55 0 -86.5 26t-31.5 86v242h-69v39h69v135l54 20v-155h109v-39h-109v-239q0 -42 16.5 -59t55.5 -17h50v-39h-58zM195 441v23q24 4 34.5 17.5t10.5 48.5h-43v73h75l-1 -75q1 -39 -16.5 -63t-59.5 -24z" />
    <glyph glyph-name="Tbar" unicode="&#x166;" horiz-adv-x="559" 
d="M179 264v34h199v-34h-199zM169 0v39h81v485h-180v-153h-45v192h509v-192h-46v153h-180v-485h81v-39h-220z" />
    <glyph glyph-name="tbar" unicode="&#x167;" horiz-adv-x="293" 
d="M20 207v33h220v-33h-220zM207 0q-55 0 -86.5 26t-31.5 86v242h-69v39h69v135l54 20v-155h109v-39h-109v-239q0 -42 16.5 -59t55.5 -17h50v-39h-58z" />
    <glyph glyph-name="Utilde" unicode="&#x168;" horiz-adv-x="696" 
d="M347 -10q-79 0 -132 26t-80 72.5t-27 106.5v329h-74v39h208v-39h-75v-335q0 -47 22 -82t63 -54t96 -19q60 0 103.5 18.5t67.5 53.5t24 83v335h-74v39h201v-39h-76v-334q0 -64 -31.5 -109t-87 -68t-128.5 -23zM413 646q-21 0 -42.5 10t-41.5 19.5t-37 9.5q-26 0 -30 -37
h-26q2 38 18.5 57.5t43.5 19.5q19 0 39.5 -9.5t41 -19.5t36.5 -10q13 0 21.5 8.5t10.5 28.5h25q-1 -34 -14.5 -55.5t-44.5 -21.5z" />
    <glyph glyph-name="utilde" unicode="&#x169;" 
d="M211 -10q-47 0 -75 18.5t-39.5 47.5t-11.5 58v240h-71v39h125v-275q0 -36 20 -60.5t62 -24.5q50 0 89.5 21t77.5 57l-24 -33v276h-72v39h126v-354h73v-39h-124l-3 64l26 5q-41 -37 -85.5 -58t-93.5 -21zM298 476q-21 0 -42.5 10t-41.5 19.5t-37 9.5q-26 0 -30 -37h-26
q2 38 18.5 57.5t43.5 19.5q19 0 39.5 -9.5t41 -19.5t36.5 -10q13 0 21.5 8.5t10.5 28.5h25q-1 -34 -14.5 -55.5t-44.5 -21.5z" />
    <glyph glyph-name="Umacron" unicode="&#x16a;" horiz-adv-x="696" 
d="M347 -10q-79 0 -132 26t-80 72.5t-27 106.5v329h-74v39h208v-39h-75v-335q0 -47 22 -82t63 -54t96 -19q60 0 103.5 18.5t67.5 53.5t24 83v335h-74v39h201v-39h-76v-334q0 -64 -31.5 -109t-87 -68t-128.5 -23zM255 647v34h198v-34h-198z" />
    <glyph glyph-name="umacron" unicode="&#x16b;" 
d="M211 -10q-47 0 -75 18.5t-39.5 47.5t-11.5 58v240h-71v39h125v-275q0 -36 20 -60.5t62 -24.5q50 0 89.5 21t77.5 57l-24 -33v276h-72v39h126v-354h73v-39h-124l-3 64l26 5q-41 -37 -85.5 -58t-93.5 -21zM140 477v34h198v-34h-198z" />
    <glyph glyph-name="Ubreve" unicode="&#x16c;" horiz-adv-x="696" 
d="M347 -10q-79 0 -132 26t-80 72.5t-27 106.5v329h-74v39h208v-39h-75v-335q0 -47 22 -82t63 -54t96 -19q60 0 103.5 18.5t67.5 53.5t24 83v335h-74v39h201v-39h-76v-334q0 -64 -31.5 -109t-87 -68t-128.5 -23zM354 635q-38 -1 -63 22t-30 63h36q11 -51 57 -51
q22 0 36.5 13t19.5 38h37q-6 -40 -30.5 -62.5t-62.5 -22.5z" />
    <glyph glyph-name="ubreve" unicode="&#x16d;" 
d="M211 -10q-47 0 -75 18.5t-39.5 47.5t-11.5 58v240h-71v39h125v-275q0 -36 20 -60.5t62 -24.5q50 0 89.5 21t77.5 57l-24 -33v276h-72v39h126v-354h73v-39h-124l-3 64l26 5q-41 -37 -85.5 -58t-93.5 -21zM239 465q-38 -1 -63 22t-30 63h36q11 -51 57 -51q22 0 36.5 13
t19.5 38h37q-6 -40 -30.5 -62.5t-62.5 -22.5z" />
    <glyph glyph-name="Uring" unicode="&#x16e;" horiz-adv-x="696" 
d="M347 -10q-79 0 -132 26t-80 72.5t-27 106.5v329h-74v39h208v-39h-75v-335q0 -47 22 -82t63 -54t96 -19q60 0 103.5 18.5t67.5 53.5t24 83v335h-74v39h201v-39h-76v-334q0 -64 -31.5 -109t-87 -68t-128.5 -23zM354 614q-33 0 -52 19t-18 48q0 28 18.5 46.5t51.5 18.5
q34 0 52 -18.5t18 -46.5q0 -29 -18.5 -48t-51.5 -19zM354 637q20 0 31.5 12.5t11.5 31.5q0 18 -11.5 29.5t-31.5 11.5t-31.5 -11.5t-11.5 -29.5q0 -19 11.5 -31.5t31.5 -12.5z" />
    <glyph glyph-name="uring" unicode="&#x16f;" 
d="M211 -10q-47 0 -75 18.5t-39.5 47.5t-11.5 58v240h-71v39h125v-275q0 -36 20 -60.5t62 -24.5q50 0 89.5 21t77.5 57l-24 -33v276h-72v39h126v-354h73v-39h-124l-3 64l26 5q-41 -37 -85.5 -58t-93.5 -21zM239 444q-33 0 -52 19t-18 48q0 28 18.5 46.5t51.5 18.5
q34 0 52 -18.5t18 -46.5q0 -29 -18.5 -48t-51.5 -19zM239 467q20 0 31.5 12.5t11.5 31.5q0 18 -11.5 29.5t-31.5 11.5t-31.5 -11.5t-11.5 -29.5q0 -19 11.5 -31.5t31.5 -12.5z" />
    <glyph glyph-name="Uhungarumlaut" unicode="&#x170;" horiz-adv-x="696" 
d="M347 -10q-79 0 -132 26t-80 72.5t-27 106.5v329h-74v39h208v-39h-75v-335q0 -47 22 -82t63 -54t96 -19q60 0 103.5 18.5t67.5 53.5t24 83v335h-74v39h201v-39h-76v-334q0 -64 -31.5 -109t-87 -68t-128.5 -23zM284 650l55 149h60l-81 -149h-34zM401 650l55 149h60
l-81 -149h-34z" />
    <glyph glyph-name="uhungarumlaut" unicode="&#x171;" 
d="M211 -10q-47 0 -75 18.5t-39.5 47.5t-11.5 58v240h-71v39h125v-275q0 -36 20 -60.5t62 -24.5q50 0 89.5 21t77.5 57l-24 -33v276h-72v39h126v-354h73v-39h-124l-3 64l26 5q-41 -37 -85.5 -58t-93.5 -21zM169 480l55 149h60l-81 -149h-34zM286 480l55 149h60l-81 -149h-34
z" />
    <glyph glyph-name="Uogonek" unicode="&#x172;" horiz-adv-x="696" 
d="M347 -10q-79 0 -132 26t-80 72.5t-27 106.5v329h-74v39h208v-39h-75v-335q0 -47 22 -82t63 -54t96 -19q60 0 103.5 18.5t67.5 53.5t24 83v335h-74v39h201v-39h-76v-334q0 -64 -31.5 -109t-87 -68t-128.5 -23zM350 -162q-31 0 -52.5 18.5t-21.5 49.5q0 24 14 47t40 47h34
q-22 -22 -34.5 -42.5t-12.5 -40.5q0 -22 13.5 -33t32.5 -11q23 0 46 15v-31q-16 -9 -30 -14t-29 -5z" />
    <glyph glyph-name="uogonek" unicode="&#x173;" 
d="M211 -10q-47 0 -75 18.5t-39.5 47.5t-11.5 58v240h-71v39h125v-275q0 -36 20 -60.5t62 -24.5q50 0 89.5 21t77.5 57l-24 -33v276h-72v39h126v-354h73v-39h-124l-3 64l26 5q-41 -37 -85.5 -58t-93.5 -21zM442 -152q-31 0 -52.5 18.5t-21.5 49.5q0 24 14 47t40 47h34
q-22 -22 -34.5 -42.5t-12.5 -40.5q0 -22 13.5 -33t32.5 -11q23 0 46 15v-31q-16 -9 -30 -14t-29 -5z" />
    <glyph glyph-name="Wcircumflex" unicode="&#x174;" horiz-adv-x="936" 
d="M268 0l-171 524h-68v39h201v-39h-75l142 -449l154 470h43l153 -470l139 449h-74v39h195v-39h-70l-166 -524h-53l-148 450l-149 -450h-53zM363 603l84 154h53l83 -154h-41l-69 127l-69 -127h-41z" />
    <glyph glyph-name="wcircumflex" unicode="&#x175;" horiz-adv-x="735" 
d="M198 0l-128 354h-58v39h175v-39h-64l107 -304l108 304h-62v39h184v-39h-63l111 -304l101 304h-61v39h171v-39h-61l-122 -354h-55l-114 309l-113 -309h-56zM258 451l84 154h53l83 -154h-41l-69 127l-69 -127h-41z" />
    <glyph glyph-name="Ycircumflex" unicode="&#x176;" horiz-adv-x="624" 
d="M202 0v39h82v196l-198 289h-75v39h211v-39h-72l168 -249l164 249h-74v39h205v-39h-76l-195 -289v-196h83v-39h-223zM207 621l84 154h53l83 -154h-41l-69 127l-69 -127h-41z" />
    <glyph glyph-name="ycircumflex" unicode="&#x177;" horiz-adv-x="521" 
d="M107 -143v45h43q27 0 43 4t27 17.5t21 39.5l25 64h-25l-150 327h-76v39h195v-39h-64l131 -295l120 295h-74v39h192v-39h-64l-161 -388q-15 -39 -30 -62.5t-39 -35t-68 -11.5h-46zM157 451l84 154h53l83 -154h-41l-69 127l-69 -127h-41z" />
    <glyph glyph-name="Ydieresis" unicode="&#x178;" horiz-adv-x="624" 
d="M202 0v39h82v196l-198 289h-75v39h211v-39h-72l168 -249l164 249h-74v39h205v-39h-76l-195 -289v-196h83v-39h-223zM229 639q-16 0 -25.5 9.5t-9.5 24.5t9.5 24t25.5 9t25 -9t9 -25q0 -14 -9 -23.5t-25 -9.5zM405 639q-15 0 -24.5 9t-9.5 24q0 16 9.5 25t24.5 9
q16 0 25.5 -9t9.5 -25q0 -15 -9.5 -24t-25.5 -9z" />
    <glyph glyph-name="Zacute" unicode="&#x179;" horiz-adv-x="588" 
d="M65 0v42l382 482h-323v-140h-44v179h437v-38l-383 -486h348v148h45v-187h-462zM284 650l49 135h60l-76 -135h-33z" />
    <glyph glyph-name="zacute" unicode="&#x17a;" horiz-adv-x="449" 
d="M59 0v40l266 315h-214v-87h-43v125h317v-43l-263 -313h226v99h44v-136h-333zM217 480l49 135h60l-76 -135h-33z" />
    <glyph glyph-name="Zdotaccent" unicode="&#x17b;" horiz-adv-x="588" 
d="M65 0v42l382 482h-323v-140h-44v179h437v-38l-383 -486h348v148h45v-187h-462zM299 640q-18 0 -29 11.5t-11 25.5q0 16 10.5 27t29.5 11q18 0 28.5 -10.5t10.5 -27.5q1 -13 -9.5 -25t-29.5 -12z" />
    <glyph glyph-name="zdotaccent" unicode="&#x17c;" horiz-adv-x="449" 
d="M59 0v40l266 315h-214v-87h-43v125h317v-43l-263 -313h226v99h44v-136h-333zM232 470q-18 0 -29 11.5t-11 25.5q0 16 10.5 27t29.5 11q18 0 28.5 -10.5t10.5 -27.5q1 -13 -9.5 -25t-29.5 -12z" />
    <glyph glyph-name="Zcaron" unicode="&#x17d;" horiz-adv-x="588" 
d="M65 0v42l382 482h-323v-140h-44v179h437v-38l-383 -486h348v148h45v-187h-462zM276 629l-84 151h40l68 -117l66 117h39l-82 -151h-47z" />
    <glyph glyph-name="zcaron" unicode="&#x17e;" horiz-adv-x="449" 
d="M59 0v40l266 315h-214v-87h-43v125h317v-43l-263 -313h226v99h44v-136h-333zM209 459l-84 151h40l68 -117l66 117h39l-82 -151h-47z" />
    <glyph glyph-name="uni018F" unicode="&#x18f;" horiz-adv-x="669" 
d="M324 -11q-81 0 -143.5 33.5t-98 98t-35.5 157.5v19h517l-1 -42h-455q0 -72 30 -121.5t79.5 -74.5t107.5 -25q64 0 115.5 29.5t82 84t30.5 129.5q0 77 -30 133.5t-82.5 88t-120.5 31.5q-71 0 -130 -28t-107 -72l-25 34q33 30 72.5 55t87.5 39.5t104 14.5q60 0 113 -20.5
t93.5 -58.5t63.5 -92t23 -121q0 -70 -23.5 -124t-64 -91.5t-93 -57t-110.5 -19.5z" />
    <glyph glyph-name="florin" unicode="&#x192;" horiz-adv-x="326" 
d="M27 -155q-19 0 -36.5 5t-30.5 11l7 45q14 -10 27 -14.5t28 -4.5q26 0 40 15.5t20 50.5l80 520q8 49 34.5 75t71.5 26q21 0 37.5 -4.5t28.5 -11.5l-6 -44q-13 9 -26 13.5t-27 4.5q-27 0 -41.5 -15.5t-20.5 -50.5l-81 -520q-7 -52 -33 -76.5t-72 -24.5zM54 304l5 39h237
l-5 -39h-237z" />
    <glyph glyph-name="Ohorn" unicode="&#x1a0;" horiz-adv-x="709" 
d="M354 -11q-72 0 -128 24t-94 65.5t-58 93.5t-20 108t20 109t58.5 94t94.5 66t127 25q33 0 54.5 -3.5t46.5 -3.5q28 0 48 15t23 50h59q-6 -46 -36 -72.5t-77 -26.5l-1 20q60 -22 101 -64.5t62 -96.5t21 -112q0 -57 -19.5 -109t-58 -93t-94.5 -65t-129 -24zM354 33
q59 0 103.5 20t75 55.5t45.5 79.5t15 92t-15 92.5t-45.5 80.5t-75 57t-103.5 21t-103 -21t-74 -57t-45 -80.5t-15 -93.5q0 -48 14.5 -92.5t44.5 -79.5t74.5 -54.5t103.5 -19.5z" />
    <glyph glyph-name="ohorn" unicode="&#x1a1;" horiz-adv-x="478" 
d="M238 -12q-62 0 -109.5 26.5t-74.5 73.5t-27 110q0 62 27 108.5t74.5 72t109.5 25.5q63 0 111 -25.5t75 -72t27 -108.5t-27 -109.5t-75 -74t-111 -26.5zM238 30q47 0 82.5 21.5t55.5 59t20 87.5q0 49 -20 86t-55.5 57.5t-82.5 20.5q-46 0 -81 -20.5t-55 -57.5t-20 -86
q0 -50 20 -87.5t55 -59t81 -21.5zM274 358v34h10q28 0 48 15t23 52h58q-6 -47 -37 -74t-81 -27h-21z" />
    <glyph glyph-name="Uhorn" unicode="&#x1af;" horiz-adv-x="696" 
d="M347 -10q-79 0 -132 26t-80 72.5t-27 106.5v329h-74v39h208v-39h-75v-335q0 -47 22 -82t63 -54t96 -19q60 0 103.5 18.5t67.5 53.5t24 83v335h-74v39h125v-373q0 -64 -31.5 -109t-87 -68t-128.5 -23zM543 529v34h9q28 0 48 15.5t23 51.5h59q-6 -46 -37.5 -73.5
t-80.5 -27.5h-21z" />
    <glyph glyph-name="uhorn" unicode="&#x1b0;" 
d="M211 -10q-47 0 -75 18.5t-39.5 47.5t-11.5 58v240h-71v39h125v-275q0 -36 20 -60.5t62 -24.5q50 0 89.5 21t77.5 57l-24 -33v276h-72v39h126v-354h73v-39h-124l-3 64l26 5q-41 -37 -85.5 -58t-93.5 -21zM347 359v34h10q28 0 48 15t23 52h58q-6 -47 -37 -74t-81 -27h-21z
" />
    <glyph glyph-name="uni01C4" unicode="&#x1c4;" horiz-adv-x="1278" 
d="M49 0v39h81v485h-81v39h319q69 0 119 -24.5t83.5 -65.5t49.5 -90.5t16 -98.5q0 -56 -16.5 -107t-50 -90.5t-83.5 -63t-116 -23.5h-321zM189 39h174q55 0 95.5 20t66.5 54.5t38.5 78t12.5 90.5q0 45 -13 87.5t-39 77.5t-65.5 56t-92.5 21h-177v-485zM755 0v42l382 482
h-323v-140h-44v179h437v-38l-383 -486h348v148h45v-187h-462zM966 629l-84 151h40l68 -117l66 117h39l-82 -151h-47z" />
    <glyph glyph-name="uni01C5" unicode="&#x1c5;" horiz-adv-x="1139" 
d="M49 0v39h81v485h-81v39h319q69 0 119 -24.5t83.5 -65.5t49.5 -90.5t16 -98.5q0 -56 -16.5 -107t-50 -90.5t-83.5 -63t-116 -23.5h-321zM189 39h174q55 0 95.5 20t66.5 54.5t38.5 78t12.5 90.5q0 45 -13 87.5t-39 77.5t-65.5 56t-92.5 21h-177v-485zM749 0v40l266 315
h-214v-87h-43v125h317v-43l-263 -313h226v99h44v-136h-333zM899 459l-84 151h40l68 -117l66 117h39l-82 -151h-47z" />
    <glyph glyph-name="uni01C6" unicode="&#x1c6;" horiz-adv-x="955" 
d="M233 -11q-57 0 -103 25.5t-73.5 72.5t-27.5 110q0 65 26.5 110.5t71.5 70.5t101 25q45 0 88.5 -17t72.5 -49l-22 2v195h-68v39h122v-534h64v-39h-118v52l22 2q-29 -29 -68.5 -47t-87.5 -18zM243 30q43 0 80.5 18t66.5 46l-23 -31v267l23 -34q-31 32 -72 49t-81 17
q-44 0 -78.5 -20.5t-54 -58.5t-19.5 -91q0 -50 21 -86t56.5 -56t80.5 -20zM565 0v40l266 315h-214v-87h-43v125h317v-43l-263 -313h226v99h44v-136h-333zM714 459l-84 151h40l68 -117l66 117h39l-82 -151h-47z" />
    <glyph glyph-name="uni01C7" unicode="&#x1c7;" horiz-adv-x="826" 
d="M48 0v39h81v485h-81v39h221v-39h-81v-485h260v167h47v-206h-447zM561 -73v46h60q34 0 43 21.5t9 62.5v467h-72v39h198v-39h-67v-469q0 -47 -11 -75t-34 -40.5t-61 -12.5h-65z" />
    <glyph glyph-name="uni01C8" unicode="&#x1c8;" horiz-adv-x="750" 
d="M48 0v39h81v485h-81v39h221v-39h-81v-485h260v167h47v-206h-447zM528 -139v42h38q39 0 52 19t13 61v372h-78v38h134v-400q0 -39 -9.5 -69t-35 -46.5t-77.5 -16.5h-37zM647 487q-18 0 -30 11.5t-12 28.5q0 16 12.5 27t29.5 11q18 0 30 -11t12 -27q0 -17 -12.5 -28.5
t-29.5 -11.5z" />
    <glyph glyph-name="uni01C9" unicode="&#x1c9;" horiz-adv-x="472" 
d="M27 0v39h73v495h-70v39h124v-534h68v-39h-195zM251 -139v42h38q39 0 52 19t13 61v372h-78v38h134v-400q0 -39 -9.5 -69t-35 -46.5t-77.5 -16.5h-37zM370 487q-18 0 -30 11.5t-12 28.5q0 16 12.5 27t29.5 11q18 0 30 -11t12 -27q0 -17 -12.5 -28.5t-29.5 -11.5z" />
    <glyph glyph-name="uni01CA" unicode="&#x1ca;" horiz-adv-x="1009" 
d="M51 0v39h77v485h-77v39h141l363 -484v445h-78v39h196v-39h-71v-524h-59l-368 496v-457h76v-39h-200zM744 -73v46h60q34 0 43 21.5t9 62.5v467h-72v39h198v-39h-67v-469q0 -47 -11 -75t-34 -40.5t-61 -12.5h-65z" />
    <glyph glyph-name="uni01CB" unicode="&#x1cb;" horiz-adv-x="933" 
d="M51 0v39h77v485h-77v39h141l363 -484v445h-78v39h196v-39h-71v-524h-59l-368 496v-457h76v-39h-200zM711 -139v42h38q39 0 52 19t13 61v372h-78v38h134v-400q0 -39 -9.5 -69t-35 -46.5t-77.5 -16.5h-37zM830 487q-18 0 -30 11.5t-12 28.5q0 16 12.5 27t29.5 11
q18 0 30 -11t12 -27q0 -17 -12.5 -28.5t-29.5 -11.5z" />
    <glyph glyph-name="uni01CC" unicode="&#x1cc;" horiz-adv-x="736" 
d="M20 0v39h81v315h-80v39h133v-52l-19 -2q42 28 85 46t87 18q54 0 89.5 -33t35.5 -94v-237h74v-39h-202v39h74v233q0 42 -22.5 65.5t-61.5 23.5q-36 0 -76.5 -16.5t-83.5 -43.5l20 24v-286h77v-39h-211zM515 -139v42h38q39 0 52 19t13 61v372h-78v38h134v-400
q0 -39 -9.5 -69t-35 -46.5t-77.5 -16.5h-37zM634 487q-18 0 -30 11.5t-12 28.5q0 16 12.5 27t29.5 11q18 0 30 -11t12 -27q0 -17 -12.5 -28.5t-29.5 -11.5z" />
    <glyph glyph-name="uni01CD" unicode="&#x1cd;" horiz-adv-x="675" 
d="M34 0v39h74l176 485h-66v39h241v-39h-69l179 -485h71v-39h-207v39h74l-66 186h-212l-66 -186h74v-39h-203zM241 264h188l-92 258h-4zM315 629l-84 151h40l68 -117l66 117h39l-82 -151h-47z" />
    <glyph glyph-name="uni01CE" unicode="&#x1ce;" horiz-adv-x="450" 
d="M173 -11q-60 0 -97 33.5t-37 83.5q0 45 20.5 71t54.5 37t74 11q36 0 74 -5.5t75 -14.5l-23 -5v60q0 53 -28.5 78t-74.5 25q-31 0 -67.5 -9.5t-68.5 -25.5l-16 37q37 20 78.5 29t72.5 9q56 0 90.5 -18.5t50.5 -49.5t16 -68v-228h62v-39h-107l-7 52h21q-43 -32 -81.5 -47.5
t-81.5 -15.5zM180 27q37 0 74 15t83 47l-23 -26v124l19 -14q-33 9 -69 14t-73 5q-38 0 -69 -18t-31 -66q0 -33 23 -57t66 -24zM194 459l-84 151h40l68 -117l66 117h39l-82 -151h-47z" />
    <glyph glyph-name="uni01CF" unicode="&#x1cf;" horiz-adv-x="327" 
d="M52 0v39h81v485h-81v39h222v-39h-82v-485h82v-39h-222zM141 629l-84 151h40l68 -117l66 117h39l-82 -151h-47z" />
    <glyph glyph-name="uni01D0" unicode="&#x1d0;" horiz-adv-x="253" 
d="M20 0v39h81v315h-80v39h133v-354h77v-39h-211zM96 459l-84 151h40l68 -117l66 117h39l-82 -151h-47z" />
    <glyph glyph-name="uni01D1" unicode="&#x1d1;" horiz-adv-x="709" 
d="M354 -11q-72 0 -128 24t-94 65.5t-58 93.5t-20 108t20 108.5t58.5 94t94.5 66t127 24.5q72 0 128 -24.5t94.5 -66t58.5 -94t20 -108.5q0 -57 -19.5 -109t-58 -93t-94.5 -65t-129 -24zM354 33q59 0 103.5 20t75 55.5t45.5 79.5t15 92t-15 92.5t-45.5 80t-75 56.5
t-103.5 21t-103 -21t-74 -57t-45 -80.5t-15 -92.5t14.5 -92.5t44.5 -79.5t74.5 -54.5t103.5 -19.5zM330 629l-84 151h40l68 -117l66 117h39l-82 -151h-47z" />
    <glyph glyph-name="uni01D2" unicode="&#x1d2;" horiz-adv-x="478" 
d="M238 -12q-62 0 -109.5 26.5t-74.5 73.5t-27 110q0 62 27 108.5t74.5 72t109.5 25.5q63 0 111 -25.5t75 -72t27 -108.5t-27 -109.5t-75 -74t-111 -26.5zM238 30q47 0 82.5 21.5t55.5 59t20 87.5q0 49 -20 86t-55.5 57.5t-82.5 20.5q-46 0 -81 -20.5t-55 -57.5t-20 -86
q0 -50 20 -87.5t55 -59t81 -21.5zM214 459l-84 151h40l68 -117l66 117h39l-82 -151h-47z" />
    <glyph glyph-name="uni01D3" unicode="&#x1d3;" horiz-adv-x="696" 
d="M347 -10q-79 0 -132 26t-80 72.5t-27 106.5v329h-74v39h208v-39h-75v-335q0 -47 22 -82t63 -54t96 -19q60 0 103.5 18.5t67.5 53.5t24 83v335h-74v39h201v-39h-76v-334q0 -64 -31.5 -109t-87 -68t-128.5 -23zM331 629l-84 151h40l68 -117l66 117h39l-82 -151h-47z" />
    <glyph glyph-name="uni01D4" unicode="&#x1d4;" 
d="M211 -10q-47 0 -75 18.5t-39.5 47.5t-11.5 58v240h-71v39h125v-275q0 -36 20 -60.5t62 -24.5q50 0 89.5 21t77.5 57l-24 -33v276h-72v39h126v-354h73v-39h-124l-3 64l26 5q-41 -37 -85.5 -58t-93.5 -21zM216 459l-84 151h40l68 -117l66 117h39l-82 -151h-47z" />
    <glyph glyph-name="uni01E2" unicode="&#x1e2;" horiz-adv-x="974" 
d="M26 0v39h81l287 485h-65v39h526l17 -184h-45l-16 145h-298l23 -221h193l-8 74h32l22 -195h-33l-10 80h-194l22 -223h315l-15 145h46l18 -184h-500v39h77l-17 169h-218l-96 -169h70v-39h-214zM285 245h197l-28 279h-7zM474 647v34h198v-34h-198z" />
    <glyph glyph-name="uni01E3" unicode="&#x1e3;" horiz-adv-x="754" 
d="M178 -11q-63 0 -101 32t-38 82q0 43 22.5 68.5t59.5 36.5t81 11h112v41q0 53 -28.5 78t-74.5 25q-31 0 -67.5 -9.5t-68.5 -25.5l-16 37q37 20 78.5 29t72.5 9q42 0 70.5 -11.5t46.5 -31t26 -42.5q28 42 72.5 64t94.5 22q56 0 99 -23.5t67.5 -70t24.5 -112.5v-13h-342
q4 -47 25 -81.5t56 -54t78 -19.5q46 0 87.5 19.5t68.5 48.5l19 -35q-32 -34 -76 -54.5t-98 -20.5q-55 0 -102 23t-75 65q-33 -43 -76 -65t-98 -22zM185 27q44 0 82 20.5t65 61.5q-8 17 -12 36t-6 40h-109q-29 0 -55.5 -8t-42.5 -25t-16 -47q0 -35 24 -56.5t70 -21.5z
M369 219h289q0 48 -19 80.5t-50 48.5t-69 16q-39 0 -72 -17t-54 -49.5t-25 -78.5zM258 477v34h198v-34h-198z" />
    <glyph glyph-name="Gcaron" unicode="&#x1e6;" horiz-adv-x="683" 
d="M352 -10q-93 0 -160.5 37t-103.5 103.5t-36 153.5q0 88 37.5 152.5t104.5 100.5t157 36q79 0 138 -35t88 -94l-23 3v116h48v-164h-42q-27 63 -82 97t-125 34q-73 0 -126.5 -29.5t-83 -84t-29.5 -129.5q0 -78 29.5 -135t83.5 -87.5t127 -30.5q38 0 76 11t70 34.5t51 63.5
t19 98l28 -5h-150v41h179v-18q0 -72 -22 -123.5t-60.5 -83.5t-88 -47t-104.5 -15zM326 629l-84 151h40l68 -117l66 117h39l-82 -151h-47z" />
    <glyph glyph-name="gcaron" unicode="&#x1e7;" 
d="M234 -186q-33 0 -70 6.5t-74 16.5l10 43q38 -11 71.5 -17t61.5 -6q69 0 105 33t36 96v73l21 7q-28 -32 -72.5 -50.5t-87.5 -18.5q-58 0 -104 25t-73 70.5t-27 107.5q0 64 26 109t71 69t101 24q44 0 91 -19t73 -50l-19 6v54h121v-39h-67v-363q0 -62 -24.5 -101t-68 -57.5
t-101.5 -18.5zM244 37q39 0 81.5 18.5t70.5 49.5l-22 -34v254l23 -29q-31 29 -76 48t-86 19q-44 0 -77 -20.5t-52 -57.5t-19 -89q0 -49 20.5 -84.5t56 -55t80.5 -19.5zM220 459l-84 151h40l68 -117l66 117h39l-82 -151h-47z" />
    <glyph glyph-name="uni01E8" unicode="&#x1e8;" horiz-adv-x="634" 
d="M48 0v39h81v485h-81v39h221v-39h-81v-232l256 232h-69v39h216v-39h-78l-262 -239l273 -246h77v-39h-219v39h70l-264 236v-236h81v-39h-221zM297 629l-84 151h40l68 -117l66 117h39l-82 -151h-47z" />
    <glyph glyph-name="uni01E9" unicode="&#x1e9;" horiz-adv-x="489" 
d="M28 0v39h73v495h-70v39h124v-364l189 145h-75v39h199v-39h-65l-190 -149l175 -166h83v-39h-109l-207 198v-159h68v-39h-195zM106 639l-84 151h40l68 -117l66 117h39l-82 -151h-47z" />
    <glyph glyph-name="uni01EA" unicode="&#x1ea;" horiz-adv-x="709" 
d="M354 -11q-72 0 -128 24t-94 65.5t-58 93.5t-20 108t20 108.5t58.5 94t94.5 66t127 24.5q72 0 128 -24.5t94.5 -66t58.5 -94t20 -108.5q0 -57 -19.5 -109t-58 -93t-94.5 -65t-129 -24zM354 33q59 0 103.5 20t75 55.5t45.5 79.5t15 92t-15 92.5t-45.5 80t-75 56.5
t-103.5 21t-103 -21t-74 -57t-45 -80.5t-15 -92.5t14.5 -92.5t44.5 -79.5t74.5 -54.5t103.5 -19.5zM369 -162q-31 0 -52.5 18.5t-21.5 49.5q0 24 14 47t40 47h34q-22 -22 -34.5 -42.5t-12.5 -40.5q0 -22 13.5 -33t32.5 -11q23 0 46 15v-31q-16 -9 -30 -14t-29 -5z" />
    <glyph glyph-name="uni01EB" unicode="&#x1eb;" horiz-adv-x="478" 
d="M238 -12q-62 0 -109.5 26.5t-74.5 73.5t-27 110q0 62 27 108.5t74.5 72t109.5 25.5q63 0 111 -25.5t75 -72t27 -108.5t-27 -109.5t-75 -74t-111 -26.5zM238 30q47 0 82.5 21.5t55.5 59t20 87.5q0 49 -20 86t-55.5 57.5t-82.5 20.5q-46 0 -81 -20.5t-55 -57.5t-20 -86
q0 -50 20 -87.5t55 -59t81 -21.5zM257 -162q-31 0 -52.5 18.5t-21.5 49.5q0 24 14 47t40 47h34q-22 -22 -34.5 -42.5t-12.5 -40.5q0 -22 13.5 -33t32.5 -11q23 0 46 15v-31q-16 -9 -30 -14t-29 -5z" />
    <glyph glyph-name="uni01F0" unicode="&#x1f0;" horiz-adv-x="226" 
d="M7 -139v42h38q40 0 52.5 19.5t12.5 62.5v369h-83v39h138v-396q0 -29 -4 -54t-17 -43t-36.5 -28.5t-63.5 -10.5h-37zM81 459l-84 151h40l68 -117l66 117h39l-82 -151h-47z" />
    <glyph glyph-name="uni01F1" unicode="&#x1f1;" horiz-adv-x="1278" 
d="M49 0v39h81v485h-81v39h319q69 0 119 -24.5t83.5 -65.5t49.5 -90.5t16 -98.5q0 -56 -16.5 -107t-50 -90.5t-83.5 -63t-116 -23.5h-321zM189 39h174q55 0 95.5 20t66.5 54.5t38.5 78t12.5 90.5q0 45 -13 87.5t-39 77.5t-65.5 56t-92.5 21h-177v-485zM755 0v42l382 482
h-323v-140h-44v179h437v-38l-383 -486h348v148h45v-187h-462z" />
    <glyph glyph-name="uni01F2" unicode="&#x1f2;" horiz-adv-x="1081" 
d="M49 0v39h81v485h-81v39h319q69 0 119 -24.5t83.5 -65.5t49.5 -90.5t16 -98.5q0 -56 -16.5 -107t-50 -90.5t-83.5 -63t-116 -23.5h-321zM189 39h174q55 0 95.5 20t66.5 54.5t38.5 78t12.5 90.5q0 45 -13 87.5t-39 77.5t-65.5 56t-92.5 21h-177v-485zM691 0v40l266 315
h-214v-87h-43v125h317v-43l-263 -313h226v99h44v-136h-333z" />
    <glyph glyph-name="uni01F3" unicode="&#x1f3;" horiz-adv-x="955" 
d="M233 -11q-57 0 -103 25.5t-73.5 72.5t-27.5 110q0 65 26.5 110.5t71.5 70.5t101 25q45 0 88.5 -17t72.5 -49l-22 2v195h-68v39h122v-534h64v-39h-118v52l22 2q-29 -29 -68.5 -47t-87.5 -18zM243 30q43 0 80.5 18t66.5 46l-23 -31v267l23 -34q-31 32 -72 49t-81 17
q-44 0 -78.5 -20.5t-54 -58.5t-19.5 -91q0 -50 21 -86t56.5 -56t80.5 -20zM565 0v40l266 315h-214v-87h-43v125h317v-43l-263 -313h226v99h44v-136h-333z" />
    <glyph glyph-name="uni01F4" unicode="&#x1f4;" horiz-adv-x="683" 
d="M352 -10q-93 0 -160.5 37t-103.5 103.5t-36 153.5q0 88 37.5 152.5t104.5 100.5t157 36q79 0 138 -35t88 -94l-23 3v116h48v-164h-42q-27 63 -82 97t-125 34q-73 0 -126.5 -29.5t-83 -84t-29.5 -129.5q0 -78 29.5 -135t83.5 -87.5t127 -30.5q38 0 76 11t70 34.5t51 63.5
t19 98l28 -5h-150v41h179v-18q0 -72 -22 -123.5t-60.5 -83.5t-88 -47t-104.5 -15zM334 650l49 135h60l-76 -135h-33z" />
    <glyph glyph-name="uni01F5" unicode="&#x1f5;" 
d="M234 -186q-33 0 -70 6.5t-74 16.5l10 43q38 -11 71.5 -17t61.5 -6q69 0 105 33t36 96v73l21 7q-28 -32 -72.5 -50.5t-87.5 -18.5q-58 0 -104 25t-73 70.5t-27 107.5q0 64 26 109t71 69t101 24q44 0 91 -19t73 -50l-19 6v54h121v-39h-67v-363q0 -62 -24.5 -101t-68 -57.5
t-101.5 -18.5zM244 37q39 0 81.5 18.5t70.5 49.5l-22 -34v254l23 -29q-31 29 -76 48t-86 19q-44 0 -77 -20.5t-52 -57.5t-19 -89q0 -49 20.5 -84.5t56 -55t80.5 -19.5zM228 480l49 135h60l-76 -135h-33z" />
    <glyph glyph-name="uni01F8" unicode="&#x1f8;" horiz-adv-x="704" 
d="M51 0v39h77v485h-77v39h141l363 -484v445h-78v39h196v-39h-71v-524h-59l-368 496v-457h76v-39h-200zM333 650l-76 135h60l49 -135h-33z" />
    <glyph glyph-name="uni01F9" unicode="&#x1f9;" horiz-adv-x="508" 
d="M20 0v39h81v315h-80v39h133v-52l-19 -2q42 28 85 46t87 18q54 0 89.5 -33t35.5 -94v-237h74v-39h-202v39h74v233q0 42 -22.5 65.5t-61.5 23.5q-36 0 -76.5 -16.5t-83.5 -43.5l20 24v-286h77v-39h-211zM256 480l-76 135h60l49 -135h-33z" />
    <glyph glyph-name="Aringacute" unicode="&#x1fa;" horiz-adv-x="675" 
d="M34 0v39h74l176 485h-66v39h241v-39h-69l179 -485h71v-39h-207v39h74l-66 186h-212l-66 -186h74v-39h-203zM241 264h188l-92 258h-4zM338 614q-33 0 -52 19t-18 48q0 28 18.5 46.5t51.5 18.5q34 0 52 -18.5t18 -46.5q0 -29 -18.5 -48t-51.5 -19zM338 637q20 0 31.5 12.5
t11.5 31.5q0 18 -11.5 29.5t-31.5 11.5t-31.5 -11.5t-11.5 -29.5q0 -19 11.5 -31.5t31.5 -12.5zM323 782l49 135h60l-76 -135h-33z" />
    <glyph glyph-name="aringacute" unicode="&#x1fb;" horiz-adv-x="450" 
d="M173 -11q-60 0 -97 33.5t-37 83.5q0 45 20.5 71t54.5 37t74 11q36 0 74 -5.5t75 -14.5l-23 -5v60q0 53 -28.5 78t-74.5 25q-31 0 -67.5 -9.5t-68.5 -25.5l-16 37q37 20 78.5 29t72.5 9q56 0 90.5 -18.5t50.5 -49.5t16 -68v-228h62v-39h-107l-7 52h21q-43 -32 -81.5 -47.5
t-81.5 -15.5zM180 27q37 0 74 15t83 47l-23 -26v124l19 -14q-33 9 -69 14t-73 5q-38 0 -69 -18t-31 -66q0 -33 23 -57t66 -24zM217 444q-33 0 -52 19t-18 48q0 28 18.5 46.5t51.5 18.5q34 0 52 -18.5t18 -46.5q0 -29 -18.5 -48t-51.5 -19zM217 467q20 0 31.5 12.5t11.5 31.5
q0 18 -11.5 29.5t-31.5 11.5t-31.5 -11.5t-11.5 -29.5q0 -19 11.5 -31.5t31.5 -12.5zM202 612l49 135h60l-76 -135h-33z" />
    <glyph glyph-name="AEacute" unicode="&#x1fc;" horiz-adv-x="974" 
d="M26 0v39h81l287 485h-65v39h526l17 -184h-45l-16 145h-298l23 -221h193l-8 74h32l22 -195h-33l-10 80h-194l22 -223h315l-15 145h46l18 -184h-500v39h77l-17 169h-218l-96 -169h70v-39h-214zM285 245h197l-28 279h-7zM558 650l49 135h60l-76 -135h-33z" />
    <glyph glyph-name="aeacute" unicode="&#x1fd;" horiz-adv-x="754" 
d="M178 -11q-63 0 -101 32t-38 82q0 43 22.5 68.5t59.5 36.5t81 11h112v41q0 53 -28.5 78t-74.5 25q-31 0 -67.5 -9.5t-68.5 -25.5l-16 37q37 20 78.5 29t72.5 9q42 0 70.5 -11.5t46.5 -31t26 -42.5q28 42 72.5 64t94.5 22q56 0 99 -23.5t67.5 -70t24.5 -112.5v-13h-342
q4 -47 25 -81.5t56 -54t78 -19.5q46 0 87.5 19.5t68.5 48.5l19 -35q-32 -34 -76 -54.5t-98 -20.5q-55 0 -102 23t-75 65q-33 -43 -76 -65t-98 -22zM185 27q44 0 82 20.5t65 61.5q-8 17 -12 36t-6 40h-109q-29 0 -55.5 -8t-42.5 -25t-16 -47q0 -35 24 -56.5t70 -21.5z
M369 219h289q0 48 -19 80.5t-50 48.5t-69 16q-39 0 -72 -17t-54 -49.5t-25 -78.5zM342 480l49 135h60l-76 -135h-33z" />
    <glyph glyph-name="Oslashacute" unicode="&#x1fe;" horiz-adv-x="655" 
d="M109 -36l-29 20l475 610l28 -19zM327 -13q-72 0 -128 24t-94 65t-58 93t-20 108q0 57 20 109.5t58.5 93.5t94.5 66t127 25q72 0 128 -25t94.5 -66t58.5 -93.5t20 -109.5q0 -56 -20 -108t-58 -93.5t-94 -65t-129 -23.5zM327 31q59 0 103.5 20t75 55t45.5 79t15 92t-15 93
t-45.5 80.5t-75 56.5t-103.5 21t-103 -21t-74 -57t-45 -80.5t-15 -92.5q0 -49 14.5 -93t44.5 -79t74.5 -54.5t103.5 -19.5zM313 650l49 135h60l-76 -135h-33z" />
    <glyph glyph-name="oslashacute" unicode="&#x1ff;" horiz-adv-x="489" 
d="M110 -66l-26 14l290 503l26 -14zM238 -12q-62 0 -109.5 26.5t-74.5 73.5t-27 110q0 62 27 108.5t74.5 72t109.5 25.5q63 0 111 -25.5t75 -72t27 -108.5t-27 -109.5t-75 -74t-111 -26.5zM238 30q47 0 82.5 21.5t55.5 59t20 87.5q0 49 -20 86t-55.5 57.5t-82.5 20.5
q-46 0 -81 -20.5t-55 -57.5t-20 -86q0 -50 20 -87.5t55 -59t81 -21.5zM226 480l49 135h60l-76 -135h-33z" />
    <glyph glyph-name="uni0200" unicode="&#x200;" horiz-adv-x="675" 
d="M34 0v39h74l176 485h-66v39h241v-39h-69l179 -485h71v-39h-207v39h74l-66 186h-212l-66 -186h74v-39h-203zM241 264h188l-92 258h-4zM252 650l-82 149h60l55 -149h-33zM370 650l-82 149h60l54 -149h-32z" />
    <glyph glyph-name="uni0201" unicode="&#x201;" horiz-adv-x="450" 
d="M173 -11q-60 0 -97 33.5t-37 83.5q0 45 20.5 71t54.5 37t74 11q36 0 74 -5.5t75 -14.5l-23 -5v60q0 53 -28.5 78t-74.5 25q-31 0 -67.5 -9.5t-68.5 -25.5l-16 37q37 20 78.5 29t72.5 9q56 0 90.5 -18.5t50.5 -49.5t16 -68v-228h62v-39h-107l-7 52h21q-43 -32 -81.5 -47.5
t-81.5 -15.5zM180 27q37 0 74 15t83 47l-23 -26v124l19 -14q-33 9 -69 14t-73 5q-38 0 -69 -18t-31 -66q0 -33 23 -57t66 -24zM131 480l-82 149h60l55 -149h-33zM249 480l-82 149h60l54 -149h-32z" />
    <glyph glyph-name="uni0202" unicode="&#x202;" horiz-adv-x="675" 
d="M34 0v39h74l176 485h-66v39h241v-39h-69l179 -485h71v-39h-207v39h74l-66 186h-212l-66 -186h74v-39h-203zM241 264h188l-92 258h-4zM241 630q6 42 31.5 65.5t65.5 23.5t65.5 -23.5t30.5 -65.5h-41q-11 49 -55 49q-45 0 -55 -49h-42z" />
    <glyph glyph-name="uni0203" unicode="&#x203;" horiz-adv-x="450" 
d="M173 -11q-60 0 -97 33.5t-37 83.5q0 45 20.5 71t54.5 37t74 11q36 0 74 -5.5t75 -14.5l-23 -5v60q0 53 -28.5 78t-74.5 25q-31 0 -67.5 -9.5t-68.5 -25.5l-16 37q37 20 78.5 29t72.5 9q56 0 90.5 -18.5t50.5 -49.5t16 -68v-228h62v-39h-107l-7 52h21q-43 -32 -81.5 -47.5
t-81.5 -15.5zM180 27q37 0 74 15t83 47l-23 -26v124l19 -14q-33 9 -69 14t-73 5q-38 0 -69 -18t-31 -66q0 -33 23 -57t66 -24zM120 460q6 42 31.5 65.5t65.5 23.5t65.5 -23.5t30.5 -65.5h-41q-11 49 -55 49q-45 0 -55 -49h-42z" />
    <glyph glyph-name="uni0204" unicode="&#x204;" horiz-adv-x="589" 
d="M48 0v39h81v485h-81v39h477v-164h-47v125h-290v-214h189v73h33v-190h-33v76h-189v-230h298v128h47v-167h-485zM232 650l-82 149h60l55 -149h-33zM350 650l-82 149h60l54 -149h-32z" />
    <glyph glyph-name="uni0205" unicode="&#x205;" horiz-adv-x="467" 
d="M243 -12q-59 0 -108 25.5t-78.5 72.5t-29.5 110q0 67 28.5 113t75 70.5t101.5 24.5q56 0 99.5 -23.5t68 -70t24.5 -112.5v-13h-350l1 34h296q0 48 -19 80.5t-50.5 48.5t-69.5 16q-41 0 -75 -19.5t-54.5 -55.5t-20.5 -87q0 -52 20.5 -90.5t57 -60t81.5 -21.5
q46 0 87.5 19.5t68.5 48.5l19 -35q-32 -34 -76 -54.5t-97 -20.5zM151 480l-82 149h60l55 -149h-33zM269 480l-82 149h60l54 -149h-32z" />
    <glyph glyph-name="uni0206" unicode="&#x206;" horiz-adv-x="589" 
d="M48 0v39h81v485h-81v39h477v-164h-47v125h-290v-214h189v73h33v-190h-33v76h-189v-230h298v128h47v-167h-485zM221 630q6 42 31.5 65.5t65.5 23.5t65.5 -23.5t30.5 -65.5h-41q-11 49 -55 49q-45 0 -55 -49h-42z" />
    <glyph glyph-name="uni0207" unicode="&#x207;" horiz-adv-x="467" 
d="M243 -12q-59 0 -108 25.5t-78.5 72.5t-29.5 110q0 67 28.5 113t75 70.5t101.5 24.5q56 0 99.5 -23.5t68 -70t24.5 -112.5v-13h-350l1 34h296q0 48 -19 80.5t-50.5 48.5t-69.5 16q-41 0 -75 -19.5t-54.5 -55.5t-20.5 -87q0 -52 20.5 -90.5t57 -60t81.5 -21.5
q46 0 87.5 19.5t68.5 48.5l19 -35q-32 -34 -76 -54.5t-97 -20.5zM140 460q6 42 31.5 65.5t65.5 23.5t65.5 -23.5t30.5 -65.5h-41q-11 49 -55 49q-45 0 -55 -49h-42z" />
    <glyph glyph-name="uni0208" unicode="&#x208;" horiz-adv-x="327" 
d="M52 0v39h81v485h-81v39h222v-39h-82v-485h82v-39h-222zM78 650l-82 149h60l55 -149h-33zM196 650l-82 149h60l54 -149h-32z" />
    <glyph glyph-name="uni0209" unicode="&#x209;" horiz-adv-x="253" 
d="M20 0v39h81v315h-80v39h133v-354h77v-39h-211zM33 480l-82 149h60l55 -149h-33zM151 480l-82 149h60l54 -149h-32z" />
    <glyph glyph-name="uni020A" unicode="&#x20a;" horiz-adv-x="327" 
d="M52 0v39h81v485h-81v39h222v-39h-82v-485h82v-39h-222zM67 630q6 42 31.5 65.5t65.5 23.5t65.5 -23.5t30.5 -65.5h-41q-11 49 -55 49q-45 0 -55 -49h-42z" />
    <glyph glyph-name="uni020B" unicode="&#x20b;" horiz-adv-x="253" 
d="M20 0v39h81v315h-80v39h133v-354h77v-39h-211zM22 460q6 42 31.5 65.5t65.5 23.5t65.5 -23.5t30.5 -65.5h-41q-11 49 -55 49q-45 0 -55 -49h-42z" />
    <glyph glyph-name="uni020C" unicode="&#x20c;" horiz-adv-x="709" 
d="M354 -11q-72 0 -128 24t-94 65.5t-58 93.5t-20 108t20 108.5t58.5 94t94.5 66t127 24.5q72 0 128 -24.5t94.5 -66t58.5 -94t20 -108.5q0 -57 -19.5 -109t-58 -93t-94.5 -65t-129 -24zM354 33q59 0 103.5 20t75 55.5t45.5 79.5t15 92t-15 92.5t-45.5 80t-75 56.5
t-103.5 21t-103 -21t-74 -57t-45 -80.5t-15 -92.5t14.5 -92.5t44.5 -79.5t74.5 -54.5t103.5 -19.5zM267 650l-82 149h60l55 -149h-33zM385 650l-82 149h60l54 -149h-32z" />
    <glyph glyph-name="uni020D" unicode="&#x20d;" horiz-adv-x="478" 
d="M238 -12q-62 0 -109.5 26.5t-74.5 73.5t-27 110q0 62 27 108.5t74.5 72t109.5 25.5q63 0 111 -25.5t75 -72t27 -108.5t-27 -109.5t-75 -74t-111 -26.5zM238 30q47 0 82.5 21.5t55.5 59t20 87.5q0 49 -20 86t-55.5 57.5t-82.5 20.5q-46 0 -81 -20.5t-55 -57.5t-20 -86
q0 -50 20 -87.5t55 -59t81 -21.5zM151 480l-82 149h60l55 -149h-33zM269 480l-82 149h60l54 -149h-32z" />
    <glyph glyph-name="uni020E" unicode="&#x20e;" horiz-adv-x="709" 
d="M354 -11q-72 0 -128 24t-94 65.5t-58 93.5t-20 108t20 108.5t58.5 94t94.5 66t127 24.5q72 0 128 -24.5t94.5 -66t58.5 -94t20 -108.5q0 -57 -19.5 -109t-58 -93t-94.5 -65t-129 -24zM354 33q59 0 103.5 20t75 55.5t45.5 79.5t15 92t-15 92.5t-45.5 80t-75 56.5
t-103.5 21t-103 -21t-74 -57t-45 -80.5t-15 -92.5t14.5 -92.5t44.5 -79.5t74.5 -54.5t103.5 -19.5zM256 630q6 42 31.5 65.5t65.5 23.5t65.5 -23.5t30.5 -65.5h-41q-11 49 -55 49q-45 0 -55 -49h-42z" />
    <glyph glyph-name="uni020F" unicode="&#x20f;" horiz-adv-x="478" 
d="M238 -12q-62 0 -109.5 26.5t-74.5 73.5t-27 110q0 62 27 108.5t74.5 72t109.5 25.5q63 0 111 -25.5t75 -72t27 -108.5t-27 -109.5t-75 -74t-111 -26.5zM238 30q47 0 82.5 21.5t55.5 59t20 87.5q0 49 -20 86t-55.5 57.5t-82.5 20.5q-46 0 -81 -20.5t-55 -57.5t-20 -86
q0 -50 20 -87.5t55 -59t81 -21.5zM140 460q6 42 31.5 65.5t65.5 23.5t65.5 -23.5t30.5 -65.5h-41q-11 49 -55 49q-45 0 -55 -49h-42z" />
    <glyph glyph-name="uni0210" unicode="&#x210;" horiz-adv-x="624" 
d="M48 0v39h81v485h-81v39h301q58 0 97.5 -19t59.5 -52.5t20 -76.5q0 -38 -15 -70.5t-49.5 -53.5t-93.5 -26l139 -226h83v-39h-123l-156 260h-88v41h107q56 0 85.5 17.5t41 43.5t11.5 52q0 28 -11.5 53t-37.5 41t-69 16h-162v-485h81v-39h-221zM217 650l-82 149h60l55 -149
h-33zM335 650l-82 149h60l54 -149h-32z" />
    <glyph glyph-name="uni0211" unicode="&#x211;" horiz-adv-x="376" 
d="M44 0v39h81v315h-80v39h133v-120l-12 1q9 47 26.5 74.5t40 39.5t46.5 12q20 0 39 -5t38 -15l-13 -47q-17 10 -32.5 15t-34.5 5q-39 0 -68 -35.5t-29 -99.5l-1 -179h76v-39h-210zM143 480l-82 149h60l55 -149h-33zM261 480l-82 149h60l54 -149h-32z" />
    <glyph glyph-name="uni0212" unicode="&#x212;" horiz-adv-x="624" 
d="M48 0v39h81v485h-81v39h301q58 0 97.5 -19t59.5 -52.5t20 -76.5q0 -38 -15 -70.5t-49.5 -53.5t-93.5 -26l139 -226h83v-39h-123l-156 260h-88v41h107q56 0 85.5 17.5t41 43.5t11.5 52q0 28 -11.5 53t-37.5 41t-69 16h-162v-485h81v-39h-221zM206 630q6 42 31.5 65.5
t65.5 23.5t65.5 -23.5t30.5 -65.5h-41q-11 49 -55 49q-45 0 -55 -49h-42z" />
    <glyph glyph-name="uni0213" unicode="&#x213;" horiz-adv-x="376" 
d="M44 0v39h81v315h-80v39h133v-120l-12 1q9 47 26.5 74.5t40 39.5t46.5 12q20 0 39 -5t38 -15l-13 -47q-17 10 -32.5 15t-34.5 5q-39 0 -68 -35.5t-29 -99.5l-1 -179h76v-39h-210zM132 460q6 42 31.5 65.5t65.5 23.5t65.5 -23.5t30.5 -65.5h-41q-11 49 -55 49
q-45 0 -55 -49h-42z" />
    <glyph glyph-name="uni0214" unicode="&#x214;" horiz-adv-x="696" 
d="M347 -10q-79 0 -132 26t-80 72.5t-27 106.5v329h-74v39h208v-39h-75v-335q0 -47 22 -82t63 -54t96 -19q60 0 103.5 18.5t67.5 53.5t24 83v335h-74v39h201v-39h-76v-334q0 -64 -31.5 -109t-87 -68t-128.5 -23zM268 650l-82 149h60l55 -149h-33zM386 650l-82 149h60
l54 -149h-32z" />
    <glyph glyph-name="uni0215" unicode="&#x215;" 
d="M211 -10q-47 0 -75 18.5t-39.5 47.5t-11.5 58v240h-71v39h125v-275q0 -36 20 -60.5t62 -24.5q50 0 89.5 21t77.5 57l-24 -33v276h-72v39h126v-354h73v-39h-124l-3 64l26 5q-41 -37 -85.5 -58t-93.5 -21zM153 480l-82 149h60l55 -149h-33zM271 480l-82 149h60l54 -149h-32
z" />
    <glyph glyph-name="uni0216" unicode="&#x216;" horiz-adv-x="696" 
d="M347 -10q-79 0 -132 26t-80 72.5t-27 106.5v329h-74v39h208v-39h-75v-335q0 -47 22 -82t63 -54t96 -19q60 0 103.5 18.5t67.5 53.5t24 83v335h-74v39h201v-39h-76v-334q0 -64 -31.5 -109t-87 -68t-128.5 -23zM257 630q6 42 31.5 65.5t65.5 23.5t65.5 -23.5t30.5 -65.5
h-41q-11 49 -55 49q-45 0 -55 -49h-42z" />
    <glyph glyph-name="uni0217" unicode="&#x217;" 
d="M211 -10q-47 0 -75 18.5t-39.5 47.5t-11.5 58v240h-71v39h125v-275q0 -36 20 -60.5t62 -24.5q50 0 89.5 21t77.5 57l-24 -33v276h-72v39h126v-354h73v-39h-124l-3 64l26 5q-41 -37 -85.5 -58t-93.5 -21zM142 460q6 42 31.5 65.5t65.5 23.5t65.5 -23.5t30.5 -65.5h-41
q-11 49 -55 49q-45 0 -55 -49h-42z" />
    <glyph glyph-name="uni0218" unicode="&#x218;" horiz-adv-x="536" 
d="M305 -10q-46 0 -84 12.5t-64.5 36t-39.5 55.5h9v-94h-48v190h45q3 -47 22.5 -82.5t58.5 -55.5t99 -20q62 0 95 29t33 81q0 38 -12.5 60.5t-41.5 35.5t-78 20l-49 7q-82 13 -128 50t-46 109q0 47 21 80.5t61 51.5t95 18q65 0 111.5 -27.5t61.5 -73.5h-15v90h48v-155h-45
q-2 31 -18 59t-50.5 46t-90.5 18q-61 0 -93.5 -28.5t-32.5 -74.5q0 -53 34.5 -77t96.5 -35l49 -7q60 -9 99 -27.5t57.5 -50.5t18.5 -82q0 -44 -21 -80.5t-60.5 -57.5t-97.5 -21zM264 -214v23q28 4 37.5 22.5t9.5 48.5h-42v69h74v-73q0 -39 -17.5 -65t-61.5 -25z" />
    <glyph glyph-name="uni0219" unicode="&#x219;" horiz-adv-x="438" 
d="M245 -10q-34 0 -65.5 8.5t-53 23.5t-31.5 33l13 -11v-44h-44v128h40l5 -66l-16 43q17 -38 57.5 -57.5t88.5 -19.5q44 0 73 18t29 50q0 38 -24.5 52.5t-78.5 25.5l-60 13q-51 12 -82 34.5t-31 74.5t41.5 79.5t102.5 27.5q26 0 53 -7t50 -21t34 -34l-16 9v44h44v-132h-40
l-9 88l14 -49q-5 18 -24.5 31.5t-45.5 22.5t-53 9q-38 0 -67.5 -16t-29.5 -50q0 -29 22 -43t62 -23l57 -12q42 -10 71.5 -23t45 -35.5t15.5 -61.5q0 -38 -21 -62.5t-55 -36t-71 -11.5zM191 -214v23q28 4 37.5 22.5t9.5 48.5h-42v69h74v-73q0 -39 -17.5 -65t-61.5 -25z" />
    <glyph glyph-name="uni021A" unicode="&#x21a;" horiz-adv-x="559" 
d="M169 0v39h81v485h-180v-153h-45v192h509v-192h-46v153h-180v-485h81v-39h-220zM240 -214v23q28 4 37.5 22.5t9.5 48.5h-42v69h74v-73q0 -39 -17.5 -65t-61.5 -25z" />
    <glyph glyph-name="uni021B" unicode="&#x21b;" horiz-adv-x="293" 
d="M207 0q-55 0 -86.5 26t-31.5 86v242h-69v39h69v135l54 20v-155h109v-39h-109v-239q0 -42 16.5 -59t55.5 -17h50v-39h-58zM152 -212v23q28 4 37.5 22.5t9.5 48.5h-42v69h74v-73q0 -39 -17.5 -65t-61.5 -25z" />
    <glyph glyph-name="uni021E" unicode="&#x21e;" horiz-adv-x="712" 
d="M48 0v39h81v485h-81v39h221v-39h-81v-216h336v216h-82v39h221v-39h-81v-485h81v-39h-221v39h82v227h-336v-227h81v-39h-221zM334 629l-84 151h40l68 -117l66 117h39l-82 -151h-47z" />
    <glyph glyph-name="uni021F" unicode="&#x21f;" horiz-adv-x="504" 
d="M11 0v39h73v495h-71v39h125v-234l-18 -3q45 30 87 48.5t86 18.5q55 0 90.5 -33t35.5 -94v-237h74v-39h-202v39h74v233q0 42 -22.5 65.5t-60.5 23.5t-80 -18t-81 -43l17 23v-284h67v-39h-194zM88 640l-84 151h40l68 -117l66 117h39l-82 -151h-47z" />
    <glyph glyph-name="uni0226" unicode="&#x226;" horiz-adv-x="675" 
d="M34 0v39h74l176 485h-66v39h241v-39h-69l179 -485h71v-39h-207v39h74l-66 186h-212l-66 -186h74v-39h-203zM241 264h188l-92 258h-4zM338 640q-18 0 -29 11.5t-11 25.5q0 16 10.5 27t29.5 11q18 0 28.5 -10.5t10.5 -27.5q1 -13 -9.5 -25t-29.5 -12z" />
    <glyph glyph-name="uni0227" unicode="&#x227;" horiz-adv-x="450" 
d="M173 -11q-60 0 -97 33.5t-37 83.5q0 45 20.5 71t54.5 37t74 11q36 0 74 -5.5t75 -14.5l-23 -5v60q0 53 -28.5 78t-74.5 25q-31 0 -67.5 -9.5t-68.5 -25.5l-16 37q37 20 78.5 29t72.5 9q56 0 90.5 -18.5t50.5 -49.5t16 -68v-228h62v-39h-107l-7 52h21q-43 -32 -81.5 -47.5
t-81.5 -15.5zM180 27q37 0 74 15t83 47l-23 -26v124l19 -14q-33 9 -69 14t-73 5q-38 0 -69 -18t-31 -66q0 -33 23 -57t66 -24zM217 470q-18 0 -29 11.5t-11 25.5q0 16 10.5 27t29.5 11q18 0 28.5 -10.5t10.5 -27.5q1 -13 -9.5 -25t-29.5 -12z" />
    <glyph glyph-name="uni0228" unicode="&#x228;" horiz-adv-x="589" 
d="M48 0v39h81v485h-81v39h477v-164h-47v125h-290v-214h189v73h33v-190h-33v76h-189v-230h298v128h47v-167h-485zM331 -162q-36 0 -71 17v22q14 -4 27 -6t23 -2q17 0 27.5 5.5t10.5 18.5t-13 20.5t-46 8.5l31 78h25l-17 -57q35 -2 51.5 -17t16.5 -36q0 -28 -19.5 -40
t-45.5 -12z" />
    <glyph glyph-name="uni0229" unicode="&#x229;" horiz-adv-x="467" 
d="M243 -12q-59 0 -108 25.5t-78.5 72.5t-29.5 110q0 67 28.5 113t75 70.5t101.5 24.5q56 0 99.5 -23.5t68 -70t24.5 -112.5v-13h-350l1 34h296q0 48 -19 80.5t-50.5 48.5t-69.5 16q-41 0 -75 -19.5t-54.5 -55.5t-20.5 -87q0 -52 20.5 -90.5t57 -60t81.5 -21.5
q46 0 87.5 19.5t68.5 48.5l19 -35q-32 -34 -76 -54.5t-97 -20.5zM236 -162q-36 0 -71 17v22q14 -4 27 -6t23 -2q17 0 27.5 5.5t10.5 18.5t-13 20.5t-46 8.5l31 78h25l-17 -57q35 -2 51.5 -17t16.5 -36q0 -28 -19.5 -40t-45.5 -12z" />
    <glyph glyph-name="uni022A" unicode="&#x22a;" horiz-adv-x="709" 
d="M354 -11q-72 0 -128 24t-94 65.5t-58 93.5t-20 108t20 108.5t58.5 94t94.5 66t127 24.5q72 0 128 -24.5t94.5 -66t58.5 -94t20 -108.5q0 -57 -19.5 -109t-58 -93t-94.5 -65t-129 -24zM354 33q59 0 103.5 20t75 55.5t45.5 79.5t15 92t-15 92.5t-45.5 80t-75 56.5
t-103.5 21t-103 -21t-74 -57t-45 -80.5t-15 -92.5t14.5 -92.5t44.5 -79.5t74.5 -54.5t103.5 -19.5zM265 639q-16 0 -25.5 9.5t-9.5 24.5t9.5 24t25.5 9t25 -9t9 -25q0 -14 -9 -23.5t-25 -9.5zM441 639q-15 0 -24.5 9t-9.5 24q0 16 9.5 25t24.5 9q16 0 25.5 -9t9.5 -25
q0 -15 -9.5 -24t-25.5 -9zM254 794v34h198v-34h-198z" />
    <glyph glyph-name="uni022B" unicode="&#x22b;" horiz-adv-x="478" 
d="M238 -12q-62 0 -109.5 26.5t-74.5 73.5t-27 110q0 62 27 108.5t74.5 72t109.5 25.5q63 0 111 -25.5t75 -72t27 -108.5t-27 -109.5t-75 -74t-111 -26.5zM238 30q47 0 82.5 21.5t55.5 59t20 87.5q0 49 -20 86t-55.5 57.5t-82.5 20.5q-46 0 -81 -20.5t-55 -57.5t-20 -86
q0 -50 20 -87.5t55 -59t81 -21.5zM149 469q-16 0 -25.5 9.5t-9.5 24.5t9.5 24t25.5 9t25 -9t9 -25q0 -14 -9 -23.5t-25 -9.5zM325 469q-15 0 -24.5 9t-9.5 24q0 16 9.5 25t24.5 9q16 0 25.5 -9t9.5 -25q0 -15 -9.5 -24t-25.5 -9zM138 624v34h198v-34h-198z" />
    <glyph glyph-name="uni022C" unicode="&#x22c;" horiz-adv-x="709" 
d="M354 -11q-72 0 -128 24t-94 65.5t-58 93.5t-20 108t20 108.5t58.5 94t94.5 66t127 24.5q72 0 128 -24.5t94.5 -66t58.5 -94t20 -108.5q0 -57 -19.5 -109t-58 -93t-94.5 -65t-129 -24zM354 33q59 0 103.5 20t75 55.5t45.5 79.5t15 92t-15 92.5t-45.5 80t-75 56.5
t-103.5 21t-103 -21t-74 -57t-45 -80.5t-15 -92.5t14.5 -92.5t44.5 -79.5t74.5 -54.5t103.5 -19.5zM412 646q-21 0 -42.5 10t-41.5 19.5t-37 9.5q-26 0 -30 -37h-26q2 38 18.5 57.5t43.5 19.5q19 0 39.5 -9.5t41 -19.5t36.5 -10q13 0 21.5 8.5t10.5 28.5h25
q-1 -34 -14.5 -55.5t-44.5 -21.5zM255 792v34h198v-34h-198z" />
    <glyph glyph-name="uni022D" unicode="&#x22d;" horiz-adv-x="478" 
d="M238 -12q-62 0 -109.5 26.5t-74.5 73.5t-27 110q0 62 27 108.5t74.5 72t109.5 25.5q63 0 111 -25.5t75 -72t27 -108.5t-27 -109.5t-75 -74t-111 -26.5zM238 30q47 0 82.5 21.5t55.5 59t20 87.5q0 49 -20 86t-55.5 57.5t-82.5 20.5q-46 0 -81 -20.5t-55 -57.5t-20 -86
q0 -50 20 -87.5t55 -59t81 -21.5zM296 476q-21 0 -42.5 10t-41.5 19.5t-37 9.5q-26 0 -30 -37h-26q2 38 18.5 57.5t43.5 19.5q19 0 39.5 -9.5t41 -19.5t36.5 -10q13 0 21.5 8.5t10.5 28.5h25q-1 -34 -14.5 -55.5t-44.5 -21.5zM139 622v34h198v-34h-198z" />
    <glyph glyph-name="uni022E" unicode="&#x22e;" horiz-adv-x="709" 
d="M354 -11q-72 0 -128 24t-94 65.5t-58 93.5t-20 108t20 108.5t58.5 94t94.5 66t127 24.5q72 0 128 -24.5t94.5 -66t58.5 -94t20 -108.5q0 -57 -19.5 -109t-58 -93t-94.5 -65t-129 -24zM354 33q59 0 103.5 20t75 55.5t45.5 79.5t15 92t-15 92.5t-45.5 80t-75 56.5
t-103.5 21t-103 -21t-74 -57t-45 -80.5t-15 -92.5t14.5 -92.5t44.5 -79.5t74.5 -54.5t103.5 -19.5zM353 640q-18 0 -29 11.5t-11 25.5q0 16 10.5 27t29.5 11q18 0 28.5 -10.5t10.5 -27.5q1 -13 -9.5 -25t-29.5 -12z" />
    <glyph glyph-name="uni022F" unicode="&#x22f;" horiz-adv-x="478" 
d="M238 -12q-62 0 -109.5 26.5t-74.5 73.5t-27 110q0 62 27 108.5t74.5 72t109.5 25.5q63 0 111 -25.5t75 -72t27 -108.5t-27 -109.5t-75 -74t-111 -26.5zM238 30q47 0 82.5 21.5t55.5 59t20 87.5q0 49 -20 86t-55.5 57.5t-82.5 20.5q-46 0 -81 -20.5t-55 -57.5t-20 -86
q0 -50 20 -87.5t55 -59t81 -21.5zM237 470q-18 0 -29 11.5t-11 25.5q0 16 10.5 27t29.5 11q18 0 28.5 -10.5t10.5 -27.5q1 -13 -9.5 -25t-29.5 -12z" />
    <glyph glyph-name="uni0230" unicode="&#x230;" horiz-adv-x="709" 
d="M354 -11q-72 0 -128 24t-94 65.5t-58 93.5t-20 108t20 108.5t58.5 94t94.5 66t127 24.5q72 0 128 -24.5t94.5 -66t58.5 -94t20 -108.5q0 -57 -19.5 -109t-58 -93t-94.5 -65t-129 -24zM354 33q59 0 103.5 20t75 55.5t45.5 79.5t15 92t-15 92.5t-45.5 80t-75 56.5
t-103.5 21t-103 -21t-74 -57t-45 -80.5t-15 -92.5t14.5 -92.5t44.5 -79.5t74.5 -54.5t103.5 -19.5zM353 640q-18 0 -29 11.5t-11 25.5q0 16 10.5 27t29.5 11q18 0 28.5 -10.5t10.5 -27.5q1 -13 -9.5 -25t-29.5 -12zM254 793v34h198v-34h-198z" />
    <glyph glyph-name="uni0231" unicode="&#x231;" horiz-adv-x="478" 
d="M238 -12q-62 0 -109.5 26.5t-74.5 73.5t-27 110q0 62 27 108.5t74.5 72t109.5 25.5q63 0 111 -25.5t75 -72t27 -108.5t-27 -109.5t-75 -74t-111 -26.5zM238 30q47 0 82.5 21.5t55.5 59t20 87.5q0 49 -20 86t-55.5 57.5t-82.5 20.5q-46 0 -81 -20.5t-55 -57.5t-20 -86
q0 -50 20 -87.5t55 -59t81 -21.5zM237 470q-18 0 -29 11.5t-11 25.5q0 16 10.5 27t29.5 11q18 0 28.5 -10.5t10.5 -27.5q1 -13 -9.5 -25t-29.5 -12zM138 623v34h198v-34h-198z" />
    <glyph glyph-name="uni0232" unicode="&#x232;" horiz-adv-x="624" 
d="M202 0v39h82v196l-198 289h-75v39h211v-39h-72l168 -249l164 249h-74v39h205v-39h-76l-195 -289v-196h83v-39h-223zM218 647v34h198v-34h-198z" />
    <glyph glyph-name="uni0233" unicode="&#x233;" horiz-adv-x="521" 
d="M107 -143v45h43q27 0 43 4t27 17.5t21 39.5l25 64h-25l-150 327h-76v39h195v-39h-64l131 -295l120 295h-74v39h192v-39h-64l-161 -388q-15 -39 -30 -62.5t-39 -35t-68 -11.5h-46zM168 477v34h198v-34h-198z" />
    <glyph glyph-name="uni0237" unicode="&#x237;" horiz-adv-x="226" 
d="M7 -139v42h38q40 0 52.5 19.5t12.5 62.5v369h-83v39h138v-396q0 -29 -4 -54t-17 -43t-36.5 -28.5t-63.5 -10.5h-37z" />
    <glyph glyph-name="uni0259" unicode="&#x259;" horiz-adv-x="467" 
d="M237 -11q-56 0 -100 24t-69 70t-25 112v13h350l-1 -34h-296q0 -48 19.5 -80.5t52.5 -48.5t71 -16q41 0 73.5 19.5t52 56.5t19.5 88t-19.5 89t-54.5 59.5t-80 21.5q-47 0 -89.5 -19.5t-70.5 -48.5l-19 35q33 33 78.5 54t99.5 21q58 0 105.5 -25.5t76.5 -71.5t29 -110
q0 -66 -28 -113t-74 -71.5t-101 -24.5z" />
    <glyph glyph-name="uni02BB" unicode="&#x2bb;" horiz-adv-x="278" 
d="M178 592v-30q-24 -3 -33.5 -17t-9.5 -49h41v-77h-76v65q0 51 17 79.5t61 28.5z" />
    <glyph glyph-name="uni02BC" unicode="&#x2bc;" horiz-adv-x="277" 
d="M100 446v23q24 4 34.5 17.5t10.5 48.5h-43v73h75l-1 -75q1 -39 -16.5 -63t-59.5 -24z" />
    <glyph glyph-name="uni02BE" unicode="&#x2be;" horiz-adv-x="271" 
d="M100 444v23q21 0 32 12.5t11 31.5q0 18 -11 29.5t-32 11.5v24q34 0 52 -18.5t19 -46.5q0 -29 -19 -48t-52 -19z" />
    <glyph glyph-name="uni02BF" unicode="&#x2bf;" horiz-adv-x="271" 
d="M171 444q-33 0 -52 19t-19 48q0 28 19 46.5t52 18.5v-24q-21 0 -32.5 -11.5t-11.5 -29.5q0 -19 11.5 -31.5t32.5 -12.5v-23z" />
    <glyph glyph-name="circumflex" unicode="&#x2c6;" horiz-adv-x="421" 
d="M100 451l84 154h53l83 -154h-41l-69 127l-69 -127h-41z" />
    <glyph glyph-name="caron" unicode="&#x2c7;" horiz-adv-x="412" 
d="M184 459l-84 151h40l68 -117l66 117h39l-82 -151h-47z" />
    <glyph glyph-name="uni02C8" unicode="&#x2c8;" horiz-adv-x="134" 
d="M44 393v200h45v-200h-45z" />
    <glyph glyph-name="uni02C9" unicode="&#x2c9;" horiz-adv-x="398" 
d="M100 477v34h198v-34h-198z" />
    <glyph glyph-name="uni02CA" unicode="&#x2ca;" horiz-adv-x="309" 
d="M100 480l49 135h60l-76 -135h-33z" />
    <glyph glyph-name="uni02CB" unicode="&#x2cb;" horiz-adv-x="309" 
d="M176 480l-76 135h60l49 -135h-33z" />
    <glyph glyph-name="uni02CC" unicode="&#x2cc;" horiz-adv-x="134" 
d="M44 -51v200h45v-200h-45z" />
    <glyph glyph-name="breve" unicode="&#x2d8;" horiz-adv-x="386" 
d="M193 465q-38 -1 -63 22t-30 63h36q11 -51 57 -51q22 0 36.5 13t19.5 38h37q-6 -40 -30.5 -62.5t-62.5 -22.5z" />
    <glyph glyph-name="dotaccent" unicode="&#x2d9;" horiz-adv-x="279" 
d="M140 470q-18 0 -29 11.5t-11 25.5q0 16 10.5 27t29.5 11q18 0 28.5 -10.5t10.5 -27.5q1 -13 -9.5 -25t-29.5 -12z" />
    <glyph glyph-name="ring" unicode="&#x2da;" horiz-adv-x="340" 
d="M170 444q-33 0 -52 19t-18 48q0 28 18.5 46.5t51.5 18.5q34 0 52 -18.5t18 -46.5q0 -29 -18.5 -48t-51.5 -19zM170 467q20 0 31.5 12.5t11.5 31.5q0 18 -11.5 29.5t-31.5 11.5t-31.5 -11.5t-11.5 -29.5q0 -19 11.5 -31.5t31.5 -12.5z" />
    <glyph glyph-name="ogonek" unicode="&#x2db;" horiz-adv-x="332" 
d="M166 -162q-31 0 -52.5 18.5t-21.5 49.5q0 24 14 47t40 47h34q-22 -22 -34.5 -42.5t-12.5 -40.5q0 -22 13.5 -33t32.5 -11q23 0 46 15v-31q-16 -9 -30 -14t-29 -5z" />
    <glyph glyph-name="tilde" unicode="&#x2dc;" horiz-adv-x="436" 
d="M277 476q-21 0 -42.5 10t-41.5 19.5t-37 9.5q-26 0 -30 -37h-26q2 38 18.5 57.5t43.5 19.5q19 0 39.5 -9.5t41 -19.5t36.5 -10q13 0 21.5 8.5t10.5 28.5h25q-1 -34 -14.5 -55.5t-44.5 -21.5z" />
    <glyph glyph-name="hungarumlaut" unicode="&#x2dd;" horiz-adv-x="432" 
d="M100 480l55 149h60l-81 -149h-34zM217 480l55 149h60l-81 -149h-34z" />
    <glyph glyph-name="gravecomb" unicode="&#x300;" horiz-adv-x="0" 
d="M-18 480l-76 135h60l49 -135h-33z" />
    <glyph glyph-name="acutecomb" unicode="&#x301;" horiz-adv-x="0" 
d="M-15 480l49 135h60l-76 -135h-33z" />
    <glyph glyph-name="uni0302" unicode="&#x302;" horiz-adv-x="0" 
d="M-110 451l84 154h53l83 -154h-41l-69 127l-69 -127h-41z" />
    <glyph glyph-name="tildecomb" unicode="&#x303;" horiz-adv-x="0" 
d="M59 476q-21 0 -42.5 10t-41.5 19.5t-37 9.5q-26 0 -30 -37h-26q2 38 18.5 57.5t43.5 19.5q19 0 39.5 -9.5t41 -19.5t36.5 -10q13 0 21.5 8.5t10.5 28.5h25q-1 -34 -14.5 -55.5t-44.5 -21.5z" />
    <glyph glyph-name="uni0304" unicode="&#x304;" horiz-adv-x="0" 
d="M-99 477v34h198v-34h-198z" />
    <glyph glyph-name="uni0306" unicode="&#x306;" horiz-adv-x="0" 
d="M0 465q-38 -1 -63 22t-30 63h36q11 -51 57 -51q22 0 36.5 13t19.5 38h37q-6 -40 -30.5 -62.5t-62.5 -22.5z" />
    <glyph glyph-name="uni0307" unicode="&#x307;" horiz-adv-x="0" 
d="M0 470q-18 0 -29 11.5t-11 25.5q0 16 10.5 27t29.5 11q18 0 28.5 -10.5t10.5 -27.5q1 -13 -9.5 -25t-29.5 -12z" />
    <glyph glyph-name="uni0308" unicode="&#x308;" horiz-adv-x="0" 
d="M-88 469q-16 0 -25.5 9.5t-9.5 24.5t9.5 24t25.5 9t25 -9t9 -25q0 -14 -9 -23.5t-25 -9.5zM88 469q-15 0 -24.5 9t-9.5 24q0 16 9.5 25t24.5 9q16 0 25.5 -9t9.5 -25q0 -15 -9.5 -24t-25.5 -9z" />
    <glyph glyph-name="hookabovecomb" unicode="&#x309;" horiz-adv-x="0" 
d="M0 437l-12 34q15 5 23.5 13.5t8.5 21.5q0 14 -9 21t-25 7q-11 0 -21.5 -3.5t-21.5 -9.5l-13 33q12 7 27 11.5t33 4.5q32 0 51.5 -17.5t19.5 -44.5t-16 -44.5t-45 -26.5z" />
    <glyph glyph-name="uni030A" unicode="&#x30a;" horiz-adv-x="0" 
d="M0 444q-33 0 -52 19t-18 48q0 28 18.5 46.5t51.5 18.5q34 0 52 -18.5t18 -46.5q0 -29 -18.5 -48t-51.5 -19zM0 467q20 0 31.5 12.5t11.5 31.5q0 18 -11.5 29.5t-31.5 11.5t-31.5 -11.5t-11.5 -29.5q0 -19 11.5 -31.5t31.5 -12.5z" />
    <glyph glyph-name="uni030B" unicode="&#x30b;" horiz-adv-x="0" 
d="M-70 480l55 149h60l-81 -149h-34zM47 480l55 149h60l-81 -149h-34z" />
    <glyph glyph-name="uni030C" unicode="&#x30c;" horiz-adv-x="0" 
d="M-23 459l-84 151h40l68 -117l66 117h39l-82 -151h-47z" />
    <glyph glyph-name="uni030F" unicode="&#x30f;" horiz-adv-x="0" 
d="M-86 480l-82 149h60l55 -149h-33zM32 480l-82 149h60l54 -149h-32z" />
    <glyph glyph-name="uni0311" unicode="&#x311;" horiz-adv-x="0" 
d="M-97 460q6 42 31.5 65.5t65.5 23.5t65.5 -23.5t30.5 -65.5h-41q-11 49 -55 49q-45 0 -55 -49h-42z" />
    <glyph glyph-name="uni0312" unicode="&#x312;" horiz-adv-x="0" 
d="M39 634v-23q-28 -4 -37.5 -22.5t-9.5 -48.5h42v-69h-74v73q0 39 17.5 65t61.5 25z" />
    <glyph glyph-name="uni031B" unicode="&#x31b;" horiz-adv-x="0" 
d="M-18 359v34h10q28 0 48 15t23 52h58q-6 -47 -37 -74t-81 -27h-21z" />
    <glyph glyph-name="dotbelowcomb" unicode="&#x323;" horiz-adv-x="0" 
d="M0 -125q-18 0 -29 11.5t-11 25.5q0 15 10.5 26t29.5 11q18 0 28.5 -10.5t10.5 -26.5q1 -14 -9.5 -25.5t-29.5 -11.5z" />
    <glyph glyph-name="uni0324" unicode="&#x324;" horiz-adv-x="0" 
d="M-88 -118q-16 0 -25.5 9.5t-9.5 24.5t9.5 24t25.5 9t25 -9t9 -25q0 -14 -9 -23.5t-25 -9.5zM88 -118q-15 0 -24.5 9t-9.5 24q0 16 9.5 25t24.5 9q16 0 25.5 -9t9.5 -25q0 -15 -9.5 -24t-25.5 -9z" />
    <glyph glyph-name="uni0326" unicode="&#x326;" horiz-adv-x="0" 
d="M-40 -214v23q28 4 37.5 22.5t9.5 48.5h-42v69h74v-73q0 -39 -17.5 -65t-61.5 -25z" />
    <glyph glyph-name="uni0327" unicode="&#x327;" horiz-adv-x="0" 
d="M-1 -162q-36 0 -71 17v22q14 -4 27 -6t23 -2q17 0 27.5 5.5t10.5 18.5t-13 20.5t-46 8.5l31 78h25l-17 -57q35 -2 51.5 -17t16.5 -36q0 -28 -19.5 -40t-45.5 -12z" />
    <glyph glyph-name="uni0328" unicode="&#x328;" horiz-adv-x="0" 
d="M-14 -162q-31 0 -52.5 18.5t-21.5 49.5q0 24 14 47t40 47h34q-22 -22 -34.5 -42.5t-12.5 -40.5q0 -22 13.5 -33t32.5 -11q23 0 46 15v-31q-16 -9 -30 -14t-29 -5z" />
    <glyph glyph-name="uni032E" unicode="&#x32e;" horiz-adv-x="0" 
d="M0 -136q-38 -1 -63 22t-30 63h36q11 -51 57 -51q22 0 36.5 13t19.5 38h37q-6 -40 -30.5 -62.5t-62.5 -22.5z" />
    <glyph glyph-name="uni0331" unicode="&#x331;" horiz-adv-x="0" 
d="M-99 -78v34h198v-34h-198z" />
    <glyph glyph-name="uni0335" unicode="&#x335;" horiz-adv-x="0" 
d="M-192 221v41h383v-41h-383z" />
    <glyph glyph-name="uni0394" unicode="&#x394;" horiz-adv-x="570" 
d="M41 0v25l213 538h52l223 -538v-25h-488zM93 40h370l-190 467z" />
    <glyph glyph-name="Sigma" unicode="&#x3a3;" horiz-adv-x="438" 
d="M49 0v30l208 248l-200 256v29h344v-42h-270l196 -243l-204 -234h295v-44h-369z" />
    <glyph glyph-name="uni03A9" unicode="&#x3a9;" horiz-adv-x="696" 
d="M75 0v39h149q-52 32 -86.5 75t-51.5 92.5t-17 98.5q0 69 32.5 130.5t95 99.5t151.5 38q90 0 152 -38t94.5 -99.5t32.5 -130.5q0 -49 -16.5 -98.5t-51 -92.5t-87.5 -75h149v-39h-211v39q53 29 88.5 72.5t52.5 94t17 100.5q0 58 -24.5 109t-73.5 82.5t-122 31.5t-122 -31.5
t-73.5 -82.5t-24.5 -109q0 -50 17 -100.5t52.5 -94t88.5 -72.5v-39h-211z" />
    <glyph glyph-name="uni03BC" unicode="&#x3bc;" 
d="M85 -142v335h54v-335h-54zM211 -10q-47 0 -75 18.5t-39.5 47.5t-11.5 58v240h-71v39h125v-275q0 -36 20 -60.5t62 -24.5q50 0 89.5 21t77.5 57l-24 -33v276h-72v39h126v-354h73v-39h-124l-3 64l26 5q-41 -37 -85.5 -58t-93.5 -21z" />
    <glyph glyph-name="pi" unicode="&#x3c0;" horiz-adv-x="558" 
d="M439 -7q-49 0 -71.5 29t-22.5 85q0 30 6.5 70t17.5 83t22 80h-160l-22 -223q-3 -42 -16.5 -68t-42.5 -38t-83 -12v26q29 0 47 11t29.5 33.5t16.5 58.5l32 212h-43q-20 0 -32 -14t-13 -44h-29q0 29 8 54.5t27.5 41t52.5 15.5h349v-53h-89q-7 -40 -13.5 -83t-10.5 -80.5
t-4 -60.5q0 -43 16.5 -64t47.5 -21q9 0 20 2t22 5v-29q-15 -7 -31 -11.5t-31 -4.5z" />
    <glyph glyph-name="uni1E02" unicode="&#x1e02;" horiz-adv-x="603" 
d="M48 0v39h81v485h-81v39h297q87 0 133.5 -35t46.5 -104q0 -48 -23 -81t-62 -44q42 -8 67.5 -29.5t37.5 -50.5t12 -62q0 -42 -18.5 -78t-58.5 -57.5t-103 -21.5h-329zM188 39h180q66 0 98 32.5t32 87.5q0 50 -33.5 83.5t-104.5 33.5h-172v-237zM188 316h166q61 0 87.5 29.5
t26.5 76.5q0 55 -34 78.5t-104 23.5h-142v-208zM268 640q-18 0 -29 11.5t-11 25.5q0 16 10.5 27t29.5 11q18 0 28.5 -10.5t10.5 -27.5q1 -13 -9.5 -25t-29.5 -12z" />
    <glyph glyph-name="uni1E03" unicode="&#x1e03;" horiz-adv-x="516" 
d="M283 -10q-45 0 -84 18t-67 53l21 -12v-49h-125v39h71v495h-68v39h122v-234l-24 -5q34 33 78.5 51t86.5 18q56 0 100 -23.5t69.5 -68.5t25.5 -109q0 -67 -27.5 -114.5t-74 -72.5t-104.5 -25zM275 30q69 0 113.5 43.5t44.5 122.5q0 78 -42 122t-110 44q-37 0 -78 -18.5
t-75 -52.5l25 36v-263l-22 37q28 -32 67 -51.5t77 -19.5zM305 470q-18 0 -29 11.5t-11 25.5q0 16 10.5 27t29.5 11q18 0 28.5 -10.5t10.5 -27.5q1 -13 -9.5 -25t-29.5 -12z" />
    <glyph glyph-name="uni1E08" unicode="&#x1e08;" horiz-adv-x="674" 
d="M346 -11q-60 0 -112.5 19.5t-93.5 57.5t-64 92.5t-23 124.5q0 82 36.5 148t102.5 104t155 38q60 0 104.5 -17.5t74.5 -49t47 -73.5l-18 2v128h45v-164l-39 -4q-34 69 -84 101.5t-128 32.5q-74 0 -127.5 -33.5t-81.5 -89.5t-28 -123q0 -60 19 -106.5t52.5 -78.5t76 -48.5
t89.5 -16.5q43 0 84.5 12.5t76 40.5t55.5 76l42 -22q-26 -56 -66 -89t-89.5 -47t-105.5 -15zM342 -162q-36 0 -71 17v22q14 -4 27 -6t23 -2q17 0 27.5 5.5t10.5 18.5t-13 20.5t-46 8.5l31 78h25l-17 -57q35 -2 51.5 -17t16.5 -36q0 -28 -19.5 -40t-45.5 -12zM335 650l49 135
h60l-76 -135h-33z" />
    <glyph glyph-name="uni1E09" unicode="&#x1e09;" horiz-adv-x="468" 
d="M237 -10q-61 0 -108 27t-74 74t-27 108q0 60 26 106t72.5 72.5t105.5 26.5q56 0 95 -25.5t50 -63.5h-12v79h47v-129h-42q-8 44 -42 70.5t-85 26.5q-47 0 -83 -21t-56.5 -57.5t-20.5 -84.5q0 -49 20.5 -86.5t56 -59t81.5 -21.5q51 0 85 18.5t64 50.5l22 -33
q-31 -36 -74 -57t-101 -21zM229 -162q-36 0 -71 17v22q14 -4 27 -6t23 -2q17 0 27.5 5.5t10.5 18.5t-13 20.5t-46 8.5l31 78h25l-17 -57q35 -2 51.5 -17t16.5 -36q0 -28 -19.5 -40t-45.5 -12zM226 480l49 135h60l-76 -135h-33z" />
    <glyph glyph-name="uni1E0A" unicode="&#x1e0a;" horiz-adv-x="690" 
d="M49 0v39h81v485h-81v39h319q69 0 119 -24.5t83.5 -65.5t49.5 -90.5t16 -98.5q0 -56 -16.5 -107t-50 -90.5t-83.5 -63t-116 -23.5h-321zM189 39h174q55 0 95.5 20t66.5 54.5t38.5 78t12.5 90.5q0 45 -13 87.5t-39 77.5t-65.5 56t-92.5 21h-177v-485zM374 640
q-18 0 -29 11.5t-11 25.5q0 16 10.5 27t29.5 11q18 0 28.5 -10.5t10.5 -27.5q1 -13 -9.5 -25t-29.5 -12z" />
    <glyph glyph-name="uni1E0B" unicode="&#x1e0b;" 
d="M233 -11q-57 0 -103 25.5t-73.5 72.5t-27.5 110q0 65 26.5 110.5t71.5 70.5t101 25q45 0 88.5 -17t72.5 -49l-22 2v195h-68v39h122v-534h64v-39h-118v52l22 2q-29 -29 -68.5 -47t-87.5 -18zM243 30q43 0 80.5 18t66.5 46l-23 -31v267l23 -34q-31 32 -72 49t-81 17
q-44 0 -78.5 -20.5t-54 -58.5t-19.5 -91q0 -50 21 -86t56.5 -56t80.5 -20zM394 650q-18 0 -29 11.5t-11 25.5q0 16 10.5 27t29.5 11q18 0 28.5 -10.5t10.5 -27.5q1 -13 -9.5 -25t-29.5 -12z" />
    <glyph glyph-name="uni1E0C" unicode="&#x1e0c;" horiz-adv-x="690" 
d="M49 0v39h81v485h-81v39h319q69 0 119 -24.5t83.5 -65.5t49.5 -90.5t16 -98.5q0 -56 -16.5 -107t-50 -90.5t-83.5 -63t-116 -23.5h-321zM189 39h174q55 0 95.5 20t66.5 54.5t38.5 78t12.5 90.5q0 45 -13 87.5t-39 77.5t-65.5 56t-92.5 21h-177v-485zM375 -125
q-18 0 -29 11.5t-11 25.5q0 15 10.5 26t29.5 11q18 0 28.5 -10.5t10.5 -26.5q1 -14 -9.5 -25.5t-29.5 -11.5z" />
    <glyph glyph-name="uni1E0D" unicode="&#x1e0d;" 
d="M233 -11q-57 0 -103 25.5t-73.5 72.5t-27.5 110q0 65 26.5 110.5t71.5 70.5t101 25q45 0 88.5 -17t72.5 -49l-22 2v195h-68v39h122v-534h64v-39h-118v52l22 2q-29 -29 -68.5 -47t-87.5 -18zM243 30q43 0 80.5 18t66.5 46l-23 -31v267l23 -34q-31 32 -72 49t-81 17
q-44 0 -78.5 -20.5t-54 -58.5t-19.5 -91q0 -50 21 -86t56.5 -56t80.5 -20zM265 -125q-18 0 -29 11.5t-11 25.5q0 15 10.5 26t29.5 11q18 0 28.5 -10.5t10.5 -26.5q1 -14 -9.5 -25.5t-29.5 -11.5z" />
    <glyph glyph-name="uni1E0E" unicode="&#x1e0e;" horiz-adv-x="690" 
d="M49 0v39h81v485h-81v39h319q69 0 119 -24.5t83.5 -65.5t49.5 -90.5t16 -98.5q0 -56 -16.5 -107t-50 -90.5t-83.5 -63t-116 -23.5h-321zM189 39h174q55 0 95.5 20t66.5 54.5t38.5 78t12.5 90.5q0 45 -13 87.5t-39 77.5t-65.5 56t-92.5 21h-177v-485zM276 -78v34h198v-34
h-198z" />
    <glyph glyph-name="uni1E0F" unicode="&#x1e0f;" 
d="M233 -11q-57 0 -103 25.5t-73.5 72.5t-27.5 110q0 65 26.5 110.5t71.5 70.5t101 25q45 0 88.5 -17t72.5 -49l-22 2v195h-68v39h122v-534h64v-39h-118v52l22 2q-29 -29 -68.5 -47t-87.5 -18zM243 30q43 0 80.5 18t66.5 46l-23 -31v267l23 -34q-31 32 -72 49t-81 17
q-44 0 -78.5 -20.5t-54 -58.5t-19.5 -91q0 -50 21 -86t56.5 -56t80.5 -20zM166 -78v34h198v-34h-198z" />
    <glyph glyph-name="uni1E14" unicode="&#x1e14;" horiz-adv-x="589" 
d="M48 0v39h81v485h-81v39h477v-164h-47v125h-290v-214h189v73h33v-190h-33v76h-189v-230h298v128h47v-167h-485zM219 647v34h198v-34h-198zM300 757l-76 135h60l49 -135h-33z" />
    <glyph glyph-name="uni1E15" unicode="&#x1e15;" horiz-adv-x="467" 
d="M243 -12q-59 0 -108 25.5t-78.5 72.5t-29.5 110q0 67 28.5 113t75 70.5t101.5 24.5q56 0 99.5 -23.5t68 -70t24.5 -112.5v-13h-350l1 34h296q0 48 -19 80.5t-50.5 48.5t-69.5 16q-41 0 -75 -19.5t-54.5 -55.5t-20.5 -87q0 -52 20.5 -90.5t57 -60t81.5 -21.5
q46 0 87.5 19.5t68.5 48.5l19 -35q-32 -34 -76 -54.5t-97 -20.5zM138 477v34h198v-34h-198zM219 587l-76 135h60l49 -135h-33z" />
    <glyph glyph-name="uni1E16" unicode="&#x1e16;" horiz-adv-x="589" 
d="M48 0v39h81v485h-81v39h477v-164h-47v125h-290v-214h189v73h33v-190h-33v76h-189v-230h298v128h47v-167h-485zM219 647v34h198v-34h-198zM303 757l49 135h60l-76 -135h-33z" />
    <glyph glyph-name="uni1E17" unicode="&#x1e17;" horiz-adv-x="467" 
d="M243 -12q-59 0 -108 25.5t-78.5 72.5t-29.5 110q0 67 28.5 113t75 70.5t101.5 24.5q56 0 99.5 -23.5t68 -70t24.5 -112.5v-13h-350l1 34h296q0 48 -19 80.5t-50.5 48.5t-69.5 16q-41 0 -75 -19.5t-54.5 -55.5t-20.5 -87q0 -52 20.5 -90.5t57 -60t81.5 -21.5
q46 0 87.5 19.5t68.5 48.5l19 -35q-32 -34 -76 -54.5t-97 -20.5zM138 477v34h198v-34h-198zM222 587l49 135h60l-76 -135h-33z" />
    <glyph glyph-name="uni1E1C" unicode="&#x1e1c;" horiz-adv-x="589" 
d="M48 0v39h81v485h-81v39h477v-164h-47v125h-290v-214h189v73h33v-190h-33v76h-189v-230h298v128h47v-167h-485zM331 -162q-36 0 -71 17v22q14 -4 27 -6t23 -2q17 0 27.5 5.5t10.5 18.5t-13 20.5t-46 8.5l31 78h25l-17 -57q35 -2 51.5 -17t16.5 -36q0 -28 -19.5 -40
t-45.5 -12zM318 635q-38 -1 -63 22t-30 63h36q11 -51 57 -51q22 0 36.5 13t19.5 38h37q-6 -40 -30.5 -62.5t-62.5 -22.5z" />
    <glyph glyph-name="uni1E1D" unicode="&#x1e1d;" horiz-adv-x="467" 
d="M243 -12q-59 0 -108 25.5t-78.5 72.5t-29.5 110q0 67 28.5 113t75 70.5t101.5 24.5q56 0 99.5 -23.5t68 -70t24.5 -112.5v-13h-350l1 34h296q0 48 -19 80.5t-50.5 48.5t-69.5 16q-41 0 -75 -19.5t-54.5 -55.5t-20.5 -87q0 -52 20.5 -90.5t57 -60t81.5 -21.5
q46 0 87.5 19.5t68.5 48.5l19 -35q-32 -34 -76 -54.5t-97 -20.5zM236 -162q-36 0 -71 17v22q14 -4 27 -6t23 -2q17 0 27.5 5.5t10.5 18.5t-13 20.5t-46 8.5l31 78h25l-17 -57q35 -2 51.5 -17t16.5 -36q0 -28 -19.5 -40t-45.5 -12zM237 465q-38 -1 -63 22t-30 63h36
q11 -51 57 -51q22 0 36.5 13t19.5 38h37q-6 -40 -30.5 -62.5t-62.5 -22.5z" />
    <glyph glyph-name="uni1E1E" unicode="&#x1e1e;" horiz-adv-x="554" 
d="M48 0v39h81v485h-81v39h474v-172h-46v133h-288v-212h186v68h33v-185h-33v75h-186v-231h81v-39h-221zM306 640q-18 0 -29 11.5t-11 25.5q0 16 10.5 27t29.5 11q18 0 28.5 -10.5t10.5 -27.5q1 -13 -9.5 -25t-29.5 -12z" />
    <glyph glyph-name="uni1E1F" unicode="&#x1e1f;" horiz-adv-x="295" 
d="M47 0v39h76v315h-77v39h77v95q0 32 11 55t34.5 35t56.5 12q38 0 65 -18.5t31 -61.5l-42 -13q-4 26 -15.5 40.5t-35.5 14.5q-23 0 -37 -16t-14 -49v-94h114v-39h-114v-315h99v-39h-229zM225 657q-18 0 -29 11.5t-11 25.5q0 16 10.5 27t29.5 11q18 0 28.5 -10.5t10.5 -27.5
q1 -13 -9.5 -25t-29.5 -12z" />
    <glyph glyph-name="uni1E20" unicode="&#x1e20;" horiz-adv-x="683" 
d="M352 -10q-93 0 -160.5 37t-103.5 103.5t-36 153.5q0 88 37.5 152.5t104.5 100.5t157 36q79 0 138 -35t88 -94l-23 3v116h48v-164h-42q-27 63 -82 97t-125 34q-73 0 -126.5 -29.5t-83 -84t-29.5 -129.5q0 -78 29.5 -135t83.5 -87.5t127 -30.5q38 0 76 11t70 34.5t51 63.5
t19 98l28 -5h-150v41h179v-18q0 -72 -22 -123.5t-60.5 -83.5t-88 -47t-104.5 -15zM250 647v34h198v-34h-198z" />
    <glyph glyph-name="uni1E21" unicode="&#x1e21;" 
d="M234 -186q-33 0 -70 6.5t-74 16.5l10 43q38 -11 71.5 -17t61.5 -6q69 0 105 33t36 96v73l21 7q-28 -32 -72.5 -50.5t-87.5 -18.5q-58 0 -104 25t-73 70.5t-27 107.5q0 64 26 109t71 69t101 24q44 0 91 -19t73 -50l-19 6v54h121v-39h-67v-363q0 -62 -24.5 -101t-68 -57.5
t-101.5 -18.5zM244 37q39 0 81.5 18.5t70.5 49.5l-22 -34v254l23 -29q-31 29 -76 48t-86 19q-44 0 -77 -20.5t-52 -57.5t-19 -89q0 -49 20.5 -84.5t56 -55t80.5 -19.5zM144 477v34h198v-34h-198z" />
    <glyph glyph-name="uni1E24" unicode="&#x1e24;" horiz-adv-x="712" 
d="M48 0v39h81v485h-81v39h221v-39h-81v-216h336v216h-82v39h221v-39h-81v-485h81v-39h-221v39h82v227h-336v-227h81v-39h-221zM355 -125q-18 0 -29 11.5t-11 25.5q0 15 10.5 26t29.5 11q18 0 28.5 -10.5t10.5 -26.5q1 -14 -9.5 -25.5t-29.5 -11.5z" />
    <glyph glyph-name="uni1E25" unicode="&#x1e25;" horiz-adv-x="504" 
d="M11 0v39h73v495h-71v39h125v-234l-18 -3q45 30 87 48.5t86 18.5q55 0 90.5 -33t35.5 -94v-237h74v-39h-202v39h74v233q0 42 -22.5 65.5t-60.5 23.5t-80 -18t-81 -43l17 23v-284h67v-39h-194zM249 -125q-18 0 -29 11.5t-11 25.5q0 15 10.5 26t29.5 11q18 0 28.5 -10.5
t10.5 -26.5q1 -14 -9.5 -25.5t-29.5 -11.5z" />
    <glyph glyph-name="uni1E2A" unicode="&#x1e2a;" horiz-adv-x="712" 
d="M48 0v39h81v485h-81v39h221v-39h-81v-216h336v216h-82v39h221v-39h-81v-485h81v-39h-221v39h82v227h-336v-227h81v-39h-221zM355 -136q-38 -1 -63 22t-30 63h36q11 -51 57 -51q22 0 36.5 13t19.5 38h37q-6 -40 -30.5 -62.5t-62.5 -22.5z" />
    <glyph glyph-name="uni1E2B" unicode="&#x1e2b;" horiz-adv-x="504" 
d="M11 0v39h73v495h-71v39h125v-234l-18 -3q45 30 87 48.5t86 18.5q55 0 90.5 -33t35.5 -94v-237h74v-39h-202v39h74v233q0 42 -22.5 65.5t-60.5 23.5t-80 -18t-81 -43l17 23v-284h67v-39h-194zM249 -136q-38 -1 -63 22t-30 63h36q11 -51 57 -51q22 0 36.5 13t19.5 38h37
q-6 -40 -30.5 -62.5t-62.5 -22.5z" />
    <glyph glyph-name="uni1E2E" unicode="&#x1e2e;" horiz-adv-x="327" 
d="M52 0v39h81v485h-81v39h222v-39h-82v-485h82v-39h-222zM76 639q-16 0 -25.5 9.5t-9.5 24.5t9.5 24t25.5 9t25 -9t9 -25q0 -14 -9 -23.5t-25 -9.5zM252 639q-15 0 -24.5 9t-9.5 24q0 16 9.5 25t24.5 9q16 0 25.5 -9t9.5 -25q0 -15 -9.5 -24t-25.5 -9zM149 797l49 135h60
l-76 -135h-33z" />
    <glyph glyph-name="uni1E2F" unicode="&#x1e2f;" horiz-adv-x="253" 
d="M20 0v39h81v315h-80v39h133v-354h77v-39h-211zM31 469q-16 0 -25.5 9.5t-9.5 24.5t9.5 24t25.5 9t25 -9t9 -25q0 -14 -9 -23.5t-25 -9.5zM207 469q-15 0 -24.5 9t-9.5 24q0 16 9.5 25t24.5 9q16 0 25.5 -9t9.5 -25q0 -15 -9.5 -24t-25.5 -9zM104 627l49 135h60l-76 -135
h-33z" />
    <glyph glyph-name="uni1E36" unicode="&#x1e36;" horiz-adv-x="521" 
d="M48 0v39h81v485h-81v39h221v-39h-81v-485h260v167h47v-206h-447zM292 -125q-18 0 -29 11.5t-11 25.5q0 15 10.5 26t29.5 11q18 0 28.5 -10.5t10.5 -26.5q1 -14 -9.5 -25.5t-29.5 -11.5z" />
    <glyph glyph-name="uni1E37" unicode="&#x1e37;" horiz-adv-x="244" 
d="M27 0v39h73v495h-70v39h124v-534h68v-39h-195zM127 -125q-18 0 -29 11.5t-11 25.5q0 15 10.5 26t29.5 11q18 0 28.5 -10.5t10.5 -26.5q1 -14 -9.5 -25.5t-29.5 -11.5z" />
    <glyph glyph-name="uni1E3A" unicode="&#x1e3a;" horiz-adv-x="521" 
d="M48 0v39h81v485h-81v39h221v-39h-81v-485h260v167h47v-206h-447zM193 -78v34h198v-34h-198z" />
    <glyph glyph-name="uni1E3B" unicode="&#x1e3b;" horiz-adv-x="244" 
d="M27 0v39h73v495h-70v39h124v-534h68v-39h-195zM28 -78v34h198v-34h-198z" />
    <glyph glyph-name="uni1E40" unicode="&#x1e40;" horiz-adv-x="774" 
d="M34 0v39h75v485h-75v39h154l203 -423l192 423h157v-39h-75v-485h75v-39h-206v39h74v465l-214 -467h-18l-221 467v-465h75v-39h-196zM383 640q-18 0 -29 11.5t-11 25.5q0 16 10.5 27t29.5 11q18 0 28.5 -10.5t10.5 -27.5q1 -13 -9.5 -25t-29.5 -12z" />
    <glyph glyph-name="uni1E41" unicode="&#x1e41;" horiz-adv-x="779" 
d="M20 0v39h81v315h-80v39h133v-48l-20 -5q42 29 86.5 46t82.5 17q60 0 92.5 -36.5t32.5 -92.5v-235h72v-39h-200v39h74v233q0 42 -22.5 65.5t-61.5 23.5q-31 0 -73 -16t-85 -42l22 23v-287h77v-39h-211zM576 0v39h75v233q0 42 -23 65.5t-62 23.5q-35 0 -74.5 -14.5
t-75.5 -40.5l-12 32q44 29 85.5 47t89.5 18q54 0 89.5 -33t35.5 -94v-237h73v-39h-201zM408 470q-18 0 -29 11.5t-11 25.5q0 16 10.5 27t29.5 11q18 0 28.5 -10.5t10.5 -27.5q1 -13 -9.5 -25t-29.5 -12z" />
    <glyph glyph-name="uni1E42" unicode="&#x1e42;" horiz-adv-x="774" 
d="M34 0v39h75v485h-75v39h154l203 -423l192 423h157v-39h-75v-485h75v-39h-206v39h74v465l-214 -467h-18l-221 467v-465h75v-39h-196zM385 -125q-18 0 -29 11.5t-11 25.5q0 15 10.5 26t29.5 11q18 0 28.5 -10.5t10.5 -26.5q1 -14 -9.5 -25.5t-29.5 -11.5z" />
    <glyph glyph-name="uni1E43" unicode="&#x1e43;" horiz-adv-x="779" 
d="M20 0v39h81v315h-80v39h133v-48l-20 -5q42 29 86.5 46t82.5 17q60 0 92.5 -36.5t32.5 -92.5v-235h72v-39h-200v39h74v233q0 42 -22.5 65.5t-61.5 23.5q-31 0 -73 -16t-85 -42l22 23v-287h77v-39h-211zM576 0v39h75v233q0 42 -23 65.5t-62 23.5q-35 0 -74.5 -14.5
t-75.5 -40.5l-12 32q44 29 85.5 47t89.5 18q54 0 89.5 -33t35.5 -94v-237h73v-39h-201zM401 -125q-18 0 -29 11.5t-11 25.5q0 15 10.5 26t29.5 11q18 0 28.5 -10.5t10.5 -26.5q1 -14 -9.5 -25.5t-29.5 -11.5z" />
    <glyph glyph-name="uni1E44" unicode="&#x1e44;" horiz-adv-x="704" 
d="M51 0v39h77v485h-77v39h141l363 -484v445h-78v39h196v-39h-71v-524h-59l-368 496v-457h76v-39h-200zM351 640q-18 0 -29 11.5t-11 25.5q0 16 10.5 27t29.5 11q18 0 28.5 -10.5t10.5 -27.5q1 -13 -9.5 -25t-29.5 -12z" />
    <glyph glyph-name="uni1E45" unicode="&#x1e45;" horiz-adv-x="508" 
d="M20 0v39h81v315h-80v39h133v-52l-19 -2q42 28 85 46t87 18q54 0 89.5 -33t35.5 -94v-237h74v-39h-202v39h74v233q0 42 -22.5 65.5t-61.5 23.5q-36 0 -76.5 -16.5t-83.5 -43.5l20 24v-286h77v-39h-211zM274 470q-18 0 -29 11.5t-11 25.5q0 16 10.5 27t29.5 11
q18 0 28.5 -10.5t10.5 -27.5q1 -13 -9.5 -25t-29.5 -12z" />
    <glyph glyph-name="uni1E46" unicode="&#x1e46;" horiz-adv-x="704" 
d="M51 0v39h77v485h-77v39h141l363 -484v445h-78v39h196v-39h-71v-524h-59l-368 496v-457h76v-39h-200zM375 -125q-18 0 -29 11.5t-11 25.5q0 15 10.5 26t29.5 11q18 0 28.5 -10.5t10.5 -26.5q1 -14 -9.5 -25.5t-29.5 -11.5z" />
    <glyph glyph-name="uni1E47" unicode="&#x1e47;" horiz-adv-x="508" 
d="M20 0v39h81v315h-80v39h133v-52l-19 -2q42 28 85 46t87 18q54 0 89.5 -33t35.5 -94v-237h74v-39h-202v39h74v233q0 42 -22.5 65.5t-61.5 23.5q-36 0 -76.5 -16.5t-83.5 -43.5l20 24v-286h77v-39h-211zM274 -125q-18 0 -29 11.5t-11 25.5q0 15 10.5 26t29.5 11
q18 0 28.5 -10.5t10.5 -26.5q1 -14 -9.5 -25.5t-29.5 -11.5z" />
    <glyph glyph-name="uni1E48" unicode="&#x1e48;" horiz-adv-x="704" 
d="M51 0v39h77v485h-77v39h141l363 -484v445h-78v39h196v-39h-71v-524h-59l-368 496v-457h76v-39h-200zM276 -78v34h198v-34h-198z" />
    <glyph glyph-name="uni1E49" unicode="&#x1e49;" horiz-adv-x="508" 
d="M20 0v39h81v315h-80v39h133v-52l-19 -2q42 28 85 46t87 18q54 0 89.5 -33t35.5 -94v-237h74v-39h-202v39h74v233q0 42 -22.5 65.5t-61.5 23.5q-36 0 -76.5 -16.5t-83.5 -43.5l20 24v-286h77v-39h-211zM175 -78v34h198v-34h-198z" />
    <glyph glyph-name="uni1E4C" unicode="&#x1e4c;" horiz-adv-x="709" 
d="M354 -11q-72 0 -128 24t-94 65.5t-58 93.5t-20 108t20 108.5t58.5 94t94.5 66t127 24.5q72 0 128 -24.5t94.5 -66t58.5 -94t20 -108.5q0 -57 -19.5 -109t-58 -93t-94.5 -65t-129 -24zM354 33q59 0 103.5 20t75 55.5t45.5 79.5t15 92t-15 92.5t-45.5 80t-75 56.5
t-103.5 21t-103 -21t-74 -57t-45 -80.5t-15 -92.5t14.5 -92.5t44.5 -79.5t74.5 -54.5t103.5 -19.5zM412 646q-21 0 -42.5 10t-41.5 19.5t-37 9.5q-26 0 -30 -37h-26q2 38 18.5 57.5t43.5 19.5q19 0 39.5 -9.5t41 -19.5t36.5 -10q13 0 21.5 8.5t10.5 28.5h25
q-1 -34 -14.5 -55.5t-44.5 -21.5zM339 795l49 135h60l-76 -135h-33z" />
    <glyph glyph-name="uni1E4D" unicode="&#x1e4d;" horiz-adv-x="478" 
d="M238 -12q-62 0 -109.5 26.5t-74.5 73.5t-27 110q0 62 27 108.5t74.5 72t109.5 25.5q63 0 111 -25.5t75 -72t27 -108.5t-27 -109.5t-75 -74t-111 -26.5zM238 30q47 0 82.5 21.5t55.5 59t20 87.5q0 49 -20 86t-55.5 57.5t-82.5 20.5q-46 0 -81 -20.5t-55 -57.5t-20 -86
q0 -50 20 -87.5t55 -59t81 -21.5zM296 476q-21 0 -42.5 10t-41.5 19.5t-37 9.5q-26 0 -30 -37h-26q2 38 18.5 57.5t43.5 19.5q19 0 39.5 -9.5t41 -19.5t36.5 -10q13 0 21.5 8.5t10.5 28.5h25q-1 -34 -14.5 -55.5t-44.5 -21.5zM223 625l49 135h60l-76 -135h-33z" />
    <glyph glyph-name="uni1E4E" unicode="&#x1e4e;" horiz-adv-x="709" 
d="M354 -11q-72 0 -128 24t-94 65.5t-58 93.5t-20 108t20 108.5t58.5 94t94.5 66t127 24.5q72 0 128 -24.5t94.5 -66t58.5 -94t20 -108.5q0 -57 -19.5 -109t-58 -93t-94.5 -65t-129 -24zM354 33q59 0 103.5 20t75 55.5t45.5 79.5t15 92t-15 92.5t-45.5 80t-75 56.5
t-103.5 21t-103 -21t-74 -57t-45 -80.5t-15 -92.5t14.5 -92.5t44.5 -79.5t74.5 -54.5t103.5 -19.5zM412 646q-21 0 -42.5 10t-41.5 19.5t-37 9.5q-26 0 -30 -37h-26q2 38 18.5 57.5t43.5 19.5q19 0 39.5 -9.5t41 -19.5t36.5 -10q13 0 21.5 8.5t10.5 28.5h25
q-1 -34 -14.5 -55.5t-44.5 -21.5zM266 784q-16 0 -25.5 9.5t-9.5 24.5t9.5 24t25.5 9t25 -9t9 -25q0 -14 -9 -23.5t-25 -9.5zM442 784q-15 0 -24.5 9t-9.5 24q0 16 9.5 25t24.5 9q16 0 25.5 -9t9.5 -25q0 -15 -9.5 -24t-25.5 -9z" />
    <glyph glyph-name="uni1E4F" unicode="&#x1e4f;" horiz-adv-x="478" 
d="M238 -12q-62 0 -109.5 26.5t-74.5 73.5t-27 110q0 62 27 108.5t74.5 72t109.5 25.5q63 0 111 -25.5t75 -72t27 -108.5t-27 -109.5t-75 -74t-111 -26.5zM238 30q47 0 82.5 21.5t55.5 59t20 87.5q0 49 -20 86t-55.5 57.5t-82.5 20.5q-46 0 -81 -20.5t-55 -57.5t-20 -86
q0 -50 20 -87.5t55 -59t81 -21.5zM296 476q-21 0 -42.5 10t-41.5 19.5t-37 9.5q-26 0 -30 -37h-26q2 38 18.5 57.5t43.5 19.5q19 0 39.5 -9.5t41 -19.5t36.5 -10q13 0 21.5 8.5t10.5 28.5h25q-1 -34 -14.5 -55.5t-44.5 -21.5zM150 614q-16 0 -25.5 9.5t-9.5 24.5t9.5 24
t25.5 9t25 -9t9 -25q0 -14 -9 -23.5t-25 -9.5zM326 614q-15 0 -24.5 9t-9.5 24q0 16 9.5 25t24.5 9q16 0 25.5 -9t9.5 -25q0 -15 -9.5 -24t-25.5 -9z" />
    <glyph glyph-name="uni1E50" unicode="&#x1e50;" horiz-adv-x="709" 
d="M354 -11q-72 0 -128 24t-94 65.5t-58 93.5t-20 108t20 108.5t58.5 94t94.5 66t127 24.5q72 0 128 -24.5t94.5 -66t58.5 -94t20 -108.5q0 -57 -19.5 -109t-58 -93t-94.5 -65t-129 -24zM354 33q59 0 103.5 20t75 55.5t45.5 79.5t15 92t-15 92.5t-45.5 80t-75 56.5
t-103.5 21t-103 -21t-74 -57t-45 -80.5t-15 -92.5t14.5 -92.5t44.5 -79.5t74.5 -54.5t103.5 -19.5zM254 647v34h198v-34h-198zM335 757l-76 135h60l49 -135h-33z" />
    <glyph glyph-name="uni1E51" unicode="&#x1e51;" horiz-adv-x="478" 
d="M238 -12q-62 0 -109.5 26.5t-74.5 73.5t-27 110q0 62 27 108.5t74.5 72t109.5 25.5q63 0 111 -25.5t75 -72t27 -108.5t-27 -109.5t-75 -74t-111 -26.5zM238 30q47 0 82.5 21.5t55.5 59t20 87.5q0 49 -20 86t-55.5 57.5t-82.5 20.5q-46 0 -81 -20.5t-55 -57.5t-20 -86
q0 -50 20 -87.5t55 -59t81 -21.5zM138 477v34h198v-34h-198zM219 587l-76 135h60l49 -135h-33z" />
    <glyph glyph-name="uni1E52" unicode="&#x1e52;" horiz-adv-x="709" 
d="M354 -11q-72 0 -128 24t-94 65.5t-58 93.5t-20 108t20 108.5t58.5 94t94.5 66t127 24.5q72 0 128 -24.5t94.5 -66t58.5 -94t20 -108.5q0 -57 -19.5 -109t-58 -93t-94.5 -65t-129 -24zM354 33q59 0 103.5 20t75 55.5t45.5 79.5t15 92t-15 92.5t-45.5 80t-75 56.5
t-103.5 21t-103 -21t-74 -57t-45 -80.5t-15 -92.5t14.5 -92.5t44.5 -79.5t74.5 -54.5t103.5 -19.5zM254 647v34h198v-34h-198zM338 757l49 135h60l-76 -135h-33z" />
    <glyph glyph-name="uni1E53" unicode="&#x1e53;" horiz-adv-x="478" 
d="M238 -12q-62 0 -109.5 26.5t-74.5 73.5t-27 110q0 62 27 108.5t74.5 72t109.5 25.5q63 0 111 -25.5t75 -72t27 -108.5t-27 -109.5t-75 -74t-111 -26.5zM238 30q47 0 82.5 21.5t55.5 59t20 87.5q0 49 -20 86t-55.5 57.5t-82.5 20.5q-46 0 -81 -20.5t-55 -57.5t-20 -86
q0 -50 20 -87.5t55 -59t81 -21.5zM138 477v34h198v-34h-198zM222 587l49 135h60l-76 -135h-33z" />
    <glyph glyph-name="uni1E56" unicode="&#x1e56;" horiz-adv-x="576" 
d="M48 0v39h81v485h-81v39h289q91 0 140.5 -40t49.5 -115q0 -82 -49.5 -126.5t-142.5 -44.5h-105v39h104q63 0 98 34.5t35 96.5q0 56 -32.5 86.5t-92.5 30.5h-154v-485h81v-39h-221zM307 640q-18 0 -29 11.5t-11 25.5q0 16 10.5 27t29.5 11q18 0 28.5 -10.5t10.5 -27.5
q1 -13 -9.5 -25t-29.5 -12z" />
    <glyph glyph-name="uni1E57" unicode="&#x1e57;" horiz-adv-x="510" 
d="M24 -155v39h70v470h-66v39h117l1 -48l-23 -12q30 32 74.5 51t89.5 19q56 0 100 -24.5t69 -70t25 -109.5q0 -65 -26.5 -112t-72 -72t-101.5 -25q-30 0 -59.5 8.5t-53 23.5t-37.5 33l17 -4l-1 -167h73v-39h-196zM273 30q67 0 110 44t43 122q0 76 -42.5 120.5t-108.5 44.5
q-23 0 -50.5 -8t-54.5 -23t-47 -38l24 38l1 -262l-22 31q28 -31 68.5 -50t78.5 -19zM277 470q-18 0 -29 11.5t-11 25.5q0 16 10.5 27t29.5 11q18 0 28.5 -10.5t10.5 -27.5q1 -13 -9.5 -25t-29.5 -12z" />
    <glyph glyph-name="uni1E5A" unicode="&#x1e5a;" horiz-adv-x="624" 
d="M48 0v39h81v485h-81v39h301q58 0 97.5 -19t59.5 -52.5t20 -76.5q0 -38 -15 -70.5t-49.5 -53.5t-93.5 -26l139 -226h83v-39h-123l-156 260h-88v41h107q56 0 85.5 17.5t41 43.5t11.5 52q0 28 -11.5 53t-37.5 41t-69 16h-162v-485h81v-39h-221zM334 -125q-18 0 -29 11.5
t-11 25.5q0 15 10.5 26t29.5 11q18 0 28.5 -10.5t10.5 -26.5q1 -14 -9.5 -25.5t-29.5 -11.5z" />
    <glyph glyph-name="uni1E5B" unicode="&#x1e5b;" horiz-adv-x="376" 
d="M44 0v39h81v315h-80v39h133v-120l-12 1q9 47 26.5 74.5t40 39.5t46.5 12q20 0 39 -5t38 -15l-13 -47q-17 10 -32.5 15t-34.5 5q-39 0 -68 -35.5t-29 -99.5l-1 -179h76v-39h-210zM153 -125q-18 0 -29 11.5t-11 25.5q0 15 10.5 26t29.5 11q18 0 28.5 -10.5t10.5 -26.5
q1 -14 -9.5 -25.5t-29.5 -11.5z" />
    <glyph glyph-name="uni1E5E" unicode="&#x1e5e;" horiz-adv-x="624" 
d="M48 0v39h81v485h-81v39h301q58 0 97.5 -19t59.5 -52.5t20 -76.5q0 -38 -15 -70.5t-49.5 -53.5t-93.5 -26l139 -226h83v-39h-123l-156 260h-88v41h107q56 0 85.5 17.5t41 43.5t11.5 52q0 28 -11.5 53t-37.5 41t-69 16h-162v-485h81v-39h-221zM235 -78v34h198v-34h-198z
" />
    <glyph glyph-name="uni1E5F" unicode="&#x1e5f;" horiz-adv-x="376" 
d="M44 0v39h81v315h-80v39h133v-120l-12 1q9 47 26.5 74.5t40 39.5t46.5 12q20 0 39 -5t38 -15l-13 -47q-17 10 -32.5 15t-34.5 5q-39 0 -68 -35.5t-29 -99.5l-1 -179h76v-39h-210zM54 -78v34h198v-34h-198z" />
    <glyph glyph-name="uni1E60" unicode="&#x1e60;" horiz-adv-x="536" 
d="M305 -10q-46 0 -84 12.5t-64.5 36t-39.5 55.5h9v-94h-48v190h45q3 -47 22.5 -82.5t58.5 -55.5t99 -20q62 0 95 29t33 81q0 38 -12.5 60.5t-41.5 35.5t-78 20l-49 7q-82 13 -128 50t-46 109q0 47 21 80.5t61 51.5t95 18q65 0 111.5 -27.5t61.5 -73.5h-15v90h48v-155h-45
q-2 31 -18 59t-50.5 46t-90.5 18q-61 0 -93.5 -28.5t-32.5 -74.5q0 -53 34.5 -77t96.5 -35l49 -7q60 -9 99 -27.5t57.5 -50.5t18.5 -82q0 -44 -21 -80.5t-60.5 -57.5t-97.5 -21zM277 640q-18 0 -29 11.5t-11 25.5q0 16 10.5 27t29.5 11q18 0 28.5 -10.5t10.5 -27.5
q1 -13 -9.5 -25t-29.5 -12z" />
    <glyph glyph-name="uni1E61" unicode="&#x1e61;" horiz-adv-x="438" 
d="M245 -10q-34 0 -65.5 8.5t-53 23.5t-31.5 33l13 -11v-44h-44v128h40l5 -66l-16 43q17 -38 57.5 -57.5t88.5 -19.5q44 0 73 18t29 50q0 38 -24.5 52.5t-78.5 25.5l-60 13q-51 12 -82 34.5t-31 74.5t41.5 79.5t102.5 27.5q26 0 53 -7t50 -21t34 -34l-16 9v44h44v-132h-40
l-9 88l14 -49q-5 18 -24.5 31.5t-45.5 22.5t-53 9q-38 0 -67.5 -16t-29.5 -50q0 -29 22 -43t62 -23l57 -12q42 -10 71.5 -23t45 -35.5t15.5 -61.5q0 -38 -21 -62.5t-55 -36t-71 -11.5zM233 470q-18 0 -29 11.5t-11 25.5q0 16 10.5 27t29.5 11q18 0 28.5 -10.5t10.5 -27.5
q1 -13 -9.5 -25t-29.5 -12z" />
    <glyph glyph-name="uni1E62" unicode="&#x1e62;" horiz-adv-x="536" 
d="M305 -10q-46 0 -84 12.5t-64.5 36t-39.5 55.5h9v-94h-48v190h45q3 -47 22.5 -82.5t58.5 -55.5t99 -20q62 0 95 29t33 81q0 38 -12.5 60.5t-41.5 35.5t-78 20l-49 7q-82 13 -128 50t-46 109q0 47 21 80.5t61 51.5t95 18q65 0 111.5 -27.5t61.5 -73.5h-15v90h48v-155h-45
q-2 31 -18 59t-50.5 46t-90.5 18q-61 0 -93.5 -28.5t-32.5 -74.5q0 -53 34.5 -77t96.5 -35l49 -7q60 -9 99 -27.5t57.5 -50.5t18.5 -82q0 -44 -21 -80.5t-60.5 -57.5t-97.5 -21zM303 -125q-18 0 -29 11.5t-11 25.5q0 15 10.5 26t29.5 11q18 0 28.5 -10.5t10.5 -26.5
q1 -14 -9.5 -25.5t-29.5 -11.5z" />
    <glyph glyph-name="uni1E63" unicode="&#x1e63;" horiz-adv-x="438" 
d="M245 -10q-34 0 -65.5 8.5t-53 23.5t-31.5 33l13 -11v-44h-44v128h40l5 -66l-16 43q17 -38 57.5 -57.5t88.5 -19.5q44 0 73 18t29 50q0 38 -24.5 52.5t-78.5 25.5l-60 13q-51 12 -82 34.5t-31 74.5t41.5 79.5t102.5 27.5q26 0 53 -7t50 -21t34 -34l-16 9v44h44v-132h-40
l-9 88l14 -49q-5 18 -24.5 31.5t-45.5 22.5t-53 9q-38 0 -67.5 -16t-29.5 -50q0 -29 22 -43t62 -23l57 -12q42 -10 71.5 -23t45 -35.5t15.5 -61.5q0 -38 -21 -62.5t-55 -36t-71 -11.5zM231 -125q-18 0 -29 11.5t-11 25.5q0 15 10.5 26t29.5 11q18 0 28.5 -10.5t10.5 -26.5
q1 -14 -9.5 -25.5t-29.5 -11.5z" />
    <glyph glyph-name="uni1E64" unicode="&#x1e64;" horiz-adv-x="536" 
d="M305 -10q-46 0 -84 12.5t-64.5 36t-39.5 55.5h9v-94h-48v190h45q3 -47 22.5 -82.5t58.5 -55.5t99 -20q62 0 95 29t33 81q0 38 -12.5 60.5t-41.5 35.5t-78 20l-49 7q-82 13 -128 50t-46 109q0 47 21 80.5t61 51.5t95 18q65 0 111.5 -27.5t61.5 -73.5h-15v90h48v-155h-45
q-2 31 -18 59t-50.5 46t-90.5 18q-61 0 -93.5 -28.5t-32.5 -74.5q0 -53 34.5 -77t96.5 -35l49 -7q60 -9 99 -27.5t57.5 -50.5t18.5 -82q0 -44 -21 -80.5t-60.5 -57.5t-97.5 -21zM262 650l49 135h60l-76 -135h-33zM277 875q-18 0 -29 11.5t-11 25.5q0 16 10.5 27t29.5 11
q18 0 28.5 -10.5t10.5 -27.5q1 -13 -9.5 -25t-29.5 -12z" />
    <glyph glyph-name="uni1E65" unicode="&#x1e65;" horiz-adv-x="438" 
d="M245 -10q-34 0 -65.5 8.5t-53 23.5t-31.5 33l13 -11v-44h-44v128h40l5 -66l-16 43q17 -38 57.5 -57.5t88.5 -19.5q44 0 73 18t29 50q0 38 -24.5 52.5t-78.5 25.5l-60 13q-51 12 -82 34.5t-31 74.5t41.5 79.5t102.5 27.5q26 0 53 -7t50 -21t34 -34l-16 9v44h44v-132h-40
l-9 88l14 -49q-5 18 -24.5 31.5t-45.5 22.5t-53 9q-38 0 -67.5 -16t-29.5 -50q0 -29 22 -43t62 -23l57 -12q42 -10 71.5 -23t45 -35.5t15.5 -61.5q0 -38 -21 -62.5t-55 -36t-71 -11.5zM218 480l49 135h60l-76 -135h-33zM233 705q-18 0 -29 11.5t-11 25.5q0 16 10.5 27
t29.5 11q18 0 28.5 -10.5t10.5 -27.5q1 -13 -9.5 -25t-29.5 -12z" />
    <glyph glyph-name="uni1E66" unicode="&#x1e66;" horiz-adv-x="536" 
d="M305 -10q-46 0 -84 12.5t-64.5 36t-39.5 55.5h9v-94h-48v190h45q3 -47 22.5 -82.5t58.5 -55.5t99 -20q62 0 95 29t33 81q0 38 -12.5 60.5t-41.5 35.5t-78 20l-49 7q-82 13 -128 50t-46 109q0 47 21 80.5t61 51.5t95 18q65 0 111.5 -27.5t61.5 -73.5h-15v90h48v-155h-45
q-2 31 -18 59t-50.5 46t-90.5 18q-61 0 -93.5 -28.5t-32.5 -74.5q0 -53 34.5 -77t96.5 -35l49 -7q60 -9 99 -27.5t57.5 -50.5t18.5 -82q0 -44 -21 -80.5t-60.5 -57.5t-97.5 -21zM254 629l-84 151h40l68 -117l66 117h39l-82 -151h-47zM277 843q-18 0 -29 11.5t-11 25.5
q0 16 10.5 27t29.5 11q18 0 28.5 -10.5t10.5 -27.5q1 -13 -9.5 -25t-29.5 -12z" />
    <glyph glyph-name="uni1E67" unicode="&#x1e67;" horiz-adv-x="438" 
d="M245 -10q-34 0 -65.5 8.5t-53 23.5t-31.5 33l13 -11v-44h-44v128h40l5 -66l-16 43q17 -38 57.5 -57.5t88.5 -19.5q44 0 73 18t29 50q0 38 -24.5 52.5t-78.5 25.5l-60 13q-51 12 -82 34.5t-31 74.5t41.5 79.5t102.5 27.5q26 0 53 -7t50 -21t34 -34l-16 9v44h44v-132h-40
l-9 88l14 -49q-5 18 -24.5 31.5t-45.5 22.5t-53 9q-38 0 -67.5 -16t-29.5 -50q0 -29 22 -43t62 -23l57 -12q42 -10 71.5 -23t45 -35.5t15.5 -61.5q0 -38 -21 -62.5t-55 -36t-71 -11.5zM210 459l-84 151h40l68 -117l66 117h39l-82 -151h-47zM233 673q-18 0 -29 11.5t-11 25.5
q0 16 10.5 27t29.5 11q18 0 28.5 -10.5t10.5 -27.5q1 -13 -9.5 -25t-29.5 -12z" />
    <glyph glyph-name="uni1E68" unicode="&#x1e68;" horiz-adv-x="536" 
d="M305 -10q-46 0 -84 12.5t-64.5 36t-39.5 55.5h9v-94h-48v190h45q3 -47 22.5 -82.5t58.5 -55.5t99 -20q62 0 95 29t33 81q0 38 -12.5 60.5t-41.5 35.5t-78 20l-49 7q-82 13 -128 50t-46 109q0 47 21 80.5t61 51.5t95 18q65 0 111.5 -27.5t61.5 -73.5h-15v90h48v-155h-45
q-2 31 -18 59t-50.5 46t-90.5 18q-61 0 -93.5 -28.5t-32.5 -74.5q0 -53 34.5 -77t96.5 -35l49 -7q60 -9 99 -27.5t57.5 -50.5t18.5 -82q0 -44 -21 -80.5t-60.5 -57.5t-97.5 -21zM303 -125q-18 0 -29 11.5t-11 25.5q0 15 10.5 26t29.5 11q18 0 28.5 -10.5t10.5 -26.5
q1 -14 -9.5 -25.5t-29.5 -11.5zM277 640q-18 0 -29 11.5t-11 25.5q0 16 10.5 27t29.5 11q18 0 28.5 -10.5t10.5 -27.5q1 -13 -9.5 -25t-29.5 -12z" />
    <glyph glyph-name="uni1E69" unicode="&#x1e69;" horiz-adv-x="438" 
d="M245 -10q-34 0 -65.5 8.5t-53 23.5t-31.5 33l13 -11v-44h-44v128h40l5 -66l-16 43q17 -38 57.5 -57.5t88.5 -19.5q44 0 73 18t29 50q0 38 -24.5 52.5t-78.5 25.5l-60 13q-51 12 -82 34.5t-31 74.5t41.5 79.5t102.5 27.5q26 0 53 -7t50 -21t34 -34l-16 9v44h44v-132h-40
l-9 88l14 -49q-5 18 -24.5 31.5t-45.5 22.5t-53 9q-38 0 -67.5 -16t-29.5 -50q0 -29 22 -43t62 -23l57 -12q42 -10 71.5 -23t45 -35.5t15.5 -61.5q0 -38 -21 -62.5t-55 -36t-71 -11.5zM231 -125q-18 0 -29 11.5t-11 25.5q0 15 10.5 26t29.5 11q18 0 28.5 -10.5t10.5 -26.5
q1 -14 -9.5 -25.5t-29.5 -11.5zM233 470q-18 0 -29 11.5t-11 25.5q0 16 10.5 27t29.5 11q18 0 28.5 -10.5t10.5 -27.5q1 -13 -9.5 -25t-29.5 -12z" />
    <glyph glyph-name="uni1E6A" unicode="&#x1e6a;" horiz-adv-x="559" 
d="M169 0v39h81v485h-180v-153h-45v192h509v-192h-46v153h-180v-485h81v-39h-220zM278 640q-18 0 -29 11.5t-11 25.5q0 16 10.5 27t29.5 11q18 0 28.5 -10.5t10.5 -27.5q1 -13 -9.5 -25t-29.5 -12z" />
    <glyph glyph-name="uni1E6B" unicode="&#x1e6b;" horiz-adv-x="293" 
d="M207 0q-55 0 -86.5 26t-31.5 86v242h-69v39h69v135l54 20v-155h109v-39h-109v-239q0 -42 16.5 -59t55.5 -17h50v-39h-58zM117 583q-18 0 -29 11.5t-11 25.5q0 16 10.5 27t29.5 11q18 0 28.5 -10.5t10.5 -27.5q1 -13 -9.5 -25t-29.5 -12z" />
    <glyph glyph-name="uni1E6C" unicode="&#x1e6c;" horiz-adv-x="559" 
d="M169 0v39h81v485h-180v-153h-45v192h509v-192h-46v153h-180v-485h81v-39h-220zM279 -125q-18 0 -29 11.5t-11 25.5q0 15 10.5 26t29.5 11q18 0 28.5 -10.5t10.5 -26.5q1 -14 -9.5 -25.5t-29.5 -11.5z" />
    <glyph glyph-name="uni1E6D" unicode="&#x1e6d;" horiz-adv-x="293" 
d="M207 0q-55 0 -86.5 26t-31.5 86v242h-69v39h69v135l54 20v-155h109v-39h-109v-239q0 -42 16.5 -59t55.5 -17h50v-39h-58zM191 -123q-18 0 -29 11.5t-11 25.5q0 15 10.5 26t29.5 11q18 0 28.5 -10.5t10.5 -26.5q1 -14 -9.5 -25.5t-29.5 -11.5z" />
    <glyph glyph-name="uni1E6E" unicode="&#x1e6e;" horiz-adv-x="559" 
d="M169 0v39h81v485h-180v-153h-45v192h509v-192h-46v153h-180v-485h81v-39h-220zM180 -78v34h198v-34h-198z" />
    <glyph glyph-name="uni1E6F" unicode="&#x1e6f;" horiz-adv-x="293" 
d="M207 0q-55 0 -86.5 26t-31.5 86v242h-69v39h69v135l54 20v-155h109v-39h-109v-239q0 -42 16.5 -59t55.5 -17h50v-39h-58zM92 -76v34h198v-34h-198z" />
    <glyph glyph-name="uni1E78" unicode="&#x1e78;" horiz-adv-x="696" 
d="M347 -10q-79 0 -132 26t-80 72.5t-27 106.5v329h-74v39h208v-39h-75v-335q0 -47 22 -82t63 -54t96 -19q60 0 103.5 18.5t67.5 53.5t24 83v335h-74v39h201v-39h-76v-334q0 -64 -31.5 -109t-87 -68t-128.5 -23zM413 646q-21 0 -42.5 10t-41.5 19.5t-37 9.5q-26 0 -30 -37
h-26q2 38 18.5 57.5t43.5 19.5q19 0 39.5 -9.5t41 -19.5t36.5 -10q13 0 21.5 8.5t10.5 28.5h25q-1 -34 -14.5 -55.5t-44.5 -21.5zM339 795l49 135h60l-76 -135h-33z" />
    <glyph glyph-name="uni1E79" unicode="&#x1e79;" 
d="M211 -10q-47 0 -75 18.5t-39.5 47.5t-11.5 58v240h-71v39h125v-275q0 -36 20 -60.5t62 -24.5q50 0 89.5 21t77.5 57l-24 -33v276h-72v39h126v-354h73v-39h-124l-3 64l26 5q-41 -37 -85.5 -58t-93.5 -21zM298 476q-21 0 -42.5 10t-41.5 19.5t-37 9.5q-26 0 -30 -37h-26
q2 38 18.5 57.5t43.5 19.5q19 0 39.5 -9.5t41 -19.5t36.5 -10q13 0 21.5 8.5t10.5 28.5h25q-1 -34 -14.5 -55.5t-44.5 -21.5zM224 625l49 135h60l-76 -135h-33z" />
    <glyph glyph-name="uni1E7A" unicode="&#x1e7a;" horiz-adv-x="696" 
d="M347 -10q-79 0 -132 26t-80 72.5t-27 106.5v329h-74v39h208v-39h-75v-335q0 -47 22 -82t63 -54t96 -19q60 0 103.5 18.5t67.5 53.5t24 83v335h-74v39h201v-39h-76v-334q0 -64 -31.5 -109t-87 -68t-128.5 -23zM255 647v34h198v-34h-198zM266 746q-16 0 -25.5 9.5
t-9.5 24.5t9.5 24t25.5 9t25 -9t9 -25q0 -14 -9 -23.5t-25 -9.5zM442 746q-15 0 -24.5 9t-9.5 24q0 16 9.5 25t24.5 9q16 0 25.5 -9t9.5 -25q0 -15 -9.5 -24t-25.5 -9z" />
    <glyph glyph-name="uni1E7B" unicode="&#x1e7b;" 
d="M211 -10q-47 0 -75 18.5t-39.5 47.5t-11.5 58v240h-71v39h125v-275q0 -36 20 -60.5t62 -24.5q50 0 89.5 21t77.5 57l-24 -33v276h-72v39h126v-354h73v-39h-124l-3 64l26 5q-41 -37 -85.5 -58t-93.5 -21zM140 477v34h198v-34h-198zM151 576q-16 0 -25.5 9.5t-9.5 24.5
t9.5 24t25.5 9t25 -9t9 -25q0 -14 -9 -23.5t-25 -9.5zM327 576q-15 0 -24.5 9t-9.5 24q0 16 9.5 25t24.5 9q16 0 25.5 -9t9.5 -25q0 -15 -9.5 -24t-25.5 -9z" />
    <glyph glyph-name="Wgrave" unicode="&#x1e80;" horiz-adv-x="936" 
d="M268 0l-171 524h-68v39h201v-39h-75l142 -449l154 470h43l153 -470l139 449h-74v39h195v-39h-70l-166 -524h-53l-148 450l-149 -450h-53zM455 632l-76 135h60l49 -135h-33z" />
    <glyph glyph-name="wgrave" unicode="&#x1e81;" horiz-adv-x="735" 
d="M198 0l-128 354h-58v39h175v-39h-64l107 -304l108 304h-62v39h184v-39h-63l111 -304l101 304h-61v39h171v-39h-61l-122 -354h-55l-114 309l-113 -309h-56zM350 480l-76 135h60l49 -135h-33z" />
    <glyph glyph-name="Wacute" unicode="&#x1e82;" horiz-adv-x="936" 
d="M268 0l-171 524h-68v39h201v-39h-75l142 -449l154 470h43l153 -470l139 449h-74v39h195v-39h-70l-166 -524h-53l-148 450l-149 -450h-53zM458 632l49 135h60l-76 -135h-33z" />
    <glyph glyph-name="wacute" unicode="&#x1e83;" horiz-adv-x="735" 
d="M198 0l-128 354h-58v39h175v-39h-64l107 -304l108 304h-62v39h184v-39h-63l111 -304l101 304h-61v39h171v-39h-61l-122 -354h-55l-114 309l-113 -309h-56zM353 480l49 135h60l-76 -135h-33z" />
    <glyph glyph-name="Wdieresis" unicode="&#x1e84;" horiz-adv-x="936" 
d="M268 0l-171 524h-68v39h201v-39h-75l142 -449l154 470h43l153 -470l139 449h-74v39h195v-39h-70l-166 -524h-53l-148 450l-149 -450h-53zM385 621q-16 0 -25.5 9.5t-9.5 24.5t9.5 24t25.5 9t25 -9t9 -25q0 -14 -9 -23.5t-25 -9.5zM561 621q-15 0 -24.5 9t-9.5 24
q0 16 9.5 25t24.5 9q16 0 25.5 -9t9.5 -25q0 -15 -9.5 -24t-25.5 -9z" />
    <glyph glyph-name="wdieresis" unicode="&#x1e85;" horiz-adv-x="735" 
d="M198 0l-128 354h-58v39h175v-39h-64l107 -304l108 304h-62v39h184v-39h-63l111 -304l101 304h-61v39h171v-39h-61l-122 -354h-55l-114 309l-113 -309h-56zM280 469q-16 0 -25.5 9.5t-9.5 24.5t9.5 24t25.5 9t25 -9t9 -25q0 -14 -9 -23.5t-25 -9.5zM456 469q-15 0 -24.5 9
t-9.5 24q0 16 9.5 25t24.5 9q16 0 25.5 -9t9.5 -25q0 -15 -9.5 -24t-25.5 -9z" />
    <glyph glyph-name="uni1E8E" unicode="&#x1e8e;" horiz-adv-x="624" 
d="M202 0v39h82v196l-198 289h-75v39h211v-39h-72l168 -249l164 249h-74v39h205v-39h-76l-195 -289v-196h83v-39h-223zM317 640q-18 0 -29 11.5t-11 25.5q0 16 10.5 27t29.5 11q18 0 28.5 -10.5t10.5 -27.5q1 -13 -9.5 -25t-29.5 -12z" />
    <glyph glyph-name="uni1E8F" unicode="&#x1e8f;" horiz-adv-x="521" 
d="M107 -143v45h43q27 0 43 4t27 17.5t21 39.5l25 64h-25l-150 327h-76v39h195v-39h-64l131 -295l120 295h-74v39h192v-39h-64l-161 -388q-15 -39 -30 -62.5t-39 -35t-68 -11.5h-46zM267 470q-18 0 -29 11.5t-11 25.5q0 16 10.5 27t29.5 11q18 0 28.5 -10.5t10.5 -27.5
q1 -13 -9.5 -25t-29.5 -12z" />
    <glyph glyph-name="uni1E92" unicode="&#x1e92;" horiz-adv-x="588" 
d="M65 0v42l382 482h-323v-140h-44v179h437v-38l-383 -486h348v148h45v-187h-462zM296 -125q-18 0 -29 11.5t-11 25.5q0 15 10.5 26t29.5 11q18 0 28.5 -10.5t10.5 -26.5q1 -14 -9.5 -25.5t-29.5 -11.5z" />
    <glyph glyph-name="uni1E93" unicode="&#x1e93;" horiz-adv-x="449" 
d="M59 0v40l266 315h-214v-87h-43v125h317v-43l-263 -313h226v99h44v-136h-333zM226 -125q-18 0 -29 11.5t-11 25.5q0 15 10.5 26t29.5 11q18 0 28.5 -10.5t10.5 -26.5q1 -14 -9.5 -25.5t-29.5 -11.5z" />
    <glyph glyph-name="uni1E97" unicode="&#x1e97;" horiz-adv-x="293" 
d="M207 0q-55 0 -86.5 26t-31.5 86v242h-69v39h69v135l54 20v-155h109v-39h-109v-239q0 -42 16.5 -59t55.5 -17h50v-39h-58zM29 582q-16 0 -25.5 9.5t-9.5 24.5t9.5 24t25.5 9t25 -9t9 -25q0 -14 -9 -23.5t-25 -9.5zM205 582q-15 0 -24.5 9t-9.5 24q0 16 9.5 25t24.5 9
q16 0 25.5 -9t9.5 -25q0 -15 -9.5 -24t-25.5 -9z" />
    <glyph glyph-name="uni1E9E" unicode="&#x1e9e;" horiz-adv-x="602" 
d="M321 -10v43q87 0 129 31.5t42 94.5t-44.5 93t-136.5 30v39l138 179q-27 14 -59 21.5t-74 7.5q-76 0 -120.5 -38t-44.5 -118v-334h56v-39h-165v39h50v332q0 95 57.5 148.5t165.5 53.5q58 0 101 -14t78 -33v-40l-130 -165q92 -5 141.5 -47.5t49.5 -112.5q0 -56 -27 -94
t-79 -57.5t-128 -19.5z" />
    <glyph glyph-name="uni1EA0" unicode="&#x1ea0;" horiz-adv-x="675" 
d="M34 0v39h74l176 485h-66v39h241v-39h-69l179 -485h71v-39h-207v39h74l-66 186h-212l-66 -186h74v-39h-203zM241 264h188l-92 258h-4zM336 -125q-18 0 -29 11.5t-11 25.5q0 15 10.5 26t29.5 11q18 0 28.5 -10.5t10.5 -26.5q1 -14 -9.5 -25.5t-29.5 -11.5z" />
    <glyph glyph-name="uni1EA1" unicode="&#x1ea1;" horiz-adv-x="450" 
d="M173 -11q-60 0 -97 33.5t-37 83.5q0 45 20.5 71t54.5 37t74 11q36 0 74 -5.5t75 -14.5l-23 -5v60q0 53 -28.5 78t-74.5 25q-31 0 -67.5 -9.5t-68.5 -25.5l-16 37q37 20 78.5 29t72.5 9q56 0 90.5 -18.5t50.5 -49.5t16 -68v-228h62v-39h-107l-7 52h21q-43 -32 -81.5 -47.5
t-81.5 -15.5zM180 27q37 0 74 15t83 47l-23 -26v124l19 -14q-33 9 -69 14t-73 5q-38 0 -69 -18t-31 -66q0 -33 23 -57t66 -24zM237 -125q-18 0 -29 11.5t-11 25.5q0 15 10.5 26t29.5 11q18 0 28.5 -10.5t10.5 -26.5q1 -14 -9.5 -25.5t-29.5 -11.5z" />
    <glyph glyph-name="uni1EA2" unicode="&#x1ea2;" horiz-adv-x="675" 
d="M34 0v39h74l176 485h-66v39h241v-39h-69l179 -485h71v-39h-207v39h74l-66 186h-212l-66 -186h74v-39h-203zM241 264h188l-92 258h-4zM338 607l-12 34q15 5 23.5 13.5t8.5 21.5q0 14 -9 21t-25 7q-11 0 -21.5 -3.5t-21.5 -9.5l-13 33q12 7 27 11.5t33 4.5q32 0 51.5 -17.5
t19.5 -44.5t-16 -44.5t-45 -26.5z" />
    <glyph glyph-name="uni1EA3" unicode="&#x1ea3;" horiz-adv-x="450" 
d="M173 -11q-60 0 -97 33.5t-37 83.5q0 45 20.5 71t54.5 37t74 11q36 0 74 -5.5t75 -14.5l-23 -5v60q0 53 -28.5 78t-74.5 25q-31 0 -67.5 -9.5t-68.5 -25.5l-16 37q37 20 78.5 29t72.5 9q56 0 90.5 -18.5t50.5 -49.5t16 -68v-228h62v-39h-107l-7 52h21q-43 -32 -81.5 -47.5
t-81.5 -15.5zM180 27q37 0 74 15t83 47l-23 -26v124l19 -14q-33 9 -69 14t-73 5q-38 0 -69 -18t-31 -66q0 -33 23 -57t66 -24zM217 437l-12 34q15 5 23.5 13.5t8.5 21.5q0 14 -9 21t-25 7q-11 0 -21.5 -3.5t-21.5 -9.5l-13 33q12 7 27 11.5t33 4.5q32 0 51.5 -17.5
t19.5 -44.5t-16 -44.5t-45 -26.5z" />
    <glyph glyph-name="uni1EA4" unicode="&#x1ea4;" horiz-adv-x="675" 
d="M34 0v39h74l176 485h-66v39h241v-39h-69l179 -485h71v-39h-207v39h74l-66 186h-212l-66 -186h74v-39h-203zM241 264h188l-92 258h-4zM228 621l84 124h53l83 -124h-41l-69 97l-69 -97h-41zM417 710l42 114h54l-62 -114h-34z" />
    <glyph glyph-name="uni1EA5" unicode="&#x1ea5;" horiz-adv-x="450" 
d="M173 -11q-60 0 -97 33.5t-37 83.5q0 45 20.5 71t54.5 37t74 11q36 0 74 -5.5t75 -14.5l-23 -5v60q0 53 -28.5 78t-74.5 25q-31 0 -67.5 -9.5t-68.5 -25.5l-16 37q37 20 78.5 29t72.5 9q56 0 90.5 -18.5t50.5 -49.5t16 -68v-228h62v-39h-107l-7 52h21q-43 -32 -81.5 -47.5
t-81.5 -15.5zM180 27q37 0 74 15t83 47l-23 -26v124l19 -14q-33 9 -69 14t-73 5q-38 0 -69 -18t-31 -66q0 -33 23 -57t66 -24zM107 451l84 124h53l83 -124h-41l-69 97l-69 -97h-41zM296 540l42 114h54l-62 -114h-34z" />
    <glyph glyph-name="uni1EA6" unicode="&#x1ea6;" horiz-adv-x="675" 
d="M34 0v39h74l176 485h-66v39h241v-39h-69l179 -485h71v-39h-207v39h74l-66 186h-212l-66 -186h74v-39h-203zM241 264h188l-92 258h-4zM228 621l84 124h53l83 -124h-41l-69 97l-69 -97h-41zM468 710h-34l-62 114h53z" />
    <glyph glyph-name="uni1EA7" unicode="&#x1ea7;" horiz-adv-x="450" 
d="M173 -11q-60 0 -97 33.5t-37 83.5q0 45 20.5 71t54.5 37t74 11q36 0 74 -5.5t75 -14.5l-23 -5v60q0 53 -28.5 78t-74.5 25q-31 0 -67.5 -9.5t-68.5 -25.5l-16 37q37 20 78.5 29t72.5 9q56 0 90.5 -18.5t50.5 -49.5t16 -68v-228h62v-39h-107l-7 52h21q-43 -32 -81.5 -47.5
t-81.5 -15.5zM180 27q37 0 74 15t83 47l-23 -26v124l19 -14q-33 9 -69 14t-73 5q-38 0 -69 -18t-31 -66q0 -33 23 -57t66 -24zM107 451l84 124h53l83 -124h-41l-69 97l-69 -97h-41zM347 540h-34l-62 114h53z" />
    <glyph glyph-name="uni1EA8" unicode="&#x1ea8;" horiz-adv-x="675" 
d="M34 0v39h74l176 485h-66v39h241v-39h-69l179 -485h71v-39h-207v39h74l-66 186h-212l-66 -186h74v-39h-203zM241 264h188l-92 258h-4zM228 621l84 124h53l83 -124h-41l-69 97l-69 -97h-41zM423 703l-12 33q15 5 23.5 14t8.5 22t-9 20.5t-25 7.5q-11 0 -21.5 -3.5
t-21.5 -9.5l-13 33q12 7 27 11.5t32 4.5q33 0 52 -17.5t19 -44.5t-15.5 -44.5t-44.5 -26.5z" />
    <glyph glyph-name="uni1EA9" unicode="&#x1ea9;" horiz-adv-x="450" 
d="M173 -11q-60 0 -97 33.5t-37 83.5q0 45 20.5 71t54.5 37t74 11q36 0 74 -5.5t75 -14.5l-23 -5v60q0 53 -28.5 78t-74.5 25q-31 0 -67.5 -9.5t-68.5 -25.5l-16 37q37 20 78.5 29t72.5 9q56 0 90.5 -18.5t50.5 -49.5t16 -68v-228h62v-39h-107l-7 52h21q-43 -32 -81.5 -47.5
t-81.5 -15.5zM180 27q37 0 74 15t83 47l-23 -26v124l19 -14q-33 9 -69 14t-73 5q-38 0 -69 -18t-31 -66q0 -33 23 -57t66 -24zM107 451l84 124h53l83 -124h-41l-69 97l-69 -97h-41zM302 533l-12 33q15 5 23.5 14t8.5 22t-9 20.5t-25 7.5q-11 0 -21.5 -3.5t-21.5 -9.5l-13 33
q12 7 27 11.5t32 4.5q33 0 52 -17.5t19 -44.5t-15.5 -44.5t-44.5 -26.5z" />
    <glyph glyph-name="uni1EAA" unicode="&#x1eaa;" horiz-adv-x="675" 
d="M34 0v39h74l176 485h-66v39h241v-39h-69l179 -485h71v-39h-207v39h74l-66 186h-212l-66 -186h74v-39h-203zM241 264h188l-92 258h-4zM228 621l84 124h53l83 -124h-41l-69 97l-69 -97h-41zM393 767q-20 0 -40 8.5t-39 17t-36 8.5q-24 0 -28 -32h-26q2 36 19 54t43 18
q18 0 37.5 -8t38 -17t33.5 -9q13 0 21 7.5t10 24.5h25q-1 -31 -15 -51.5t-43 -20.5z" />
    <glyph glyph-name="uni1EAB" unicode="&#x1eab;" horiz-adv-x="450" 
d="M173 -11q-60 0 -97 33.5t-37 83.5q0 45 20.5 71t54.5 37t74 11q36 0 74 -5.5t75 -14.5l-23 -5v60q0 53 -28.5 78t-74.5 25q-31 0 -67.5 -9.5t-68.5 -25.5l-16 37q37 20 78.5 29t72.5 9q56 0 90.5 -18.5t50.5 -49.5t16 -68v-228h62v-39h-107l-7 52h21q-43 -32 -81.5 -47.5
t-81.5 -15.5zM180 27q37 0 74 15t83 47l-23 -26v124l19 -14q-33 9 -69 14t-73 5q-38 0 -69 -18t-31 -66q0 -33 23 -57t66 -24zM107 451l84 124h53l83 -124h-41l-69 97l-69 -97h-41zM272 597q-20 0 -40 8.5t-39 17t-36 8.5q-24 0 -28 -32h-26q2 36 19 54t43 18q18 0 37.5 -8
t38 -17t33.5 -9q13 0 21 7.5t10 24.5h25q-1 -31 -15 -51.5t-43 -20.5z" />
    <glyph glyph-name="uni1EAC" unicode="&#x1eac;" horiz-adv-x="675" 
d="M34 0v39h74l176 485h-66v39h241v-39h-69l179 -485h71v-39h-207v39h74l-66 186h-212l-66 -186h74v-39h-203zM241 264h188l-92 258h-4zM228 621l84 154h53l83 -154h-41l-69 127l-69 -127h-41zM336 -125q-18 0 -29 11.5t-11 25.5q0 15 10.5 26t29.5 11q18 0 28.5 -10.5
t10.5 -26.5q1 -14 -9.5 -25.5t-29.5 -11.5z" />
    <glyph glyph-name="uni1EAD" unicode="&#x1ead;" horiz-adv-x="450" 
d="M173 -11q-60 0 -97 33.5t-37 83.5q0 45 20.5 71t54.5 37t74 11q36 0 74 -5.5t75 -14.5l-23 -5v60q0 53 -28.5 78t-74.5 25q-31 0 -67.5 -9.5t-68.5 -25.5l-16 37q37 20 78.5 29t72.5 9q56 0 90.5 -18.5t50.5 -49.5t16 -68v-228h62v-39h-107l-7 52h21q-43 -32 -81.5 -47.5
t-81.5 -15.5zM180 27q37 0 74 15t83 47l-23 -26v124l19 -14q-33 9 -69 14t-73 5q-38 0 -69 -18t-31 -66q0 -33 23 -57t66 -24zM237 -125q-18 0 -29 11.5t-11 25.5q0 15 10.5 26t29.5 11q18 0 28.5 -10.5t10.5 -26.5q1 -14 -9.5 -25.5t-29.5 -11.5zM107 451l84 154h53
l83 -154h-41l-69 127l-69 -127h-41z" />
    <glyph glyph-name="uni1EAE" unicode="&#x1eae;" horiz-adv-x="675" 
d="M34 0v39h74l176 485h-66v39h241v-39h-69l179 -485h71v-39h-207v39h74l-66 186h-212l-66 -186h74v-39h-203zM241 264h188l-92 258h-4zM338 626q-38 -1 -63.5 22t-29.5 63h37q4 -25 19 -38t37 -13q21 0 36 13t19 38h38q-5 -40 -30 -62.5t-63 -22.5zM315 725l41 99h60
l-68 -99h-33z" />
    <glyph glyph-name="uni1EAF" unicode="&#x1eaf;" horiz-adv-x="450" 
d="M173 -11q-60 0 -97 33.5t-37 83.5q0 45 20.5 71t54.5 37t74 11q36 0 74 -5.5t75 -14.5l-23 -5v60q0 53 -28.5 78t-74.5 25q-31 0 -67.5 -9.5t-68.5 -25.5l-16 37q37 20 78.5 29t72.5 9q56 0 90.5 -18.5t50.5 -49.5t16 -68v-228h62v-39h-107l-7 52h21q-43 -32 -81.5 -47.5
t-81.5 -15.5zM180 27q37 0 74 15t83 47l-23 -26v124l19 -14q-33 9 -69 14t-73 5q-38 0 -69 -18t-31 -66q0 -33 23 -57t66 -24zM217 456q-38 -1 -63.5 22t-29.5 63h37q4 -25 19 -38t37 -13q21 0 36 13t19 38h38q-5 -40 -30 -62.5t-63 -22.5zM194 555l41 99h60l-68 -99h-33z
" />
    <glyph glyph-name="uni1EB0" unicode="&#x1eb0;" horiz-adv-x="675" 
d="M34 0v39h74l176 485h-66v39h241v-39h-69l179 -485h71v-39h-207v39h74l-66 186h-212l-66 -186h74v-39h-203zM241 264h188l-92 258h-4zM338 626q-38 -1 -63.5 22t-29.5 63h37q4 -25 19 -38t37 -13q21 0 36 13t19 38h38q-5 -40 -30 -62.5t-63 -22.5zM327 725l-68 99h60
l41 -99h-33z" />
    <glyph glyph-name="uni1EB1" unicode="&#x1eb1;" horiz-adv-x="450" 
d="M173 -11q-60 0 -97 33.5t-37 83.5q0 45 20.5 71t54.5 37t74 11q36 0 74 -5.5t75 -14.5l-23 -5v60q0 53 -28.5 78t-74.5 25q-31 0 -67.5 -9.5t-68.5 -25.5l-16 37q37 20 78.5 29t72.5 9q56 0 90.5 -18.5t50.5 -49.5t16 -68v-228h62v-39h-107l-7 52h21q-43 -32 -81.5 -47.5
t-81.5 -15.5zM180 27q37 0 74 15t83 47l-23 -26v124l19 -14q-33 9 -69 14t-73 5q-38 0 -69 -18t-31 -66q0 -33 23 -57t66 -24zM217 456q-38 -1 -63.5 22t-29.5 63h37q4 -25 19 -38t37 -13q21 0 36 13t19 38h38q-5 -40 -30 -62.5t-63 -22.5zM206 555l-68 99h60l41 -99h-33z
" />
    <glyph glyph-name="uni1EB2" unicode="&#x1eb2;" horiz-adv-x="675" 
d="M34 0v39h74l176 485h-66v39h241v-39h-69l179 -485h71v-39h-207v39h74l-66 186h-212l-66 -186h74v-39h-203zM241 264h188l-92 258h-4zM334 711l-11 33q15 5 23.5 13.5t8.5 21.5q0 14 -9.5 21t-24.5 7q-11 0 -21.5 -3.5t-20.5 -9.5l-12 33q11 7 25.5 11.5t31.5 4.5
q33 0 52 -17t19 -45q0 -27 -16 -44t-45 -26zM338 626q-38 -1 -63.5 22t-29.5 63h37q4 -25 19 -38t37 -13q21 0 36 13t19 38h38q-5 -40 -30 -62.5t-63 -22.5z" />
    <glyph glyph-name="uni1EB3" unicode="&#x1eb3;" horiz-adv-x="450" 
d="M173 -11q-60 0 -97 33.5t-37 83.5q0 45 20.5 71t54.5 37t74 11q36 0 74 -5.5t75 -14.5l-23 -5v60q0 53 -28.5 78t-74.5 25q-31 0 -67.5 -9.5t-68.5 -25.5l-16 37q37 20 78.5 29t72.5 9q56 0 90.5 -18.5t50.5 -49.5t16 -68v-228h62v-39h-107l-7 52h21q-43 -32 -81.5 -47.5
t-81.5 -15.5zM180 27q37 0 74 15t83 47l-23 -26v124l19 -14q-33 9 -69 14t-73 5q-38 0 -69 -18t-31 -66q0 -33 23 -57t66 -24zM214 541l-11 33q15 5 23.5 13.5t8.5 21.5q0 14 -9.5 21t-24.5 7q-11 0 -21.5 -3.5t-20.5 -9.5l-12 33q11 7 25.5 11.5t31.5 4.5q33 0 52 -17
t19 -45q0 -27 -16 -44t-45 -26zM218 456q-38 -1 -63.5 22t-29.5 63h37q4 -25 19 -38t37 -13q21 0 36 13t19 38h38q-5 -40 -30 -62.5t-63 -22.5z" />
    <glyph glyph-name="uni1EB4" unicode="&#x1eb4;" horiz-adv-x="675" 
d="M34 0v39h74l176 485h-66v39h241v-39h-69l179 -485h71v-39h-207v39h74l-66 186h-212l-66 -186h74v-39h-203zM241 264h188l-92 258h-4zM393 743q-20 0 -40 9t-39 17.5t-36 8.5q-24 0 -28 -32h-26q2 35 19 53.5t43 18.5q18 0 37.5 -8.5t38 -17t33.5 -8.5q13 0 21 7.5
t10 24.5h25q-1 -32 -15 -52.5t-43 -20.5zM338 626q-38 -1 -63.5 22t-29.5 63h37q4 -25 19 -38t37 -13q21 0 36 13t19 38h38q-5 -40 -30 -62.5t-63 -22.5z" />
    <glyph glyph-name="uni1EB5" unicode="&#x1eb5;" horiz-adv-x="450" 
d="M173 -11q-60 0 -97 33.5t-37 83.5q0 45 20.5 71t54.5 37t74 11q36 0 74 -5.5t75 -14.5l-23 -5v60q0 53 -28.5 78t-74.5 25q-31 0 -67.5 -9.5t-68.5 -25.5l-16 37q37 20 78.5 29t72.5 9q56 0 90.5 -18.5t50.5 -49.5t16 -68v-228h62v-39h-107l-7 52h21q-43 -32 -81.5 -47.5
t-81.5 -15.5zM180 27q37 0 74 15t83 47l-23 -26v124l19 -14q-33 9 -69 14t-73 5q-38 0 -69 -18t-31 -66q0 -33 23 -57t66 -24zM272 573q-20 0 -40 9t-39 17.5t-36 8.5q-24 0 -28 -32h-26q2 35 19 53.5t43 18.5q18 0 37.5 -8.5t38 -17t33.5 -8.5q13 0 21 7.5t10 24.5h25
q-1 -32 -15 -52.5t-43 -20.5zM217 456q-38 -1 -63.5 22t-29.5 63h37q4 -25 19 -38t37 -13q21 0 36 13t19 38h38q-5 -40 -30 -62.5t-63 -22.5z" />
    <glyph glyph-name="uni1EB6" unicode="&#x1eb6;" horiz-adv-x="675" 
d="M34 0v39h74l176 485h-66v39h241v-39h-69l179 -485h71v-39h-207v39h74l-66 186h-212l-66 -186h74v-39h-203zM241 264h188l-92 258h-4zM338 635q-38 -1 -63 22t-30 63h36q11 -51 57 -51q22 0 36.5 13t19.5 38h37q-6 -40 -30.5 -62.5t-62.5 -22.5zM336 -125q-18 0 -29 11.5
t-11 25.5q0 15 10.5 26t29.5 11q18 0 28.5 -10.5t10.5 -26.5q1 -14 -9.5 -25.5t-29.5 -11.5z" />
    <glyph glyph-name="uni1EB7" unicode="&#x1eb7;" horiz-adv-x="450" 
d="M173 -11q-60 0 -97 33.5t-37 83.5q0 45 20.5 71t54.5 37t74 11q36 0 74 -5.5t75 -14.5l-23 -5v60q0 53 -28.5 78t-74.5 25q-31 0 -67.5 -9.5t-68.5 -25.5l-16 37q37 20 78.5 29t72.5 9q56 0 90.5 -18.5t50.5 -49.5t16 -68v-228h62v-39h-107l-7 52h21q-43 -32 -81.5 -47.5
t-81.5 -15.5zM180 27q37 0 74 15t83 47l-23 -26v124l19 -14q-33 9 -69 14t-73 5q-38 0 -69 -18t-31 -66q0 -33 23 -57t66 -24zM237 -125q-18 0 -29 11.5t-11 25.5q0 15 10.5 26t29.5 11q18 0 28.5 -10.5t10.5 -26.5q1 -14 -9.5 -25.5t-29.5 -11.5zM217 465q-38 -1 -63 22
t-30 63h36q11 -51 57 -51q22 0 36.5 13t19.5 38h37q-6 -40 -30.5 -62.5t-62.5 -22.5z" />
    <glyph glyph-name="uni1EB8" unicode="&#x1eb8;" horiz-adv-x="589" 
d="M48 0v39h81v485h-81v39h477v-164h-47v125h-290v-214h189v73h33v-190h-33v76h-189v-230h298v128h47v-167h-485zM332 -125q-18 0 -29 11.5t-11 25.5q0 15 10.5 26t29.5 11q18 0 28.5 -10.5t10.5 -26.5q1 -14 -9.5 -25.5t-29.5 -11.5z" />
    <glyph glyph-name="uni1EB9" unicode="&#x1eb9;" horiz-adv-x="467" 
d="M243 -12q-59 0 -108 25.5t-78.5 72.5t-29.5 110q0 67 28.5 113t75 70.5t101.5 24.5q56 0 99.5 -23.5t68 -70t24.5 -112.5v-13h-350l1 34h296q0 48 -19 80.5t-50.5 48.5t-69.5 16q-41 0 -75 -19.5t-54.5 -55.5t-20.5 -87q0 -52 20.5 -90.5t57 -60t81.5 -21.5
q46 0 87.5 19.5t68.5 48.5l19 -35q-32 -34 -76 -54.5t-97 -20.5zM237 -125q-18 0 -29 11.5t-11 25.5q0 15 10.5 26t29.5 11q18 0 28.5 -10.5t10.5 -26.5q1 -14 -9.5 -25.5t-29.5 -11.5z" />
    <glyph glyph-name="uni1EBA" unicode="&#x1eba;" horiz-adv-x="589" 
d="M48 0v39h81v485h-81v39h477v-164h-47v125h-290v-214h189v73h33v-190h-33v76h-189v-230h298v128h47v-167h-485zM318 607l-12 34q15 5 23.5 13.5t8.5 21.5q0 14 -9 21t-25 7q-11 0 -21.5 -3.5t-21.5 -9.5l-13 33q12 7 27 11.5t33 4.5q32 0 51.5 -17.5t19.5 -44.5t-16 -44.5
t-45 -26.5z" />
    <glyph glyph-name="uni1EBB" unicode="&#x1ebb;" horiz-adv-x="467" 
d="M243 -12q-59 0 -108 25.5t-78.5 72.5t-29.5 110q0 67 28.5 113t75 70.5t101.5 24.5q56 0 99.5 -23.5t68 -70t24.5 -112.5v-13h-350l1 34h296q0 48 -19 80.5t-50.5 48.5t-69.5 16q-41 0 -75 -19.5t-54.5 -55.5t-20.5 -87q0 -52 20.5 -90.5t57 -60t81.5 -21.5
q46 0 87.5 19.5t68.5 48.5l19 -35q-32 -34 -76 -54.5t-97 -20.5zM237 437l-12 34q15 5 23.5 13.5t8.5 21.5q0 14 -9 21t-25 7q-11 0 -21.5 -3.5t-21.5 -9.5l-13 33q12 7 27 11.5t33 4.5q32 0 51.5 -17.5t19.5 -44.5t-16 -44.5t-45 -26.5z" />
    <glyph glyph-name="uni1EBC" unicode="&#x1ebc;" horiz-adv-x="589" 
d="M48 0v39h81v485h-81v39h477v-164h-47v125h-290v-214h189v73h33v-190h-33v76h-189v-230h298v128h47v-167h-485zM377 646q-21 0 -42.5 10t-41.5 19.5t-37 9.5q-26 0 -30 -37h-26q2 38 18.5 57.5t43.5 19.5q19 0 39.5 -9.5t41 -19.5t36.5 -10q13 0 21.5 8.5t10.5 28.5h25
q-1 -34 -14.5 -55.5t-44.5 -21.5z" />
    <glyph glyph-name="uni1EBD" unicode="&#x1ebd;" horiz-adv-x="467" 
d="M243 -12q-59 0 -108 25.5t-78.5 72.5t-29.5 110q0 67 28.5 113t75 70.5t101.5 24.5q56 0 99.5 -23.5t68 -70t24.5 -112.5v-13h-350l1 34h296q0 48 -19 80.5t-50.5 48.5t-69.5 16q-41 0 -75 -19.5t-54.5 -55.5t-20.5 -87q0 -52 20.5 -90.5t57 -60t81.5 -21.5
q46 0 87.5 19.5t68.5 48.5l19 -35q-32 -34 -76 -54.5t-97 -20.5zM296 476q-21 0 -42.5 10t-41.5 19.5t-37 9.5q-26 0 -30 -37h-26q2 38 18.5 57.5t43.5 19.5q19 0 39.5 -9.5t41 -19.5t36.5 -10q13 0 21.5 8.5t10.5 28.5h25q-1 -34 -14.5 -55.5t-44.5 -21.5z" />
    <glyph glyph-name="uni1EBE" unicode="&#x1ebe;" horiz-adv-x="589" 
d="M48 0v39h81v485h-81v39h477v-164h-47v125h-290v-214h189v73h33v-190h-33v76h-189v-230h298v128h47v-167h-485zM208 621l84 124h53l83 -124h-41l-69 97l-69 -97h-41zM397 710l42 114h54l-62 -114h-34z" />
    <glyph glyph-name="uni1EBF" unicode="&#x1ebf;" horiz-adv-x="467" 
d="M243 -12q-59 0 -108 25.5t-78.5 72.5t-29.5 110q0 67 28.5 113t75 70.5t101.5 24.5q56 0 99.5 -23.5t68 -70t24.5 -112.5v-13h-350l1 34h296q0 48 -19 80.5t-50.5 48.5t-69.5 16q-41 0 -75 -19.5t-54.5 -55.5t-20.5 -87q0 -52 20.5 -90.5t57 -60t81.5 -21.5
q46 0 87.5 19.5t68.5 48.5l19 -35q-32 -34 -76 -54.5t-97 -20.5zM127 451l84 124h53l83 -124h-41l-69 97l-69 -97h-41zM316 540l42 114h54l-62 -114h-34z" />
    <glyph glyph-name="uni1EC0" unicode="&#x1ec0;" horiz-adv-x="589" 
d="M48 0v39h81v485h-81v39h477v-164h-47v125h-290v-214h189v73h33v-190h-33v76h-189v-230h298v128h47v-167h-485zM208 621l84 124h53l83 -124h-41l-69 97l-69 -97h-41zM448 710h-34l-62 114h53z" />
    <glyph glyph-name="uni1EC1" unicode="&#x1ec1;" horiz-adv-x="467" 
d="M243 -12q-59 0 -108 25.5t-78.5 72.5t-29.5 110q0 67 28.5 113t75 70.5t101.5 24.5q56 0 99.5 -23.5t68 -70t24.5 -112.5v-13h-350l1 34h296q0 48 -19 80.5t-50.5 48.5t-69.5 16q-41 0 -75 -19.5t-54.5 -55.5t-20.5 -87q0 -52 20.5 -90.5t57 -60t81.5 -21.5
q46 0 87.5 19.5t68.5 48.5l19 -35q-32 -34 -76 -54.5t-97 -20.5zM127 451l84 124h53l83 -124h-41l-69 97l-69 -97h-41zM367 540h-34l-62 114h53z" />
    <glyph glyph-name="uni1EC2" unicode="&#x1ec2;" horiz-adv-x="589" 
d="M48 0v39h81v485h-81v39h477v-164h-47v125h-290v-214h189v73h33v-190h-33v76h-189v-230h298v128h47v-167h-485zM208 621l84 124h53l83 -124h-41l-69 97l-69 -97h-41zM403 703l-12 33q15 5 23.5 14t8.5 22t-9 20.5t-25 7.5q-11 0 -21.5 -3.5t-21.5 -9.5l-13 33
q12 7 27 11.5t32 4.5q33 0 52 -17.5t19 -44.5t-15.5 -44.5t-44.5 -26.5z" />
    <glyph glyph-name="uni1EC3" unicode="&#x1ec3;" horiz-adv-x="467" 
d="M243 -12q-59 0 -108 25.5t-78.5 72.5t-29.5 110q0 67 28.5 113t75 70.5t101.5 24.5q56 0 99.5 -23.5t68 -70t24.5 -112.5v-13h-350l1 34h296q0 48 -19 80.5t-50.5 48.5t-69.5 16q-41 0 -75 -19.5t-54.5 -55.5t-20.5 -87q0 -52 20.5 -90.5t57 -60t81.5 -21.5
q46 0 87.5 19.5t68.5 48.5l19 -35q-32 -34 -76 -54.5t-97 -20.5zM127 451l84 124h53l83 -124h-41l-69 97l-69 -97h-41zM322 533l-12 33q15 5 23.5 14t8.5 22t-9 20.5t-25 7.5q-11 0 -21.5 -3.5t-21.5 -9.5l-13 33q12 7 27 11.5t32 4.5q33 0 52 -17.5t19 -44.5t-15.5 -44.5
t-44.5 -26.5z" />
    <glyph glyph-name="uni1EC4" unicode="&#x1ec4;" horiz-adv-x="589" 
d="M48 0v39h81v485h-81v39h477v-164h-47v125h-290v-214h189v73h33v-190h-33v76h-189v-230h298v128h47v-167h-485zM208 621l84 124h53l83 -124h-41l-69 97l-69 -97h-41zM373 767q-20 0 -40 8.5t-39 17t-36 8.5q-24 0 -28 -32h-26q2 36 19 54t43 18q18 0 37.5 -8t38 -17
t33.5 -9q13 0 21 7.5t10 24.5h25q-1 -31 -15 -51.5t-43 -20.5z" />
    <glyph glyph-name="uni1EC5" unicode="&#x1ec5;" horiz-adv-x="467" 
d="M243 -12q-59 0 -108 25.5t-78.5 72.5t-29.5 110q0 67 28.5 113t75 70.5t101.5 24.5q56 0 99.5 -23.5t68 -70t24.5 -112.5v-13h-350l1 34h296q0 48 -19 80.5t-50.5 48.5t-69.5 16q-41 0 -75 -19.5t-54.5 -55.5t-20.5 -87q0 -52 20.5 -90.5t57 -60t81.5 -21.5
q46 0 87.5 19.5t68.5 48.5l19 -35q-32 -34 -76 -54.5t-97 -20.5zM127 451l84 124h53l83 -124h-41l-69 97l-69 -97h-41zM292 597q-20 0 -40 8.5t-39 17t-36 8.5q-24 0 -28 -32h-26q2 36 19 54t43 18q18 0 37.5 -8t38 -17t33.5 -9q13 0 21 7.5t10 24.5h25q-1 -31 -15 -51.5
t-43 -20.5z" />
    </font>
</defs>
</svg>
